<?xml version="1.0" encoding="UTF-8"?>
<svg id="Capa_2" data-name="Capa 2" xmlns="http://www.w3.org/2000/svg" viewBox="0 0 134.75 40.35">
  <defs>
    <style>
      .cls-1, .cls-2 {
        stroke-width: 0px;
      }

      .cls-2 {
        fill: #1b5aab;
      }
    </style>
  </defs>
  <g id="Capa_1-2" data-name="Capa 1">
    <g>
      <g>
        <path class="cls-1" d="m44.01,24.25c-.34,0-.64-.06-.92-.18-.28-.12-.52-.29-.72-.51s-.36-.48-.48-.77c-.12-.3-.17-.62-.17-.98s.06-.68.17-.98c.11-.3.27-.56.48-.78.2-.22.45-.39.72-.51.28-.12.58-.18.92-.18.32,0,.6.06.86.17.25.11.47.26.65.44.18.18.3.37.38.56l-.43.19c-.12-.28-.31-.51-.56-.68s-.55-.25-.89-.25-.67.08-.95.25-.5.41-.65.71c-.15.3-.23.65-.23,1.06s.08.75.23,1.05c.16.3.37.54.65.71s.6.25.95.25.64-.08.89-.25.44-.4.56-.68l.43.19c-.08.19-.2.38-.38.56-.18.18-.39.33-.65.44-.25.12-.54.17-.86.17Z"/>
        <path class="cls-1" d="m48.26,24.25c-.32,0-.61-.08-.86-.23-.26-.15-.46-.37-.61-.64s-.22-.57-.22-.91.07-.64.22-.91c.14-.27.34-.47.59-.63.25-.15.52-.23.83-.23.24,0,.45.04.64.13s.36.21.49.36c.14.15.24.33.31.52s.11.39.11.6c0,.04,0,.09,0,.14s0,.1-.02.16h-2.92v-.39h2.67l-.2.16c.03-.24,0-.45-.1-.65s-.23-.35-.4-.46c-.17-.11-.37-.17-.59-.17s-.42.06-.61.17c-.19.12-.33.28-.44.48-.11.2-.15.44-.13.72-.02.27.03.51.14.72s.27.37.46.48c.19.12.41.17.64.17.25,0,.46-.06.63-.17.18-.12.32-.27.43-.46l.36.19c-.07.16-.18.3-.32.43-.14.13-.3.23-.49.3-.19.07-.39.11-.62.11Z"/>
        <path class="cls-1" d="m50.64,24.17v-3.39h.43v.67l-.1-.03c.08-.22.22-.4.41-.53.2-.13.42-.19.68-.19.24,0,.45.05.65.16.19.11.35.26.46.45.11.19.17.41.17.65v2.21h-.43v-2.06c0-.21-.04-.38-.12-.53-.08-.14-.19-.26-.32-.34-.14-.08-.3-.12-.47-.12s-.34.04-.48.13c-.14.08-.25.2-.33.35-.08.15-.11.33-.11.54v2.03h-.43Z"/>
        <path class="cls-1" d="m55.55,24.21c-.29,0-.52-.08-.68-.25-.16-.17-.24-.41-.24-.73v-2.03h-.63v-.42h.2c.14,0,.24-.04.32-.13.08-.09.12-.2.12-.33v-.32h.43v.79h.75v.42h-.75v2.03c0,.1.02.2.05.29.03.09.09.16.17.21.08.05.19.08.34.08.03,0,.07,0,.12,0,.05,0,.09,0,.12-.01v.38c-.05.01-.11.02-.17.03-.06,0-.11,0-.14,0Z"/>
        <path class="cls-1" d="m58.17,24.25c-.32,0-.61-.08-.86-.23-.26-.15-.46-.37-.61-.64s-.22-.57-.22-.91.07-.64.22-.91c.14-.27.34-.47.59-.63.25-.15.52-.23.83-.23.24,0,.45.04.64.13.19.09.36.21.49.36.14.15.24.33.32.52s.11.39.11.6c0,.04,0,.09,0,.14,0,.05,0,.1-.02.16h-2.92v-.39h2.67l-.2.16c.03-.24,0-.45-.1-.65-.1-.19-.23-.35-.41-.46-.17-.11-.37-.17-.59-.17s-.42.06-.61.17c-.19.12-.33.28-.44.48-.11.2-.15.44-.13.72-.02.27.03.51.14.72.11.21.27.37.46.48.19.12.41.17.64.17.25,0,.46-.06.63-.17.18-.12.32-.27.43-.46l.36.19c-.07.16-.18.3-.32.43-.14.13-.3.23-.49.3s-.39.11-.62.11Z"/>
        <path class="cls-1" d="m60.55,24.17v-3.39h.43v.59l-.06-.07c.08-.17.2-.31.37-.41.17-.1.37-.15.61-.15h.22v.43h-.28c-.26,0-.47.08-.62.25-.15.17-.23.39-.23.68v2.08h-.43Z"/>
        <path class="cls-1" d="m64.13,24.17v-2.97h-.69v-.42h.69v-.32c0-.24.05-.44.15-.6.1-.16.24-.29.4-.38.17-.09.35-.13.55-.13.05,0,.1,0,.15,0,.05,0,.09.01.13.02v.39s-.07-.01-.12-.02-.09,0-.11,0c-.21,0-.39.06-.52.17-.14.11-.2.29-.2.54v.32h.84v.42h-.84v2.97h-.43Z"/>
        <path class="cls-1" d="m67.66,24.25c-.32,0-.62-.08-.88-.23-.26-.15-.47-.37-.62-.63-.15-.27-.23-.57-.23-.91s.08-.64.23-.91c.15-.27.36-.48.62-.63.26-.15.55-.23.88-.23s.62.08.88.23c.26.15.46.36.62.63.15.26.23.57.23.91s-.08.65-.23.92-.36.48-.62.63c-.26.15-.55.23-.87.23Zm0-.43c.24,0,.45-.06.64-.18.19-.12.34-.28.45-.48s.17-.43.17-.69-.06-.48-.17-.69-.26-.37-.45-.48c-.19-.12-.41-.18-.64-.18s-.45.06-.64.18c-.19.12-.34.28-.46.48-.11.2-.17.43-.17.69s.06.48.17.69c.11.2.26.37.46.48.19.12.41.18.64.18Z"/>
        <path class="cls-1" d="m70.26,24.17v-3.39h.43v.59l-.06-.07c.08-.17.2-.31.37-.41.17-.1.37-.15.61-.15h.22v.43h-.28c-.26,0-.47.08-.62.25-.15.17-.23.39-.23.68v2.08h-.43Z"/>
        <path class="cls-1" d="m75.12,24.25c-.3,0-.57-.06-.82-.17-.24-.11-.45-.27-.61-.46-.17-.19-.28-.4-.35-.62l.41-.15c.12.32.29.57.52.74s.51.25.84.25c.21,0,.39-.03.55-.1.16-.07.29-.17.38-.29.09-.12.13-.27.13-.44,0-.24-.07-.43-.2-.56-.13-.13-.32-.23-.54-.3l-.86-.25c-.34-.1-.6-.26-.78-.49s-.26-.49-.26-.78c0-.25.06-.47.18-.66.12-.19.29-.34.5-.45.21-.11.45-.16.72-.16s.53.05.75.16c.22.1.41.24.56.41.15.17.26.36.33.56l-.41.15c-.1-.29-.26-.5-.48-.65s-.47-.22-.75-.22c-.19,0-.35.03-.49.1-.14.07-.25.16-.33.29s-.12.28-.12.45c0,.2.06.38.18.54s.32.27.59.35l.76.23c.36.11.63.26.81.47.19.21.28.47.28.78,0,.25-.06.48-.19.67-.13.19-.31.34-.54.45s-.49.16-.79.16Z"/>
        <path class="cls-1" d="m79.14,24.25c-.33,0-.62-.08-.88-.23-.25-.15-.45-.37-.6-.64s-.22-.57-.22-.91.07-.64.22-.91.34-.48.6-.63c.25-.15.55-.23.88-.23.21,0,.4.04.59.11.18.08.35.17.49.3.14.12.25.27.32.44l-.38.2c-.09-.19-.23-.34-.41-.46-.18-.12-.38-.17-.61-.17s-.45.06-.64.17c-.19.11-.33.27-.44.48s-.16.44-.16.7.05.49.16.69c.11.2.26.36.44.48s.4.17.64.17.43-.06.61-.17c.18-.11.31-.27.41-.46l.38.21c-.07.16-.18.31-.32.44-.14.13-.31.23-.49.31-.19.07-.38.11-.59.11Z"/>
        <path class="cls-1" d="m81.42,20.12v-.7h.43v.7h-.43Zm0,4.04v-3.39h.43v3.39h-.43Z"/>
        <path class="cls-1" d="m84.42,24.25c-.32,0-.61-.08-.86-.23-.26-.15-.46-.37-.61-.64-.15-.27-.22-.57-.22-.91s.07-.64.22-.91c.14-.27.34-.47.59-.63.25-.15.52-.23.83-.23.24,0,.45.04.64.13.19.09.36.21.49.36.14.15.24.33.32.52s.11.39.11.6c0,.04,0,.09,0,.14s0,.1-.02.16h-2.92v-.39h2.67l-.2.16c.03-.24,0-.45-.1-.65s-.23-.35-.4-.46c-.17-.11-.37-.17-.59-.17s-.42.06-.61.17c-.19.12-.33.28-.44.48-.11.2-.15.44-.13.72-.02.27.03.51.14.72s.27.37.46.48c.19.12.41.17.64.17.25,0,.46-.06.63-.17.18-.12.32-.27.43-.46l.36.19c-.07.16-.18.3-.32.43-.14.13-.3.23-.49.3s-.39.11-.62.11Z"/>
        <path class="cls-1" d="m86.8,24.17v-3.39h.43v.67l-.1-.03c.08-.22.22-.4.41-.53.2-.13.42-.19.68-.19.24,0,.45.05.65.16.19.11.35.26.46.45.11.19.17.41.17.65v2.21h-.43v-2.06c0-.21-.04-.38-.12-.53-.08-.14-.19-.26-.33-.34-.14-.08-.3-.12-.47-.12s-.34.04-.48.13c-.14.08-.25.2-.33.35-.08.15-.11.33-.11.54v2.03h-.43Z"/>
        <path class="cls-1" d="m91.71,24.21c-.29,0-.52-.08-.68-.25-.16-.17-.24-.41-.24-.73v-2.03h-.63v-.42h.2c.14,0,.24-.04.32-.13s.12-.2.12-.33v-.32h.43v.79h.75v.42h-.75v2.03c0,.1.02.2.05.29.03.09.09.16.17.21.08.05.2.08.34.08.03,0,.08,0,.12,0,.05,0,.09,0,.12-.01v.38c-.05.01-.11.02-.17.03-.06,0-.11,0-.14,0Z"/>
        <path class="cls-1" d="m92.91,20.12v-.7h.43v.7h-.43Zm0,4.04v-3.39h.43v3.39h-.43Z"/>
        <path class="cls-1" d="m94.7,24.17v-2.97h-.69v-.42h.69v-.32c0-.24.05-.44.15-.6.1-.16.24-.29.4-.38s.35-.13.55-.13c.05,0,.1,0,.15,0,.05,0,.09.01.13.02v.39s-.07-.01-.12-.02-.09,0-.11,0c-.21,0-.39.06-.52.17s-.2.29-.2.54v.32h1.92v.42h-1.92v2.97h-.43Zm1.98,0v-3.39h.43v3.39h-.43Z"/>
        <path class="cls-1" d="m99.58,24.25c-.33,0-.62-.08-.88-.23-.25-.15-.45-.37-.6-.64s-.22-.57-.22-.91.07-.64.22-.91.34-.48.6-.63c.25-.15.55-.23.88-.23.21,0,.4.04.59.11.18.08.35.17.49.3.14.12.25.27.32.44l-.38.2c-.09-.19-.23-.34-.41-.46-.18-.12-.38-.17-.61-.17s-.45.06-.64.17c-.19.11-.33.27-.44.48s-.16.44-.16.7.05.49.16.69c.11.2.26.36.44.48s.4.17.64.17.43-.06.61-.17c.18-.11.31-.27.41-.46l.38.21c-.07.16-.18.31-.32.44-.14.13-.31.23-.49.31-.19.07-.38.11-.59.11Z"/>
        <path class="cls-1" d="m105.15,24.25c-.33,0-.64-.06-.92-.18-.28-.12-.52-.29-.72-.51-.2-.22-.36-.48-.48-.77-.11-.3-.17-.62-.17-.98s.06-.68.17-.98c.12-.3.27-.56.48-.78.2-.22.45-.39.72-.51.28-.12.58-.18.92-.18s.61.06.86.17c.25.11.47.26.65.44.18.18.3.37.38.56l-.43.19c-.12-.28-.31-.51-.56-.68-.25-.17-.55-.25-.89-.25s-.67.08-.95.25-.5.41-.65.71c-.16.3-.23.65-.23,1.06s.08.75.23,1.05c.15.3.37.54.65.71s.6.25.95.25.64-.08.89-.25c.25-.17.44-.4.56-.68l.43.19c-.08.19-.2.38-.38.56-.18.18-.39.33-.65.44-.25.12-.54.17-.86.17Z"/>
        <path class="cls-1" d="m109.43,24.25c-.32,0-.62-.08-.88-.23-.26-.15-.47-.37-.62-.63-.15-.27-.23-.57-.23-.91s.08-.64.23-.91c.15-.27.36-.48.62-.63.26-.15.55-.23.88-.23s.62.08.88.23c.26.15.46.36.61.63.15.26.23.57.23.91s-.08.65-.23.92-.36.48-.62.63c-.26.15-.55.23-.87.23Zm0-.43c.24,0,.45-.06.64-.18.19-.12.34-.28.45-.48.11-.2.17-.43.17-.69s-.05-.48-.17-.69-.26-.37-.45-.48c-.19-.12-.41-.18-.64-.18s-.45.06-.64.18c-.19.12-.34.28-.46.48-.11.2-.17.43-.17.69s.06.48.17.69c.11.2.26.37.46.48.19.12.41.18.64.18Z"/>
        <path class="cls-1" d="m112.03,24.17v-3.39h.43v.67l-.1-.03c.08-.22.22-.4.41-.53.2-.13.42-.19.68-.19.24,0,.45.05.65.16.19.11.35.26.46.45.11.19.17.41.17.65v2.21h-.43v-2.06c0-.21-.04-.38-.12-.53-.08-.14-.19-.26-.33-.34-.14-.08-.3-.12-.47-.12s-.34.04-.48.13c-.14.08-.25.2-.33.35-.08.15-.11.33-.11.54v2.03h-.43Z"/>
        <path class="cls-1" d="m116.83,24.25c-.32,0-.6-.08-.84-.24-.24-.16-.42-.38-.53-.66l.36-.17c.1.21.24.37.42.49.18.12.37.18.59.18s.39-.05.54-.16c.15-.1.22-.24.22-.41,0-.11-.03-.21-.09-.28-.06-.07-.14-.13-.23-.17-.09-.04-.18-.08-.26-.1l-.51-.15c-.3-.08-.52-.21-.66-.36-.14-.16-.21-.34-.21-.56,0-.19.05-.36.15-.51.1-.15.24-.26.41-.34.17-.08.36-.12.56-.12.28,0,.54.07.78.22s.4.35.49.6l-.38.18c-.08-.19-.21-.34-.37-.45-.16-.11-.34-.16-.53-.16s-.35.05-.47.16-.18.23-.18.39c0,.11.03.19.08.26.06.07.12.12.2.17.08.04.16.07.23.09l.57.17c.28.08.49.2.64.37.15.17.23.37.23.59,0,.18-.05.35-.15.49-.1.15-.24.26-.42.34s-.39.12-.62.12Z"/>
        <path class="cls-1" d="m120.11,24.25c-.23,0-.45-.05-.64-.16s-.35-.26-.46-.46c-.11-.2-.17-.43-.17-.7v-2.15h.43v2.11c0,.19.04.36.12.5.08.14.19.25.32.33.14.08.3.11.47.11s.34-.04.48-.12c.14-.08.25-.2.33-.35.08-.15.11-.33.11-.54v-2.03h.43v3.39h-.43v-.67l.1.03c-.08.22-.21.4-.41.53-.2.13-.43.2-.68.2Z"/>
        <path class="cls-1" d="m122.55,24.17v-4.82h.43v4.82h-.43Z"/>
        <path class="cls-1" d="m125.27,24.21c-.29,0-.52-.08-.68-.25-.16-.17-.24-.41-.24-.73v-2.03h-.63v-.42h.2c.14,0,.24-.04.32-.13s.12-.2.12-.33v-.32h.43v.79h.75v.42h-.75v2.03c0,.1.02.2.05.29.03.09.09.16.17.21.08.05.2.08.34.08.03,0,.08,0,.12,0,.05,0,.09,0,.12-.01v.38c-.05.01-.11.02-.17.03-.06,0-.11,0-.14,0Z"/>
        <path class="cls-1" d="m126.46,20.12v-.7h.43v.7h-.43Zm0,4.04v-3.39h.43v3.39h-.43Z"/>
        <path class="cls-1" d="m127.91,24.17v-3.39h.43v.67l-.1-.03c.08-.22.22-.4.41-.53.2-.13.42-.19.68-.19.24,0,.45.05.65.16.19.11.35.26.46.45.11.19.17.41.17.65v2.21h-.43v-2.06c0-.21-.04-.38-.12-.53-.08-.14-.19-.26-.33-.34-.14-.08-.3-.12-.47-.12s-.34.04-.48.13c-.14.08-.25.2-.33.35-.08.15-.11.33-.11.54v2.03h-.43Z"/>
        <path class="cls-1" d="m133.15,25.57c-.23,0-.44-.04-.63-.11s-.36-.17-.5-.29c-.14-.12-.25-.27-.33-.43l.39-.21c.08.17.21.31.39.43.18.12.41.18.67.18.21,0,.4-.04.58-.12s.32-.2.43-.37c.11-.17.17-.37.17-.61v-.81l.08.08c-.12.25-.3.45-.54.6-.24.14-.5.21-.79.21-.31,0-.6-.08-.85-.23s-.45-.36-.6-.62c-.14-.26-.22-.55-.22-.87s.07-.61.22-.86c.14-.26.34-.46.59-.62.25-.15.54-.23.85-.23.29,0,.55.07.78.2s.41.32.54.55l-.08.13v-.81h.43v3.27c0,.29-.07.55-.21.79-.14.23-.33.41-.57.54-.24.13-.52.2-.83.2Zm-.06-1.88c.23,0,.44-.06.62-.18.18-.12.33-.27.44-.47s.17-.41.17-.64-.06-.45-.17-.64-.26-.35-.44-.47c-.18-.11-.39-.17-.62-.17s-.44.06-.63.17c-.19.12-.33.27-.44.46-.1.19-.16.41-.16.65s.05.45.16.64c.1.2.25.35.43.47.18.12.4.18.63.18Z"/>
        <path class="cls-1" d="m42.93,31.89c-.25,0-.47-.05-.67-.14-.2-.1-.35-.23-.46-.41-.11-.18-.17-.38-.17-.61,0-.2.04-.37.11-.52.07-.15.16-.29.27-.4.11-.12.23-.22.34-.31.12-.09.23-.16.32-.23l.29-.19c.13-.08.26-.17.38-.27s.22-.2.29-.32c.08-.12.11-.26.11-.41,0-.19-.06-.35-.18-.47s-.28-.18-.46-.18-.35.06-.47.19-.18.28-.18.47c0,.12.03.25.09.37s.13.23.23.34c.09.1.18.2.28.3l2.62,2.73h-.62l-2.36-2.42c-.1-.1-.21-.22-.31-.35s-.2-.27-.27-.43c-.07-.16-.11-.33-.11-.52,0-.22.05-.41.15-.57.1-.17.23-.29.4-.39.17-.09.36-.14.56-.14s.38.04.55.14c.17.09.3.22.4.38.1.16.15.35.15.56s-.05.41-.15.57c-.1.17-.23.31-.37.43s-.29.23-.42.32l-.28.18c-.14.09-.27.19-.4.3-.13.11-.24.23-.33.36-.09.13-.13.29-.13.48,0,.23.08.42.23.55.15.13.35.2.6.2.16,0,.3-.03.43-.08.12-.05.24-.13.33-.22.1-.09.18-.19.26-.3.08-.11.15-.22.22-.32l.73-1.09h.53l-.85,1.29c-.07.11-.15.22-.25.35-.1.13-.21.25-.34.37-.13.12-.29.22-.46.3-.18.08-.38.12-.61.12Z"/>
        <path class="cls-1" d="m47.57,31.81v-4.75h.4l1.78,2.61h-.21l1.78-2.61h.4v4.75h-.46v-4.1l.13.06-1.73,2.55h-.02l-1.73-2.55.13-.06v4.1h-.46Z"/>
        <path class="cls-1" d="m54.35,31.89c-.32,0-.61-.08-.86-.23-.26-.15-.46-.37-.61-.64s-.22-.57-.22-.91.07-.64.22-.91c.14-.27.34-.47.59-.63.25-.15.52-.23.83-.23.24,0,.45.04.64.13s.36.21.49.36c.14.15.24.33.31.52s.11.39.11.6c0,.04,0,.09,0,.14s0,.1-.02.16h-2.92v-.39h2.67l-.2.16c.03-.24,0-.45-.1-.65s-.23-.35-.4-.46c-.17-.11-.37-.17-.59-.17s-.42.06-.61.17c-.19.12-.33.28-.44.48-.11.2-.15.44-.13.72-.02.27.03.51.14.72s.27.37.46.48c.19.12.41.17.64.17.25,0,.46-.06.63-.17.18-.12.32-.27.43-.46l.36.19c-.07.16-.18.3-.32.43-.14.13-.3.23-.49.3-.19.07-.39.11-.62.11Z"/>
        <path class="cls-1" d="m58,31.85c-.29,0-.52-.08-.68-.25-.16-.17-.24-.41-.24-.73v-2.03h-.63v-.42h.2c.14,0,.24-.04.32-.13s.11-.2.11-.33v-.32h.43v.79h.75v.42h-.75v2.03c0,.1.02.2.05.29.03.09.09.16.17.21.08.05.2.08.34.08.03,0,.07,0,.12,0,.05,0,.09,0,.12-.01v.38c-.05.01-.11.02-.17.03-.06,0-.11,0-.14,0Z"/>
        <path class="cls-1" d="m60.08,31.89c-.21,0-.4-.04-.57-.12-.17-.08-.3-.19-.4-.34-.1-.14-.15-.31-.15-.5,0-.17.04-.33.11-.48s.19-.27.35-.37c.16-.1.37-.18.62-.22l1.35-.22v.39l-1.24.21c-.27.05-.46.13-.57.25-.12.12-.17.26-.17.42,0,.17.06.31.19.42.13.11.3.17.5.17.24,0,.45-.05.63-.16.18-.11.31-.25.41-.43.1-.18.15-.38.15-.59v-.85c0-.22-.08-.39-.23-.53-.15-.13-.35-.2-.6-.2-.21,0-.4.05-.56.16-.16.1-.29.24-.37.41l-.39-.21c.06-.14.16-.27.3-.39.13-.12.29-.21.46-.28.18-.07.36-.1.56-.1.25,0,.46.05.66.14.19.1.34.23.45.4.11.17.16.37.16.59v2.34h-.43v-.69l.06.05c-.06.13-.15.25-.28.36-.13.11-.27.2-.45.26-.17.07-.36.1-.56.1Z"/>
        <path class="cls-1" d="m62.72,30.32v-.41h2.18v.41h-2.18Z"/>
        <path class="cls-1" d="m65.95,31.81v-4.75h1.61c.31,0,.57.06.81.18.23.12.41.29.54.51s.19.47.19.76c0,.34-.09.62-.27.86-.18.24-.42.41-.73.5l1.12,1.94h-.54l-1.17-2.06.34.2h-1.44v1.87h-.46Zm.46-2.29h1.17c.21,0,.4-.04.55-.12.16-.08.28-.2.37-.35.09-.15.13-.33.13-.54s-.04-.39-.13-.54c-.09-.15-.21-.27-.37-.35s-.35-.12-.56-.12h-1.17v2.03Z"/>
        <path class="cls-1" d="m71.31,31.89c-.32,0-.61-.08-.86-.23-.26-.15-.46-.37-.61-.64-.15-.27-.22-.57-.22-.91s.07-.64.22-.91c.14-.27.34-.47.59-.63.25-.15.52-.23.83-.23.24,0,.45.04.64.13.19.09.36.21.49.36.14.15.24.33.32.52s.11.39.11.6c0,.04,0,.09,0,.14s0,.1-.02.16h-2.92v-.39h2.67l-.2.16c.03-.24,0-.45-.1-.65s-.23-.35-.4-.46c-.17-.11-.37-.17-.59-.17s-.42.06-.61.17c-.19.12-.33.28-.44.48-.11.2-.15.44-.13.72-.02.27.03.51.14.72s.27.37.46.48c.19.12.41.17.64.17.25,0,.46-.06.63-.17.18-.12.32-.27.43-.46l.36.19c-.07.16-.18.3-.32.43-.14.13-.3.23-.49.3s-.39.11-.62.11Z"/>
        <path class="cls-1" d="m74.85,31.89c-.32,0-.6-.08-.84-.24-.24-.16-.42-.38-.53-.66l.36-.17c.1.21.24.37.42.49.18.12.37.18.59.18s.39-.05.54-.16c.15-.1.22-.24.22-.41,0-.11-.03-.21-.09-.28-.06-.07-.14-.13-.23-.17-.09-.04-.18-.08-.26-.1l-.51-.15c-.3-.08-.52-.21-.66-.36-.14-.16-.21-.34-.21-.56,0-.19.05-.36.15-.51.1-.15.24-.26.41-.34.17-.08.36-.12.56-.12.28,0,.54.07.78.22s.4.35.49.6l-.38.18c-.08-.19-.21-.34-.37-.45-.16-.11-.34-.16-.53-.16s-.35.05-.47.16-.18.23-.18.39c0,.11.03.19.08.26.06.07.12.12.2.17.08.04.16.07.23.09l.57.17c.28.08.49.2.64.37.15.17.23.37.23.59,0,.18-.05.35-.15.49-.1.15-.24.26-.42.34s-.39.12-.62.12Z"/>
        <path class="cls-1" d="m78.48,31.89c-.32,0-.61-.08-.86-.23-.26-.15-.46-.37-.61-.64-.15-.27-.22-.57-.22-.91s.07-.64.22-.91c.14-.27.34-.47.59-.63.25-.15.52-.23.83-.23.24,0,.45.04.64.13.19.09.36.21.49.36.14.15.24.33.32.52s.11.39.11.6c0,.04,0,.09,0,.14s0,.1-.02.16h-2.92v-.39h2.67l-.2.16c.03-.24,0-.45-.1-.65s-.23-.35-.4-.46c-.17-.11-.37-.17-.59-.17s-.42.06-.61.17c-.19.12-.33.28-.44.48-.11.2-.15.44-.13.72-.02.27.03.51.14.72s.27.37.46.48c.19.12.41.17.64.17.25,0,.46-.06.63-.17.18-.12.32-.27.43-.46l.36.19c-.07.16-.18.3-.32.43-.14.13-.3.23-.49.3s-.39.11-.62.11Z"/>
        <path class="cls-1" d="m80.87,31.81v-3.39h.43v.59l-.06-.07c.08-.17.2-.31.37-.41.17-.1.37-.15.61-.15h.22v.43h-.28c-.26,0-.47.08-.62.25-.15.17-.23.39-.23.68v2.08h-.43Z"/>
        <path class="cls-1" d="m84,31.89c-.21,0-.4-.04-.57-.12-.17-.08-.3-.19-.4-.34s-.15-.31-.15-.5c0-.17.04-.33.11-.48s.19-.27.35-.37c.16-.1.37-.18.62-.22l1.35-.22v.39l-1.24.21c-.27.05-.46.13-.57.25-.11.12-.17.26-.17.42,0,.17.07.31.19.42.13.11.3.17.5.17.24,0,.45-.05.63-.16.18-.11.31-.25.41-.43.1-.18.15-.38.15-.59v-.85c0-.22-.08-.39-.23-.53-.15-.13-.35-.2-.6-.2-.21,0-.4.05-.56.16-.16.1-.29.24-.37.41l-.39-.21c.06-.14.16-.27.3-.39.13-.12.29-.21.46-.28.18-.07.36-.1.56-.1.25,0,.46.05.66.14.19.1.34.23.45.4s.16.37.16.59v2.34h-.43v-.69l.06.05c-.06.13-.15.25-.28.36-.13.11-.27.2-.45.26-.17.07-.36.1-.56.1Z"/>
        <path class="cls-1" d="m88.23,31.89c-.33,0-.62-.08-.88-.23-.25-.15-.45-.37-.6-.64s-.22-.57-.22-.91.07-.64.22-.91.34-.48.6-.63c.25-.15.55-.23.88-.23.21,0,.4.04.59.11.18.08.35.17.49.3.14.12.25.27.32.44l-.38.2c-.09-.19-.23-.34-.41-.46-.18-.12-.38-.17-.61-.17s-.45.06-.64.17c-.19.11-.33.27-.44.48s-.16.44-.16.7.05.49.16.69c.11.2.26.36.44.48s.4.17.64.17.43-.06.61-.17c.18-.11.31-.27.41-.46l.38.21c-.07.16-.18.31-.32.44-.14.13-.31.23-.49.31-.19.07-.38.11-.59.11Z"/>
        <path class="cls-1" d="m90.51,31.81v-4.82h.43v2.09l-.1-.03c.08-.22.22-.4.41-.53.2-.13.42-.19.68-.19.24,0,.45.05.65.16.19.11.35.26.46.45.11.19.17.41.17.65v2.21h-.43v-2.06c0-.21-.04-.38-.12-.53-.08-.14-.19-.26-.33-.34-.14-.08-.3-.12-.47-.12s-.34.04-.48.13c-.14.08-.25.2-.33.35-.08.15-.12.33-.12.54v2.03h-.43Z"/>
        <path class="cls-1" d="m95.22,27.77v-.7h.43v.7h-.43Zm0,4.04v-3.39h.43v3.39h-.43Z"/>
        <path class="cls-1" d="m96.66,31.81v-3.39h.43v.67l-.1-.03c.08-.22.22-.4.41-.53.2-.13.42-.19.68-.19.24,0,.45.05.65.16.19.11.35.26.46.45.11.19.17.41.17.65v2.21h-.43v-2.06c0-.21-.04-.38-.12-.53-.08-.14-.19-.26-.33-.34-.14-.08-.3-.12-.47-.12s-.34.04-.48.13c-.14.08-.25.2-.33.35-.08.15-.11.33-.11.54v2.03h-.43Z"/>
        <path class="cls-1" d="m101.44,31.81v-4.75h1.97c.26,0,.49.05.69.15.2.1.35.24.46.42.11.18.16.38.16.62,0,.25-.06.46-.19.66-.12.19-.3.33-.53.42v-.13c.18.06.34.16.48.28s.24.26.32.43c.07.17.11.34.11.53,0,.42-.13.75-.4,1-.27.25-.63.37-1.1.37h-1.97Zm.46-2.71h1.48c.27,0,.48-.08.64-.23.16-.15.24-.35.24-.6s-.08-.44-.24-.57c-.16-.14-.37-.2-.64-.2h-1.48v1.6Zm0,2.29h1.5c.32,0,.58-.08.76-.25.19-.17.28-.4.28-.68s-.09-.51-.28-.68-.44-.25-.75-.25h-1.52v1.87Z"/>
        <path class="cls-1" d="m105.79,27.77v-.7h.43v.7h-.43Zm0,4.04v-3.39h.43v3.39h-.43Z"/>
        <path class="cls-1" d="m108.82,31.89c-.32,0-.62-.08-.88-.23-.26-.15-.47-.37-.62-.63-.15-.27-.23-.57-.23-.91s.08-.64.23-.91c.15-.27.36-.48.62-.63.26-.15.55-.23.88-.23s.62.08.88.23c.26.15.46.36.61.63.15.26.23.57.23.91s-.08.65-.23.92-.36.48-.62.63c-.26.15-.55.23-.87.23Zm0-.43c.24,0,.45-.06.64-.18.19-.12.34-.28.45-.48.11-.2.17-.43.17-.69s-.05-.48-.17-.69-.26-.37-.45-.48c-.19-.12-.41-.18-.64-.18s-.45.06-.64.18c-.19.12-.34.28-.46.48-.11.2-.17.43-.17.69s.06.48.17.69c.11.2.26.37.46.48.19.12.41.18.64.18Z"/>
        <path class="cls-1" d="m111.42,31.81v-3.39h.43v.66l-.07-.1c.09-.2.23-.36.41-.47.19-.11.39-.17.62-.17.26,0,.5.07.72.22.21.15.37.35.46.59h-.13c.08-.26.22-.46.43-.6.21-.14.45-.21.71-.21.23,0,.44.05.63.16.19.11.34.26.46.45.12.19.18.41.18.65v2.21h-.43v-2.06c0-.21-.04-.38-.11-.53-.08-.14-.18-.26-.32-.34-.13-.08-.28-.12-.45-.12s-.33.04-.46.13-.24.2-.32.35c-.08.15-.12.33-.12.54v2.03h-.43v-2.06c0-.21-.04-.38-.12-.53-.08-.14-.18-.26-.32-.34-.13-.08-.28-.12-.45-.12s-.33.04-.46.13-.24.2-.32.35c-.08.15-.11.33-.11.54v2.03h-.43Z"/>
        <path class="cls-1" d="m118.76,31.89c-.32,0-.61-.08-.86-.23-.26-.15-.46-.37-.61-.64-.15-.27-.22-.57-.22-.91s.07-.64.22-.91c.14-.27.34-.47.59-.63.25-.15.52-.23.83-.23.24,0,.45.04.64.13.19.09.36.21.49.36.14.15.24.33.32.52s.11.39.11.6c0,.04,0,.09,0,.14s0,.1-.02.16h-2.92v-.39h2.67l-.2.16c.03-.24,0-.45-.1-.65s-.23-.35-.4-.46c-.17-.11-.37-.17-.59-.17s-.42.06-.61.17c-.19.12-.33.28-.44.48-.11.2-.15.44-.13.72-.02.27.03.51.14.72s.27.37.46.48c.19.12.41.17.64.17.25,0,.46-.06.63-.17.18-.12.32-.27.43-.46l.36.19c-.07.16-.18.3-.32.43-.14.13-.3.23-.49.3s-.39.11-.62.11Z"/>
        <path class="cls-1" d="m122.68,31.89c-.32,0-.6-.08-.86-.23-.25-.15-.45-.37-.6-.63s-.22-.57-.22-.91.07-.64.22-.91.35-.48.6-.63c.25-.15.54-.23.86-.23.3,0,.56.07.8.2.24.14.42.32.55.55l-.07.13v-2.24h.43v4.82h-.43v-.81l.07.08c-.12.25-.3.45-.54.6-.24.14-.51.21-.81.21Zm.02-.43c.23,0,.45-.06.64-.18.19-.12.34-.28.45-.48.11-.2.17-.43.17-.69s-.05-.48-.17-.69c-.11-.2-.26-.36-.45-.48-.19-.12-.4-.18-.64-.18s-.45.06-.64.18c-.19.12-.33.28-.44.48-.11.2-.16.43-.16.69s.05.48.16.69.25.37.44.48c.19.12.4.18.64.18Z"/>
        <path class="cls-1" d="m125.41,27.77v-.7h.43v.7h-.43Zm0,4.04v-3.39h.43v3.39h-.43Z"/>
        <path class="cls-1" d="m128.41,31.89c-.33,0-.62-.08-.88-.23-.25-.15-.45-.37-.6-.64s-.22-.57-.22-.91.07-.64.22-.91.34-.48.6-.63c.25-.15.55-.23.88-.23.21,0,.4.04.59.11.18.08.35.17.49.3.14.12.25.27.32.44l-.38.2c-.09-.19-.23-.34-.41-.46-.18-.12-.38-.17-.61-.17s-.45.06-.64.17c-.19.11-.33.27-.44.48s-.16.44-.16.7.05.49.16.69c.11.2.26.36.44.48s.4.17.64.17.43-.06.61-.17c.18-.11.31-.27.41-.46l.38.21c-.07.16-.18.31-.32.44-.14.13-.31.23-.49.31-.19.07-.38.11-.59.11Z"/>
        <path class="cls-1" d="m131.6,31.89c-.21,0-.4-.04-.57-.12-.17-.08-.3-.19-.4-.34s-.15-.31-.15-.5c0-.17.04-.33.11-.48s.19-.27.35-.37c.16-.1.37-.18.62-.22l1.35-.22v.39l-1.24.21c-.27.05-.46.13-.57.25-.11.12-.17.26-.17.42,0,.17.07.31.19.42.13.11.3.17.5.17.24,0,.45-.05.63-.16.18-.11.31-.25.41-.43.1-.18.15-.38.15-.59v-.85c0-.22-.08-.39-.23-.53-.15-.13-.35-.2-.6-.2-.21,0-.4.05-.56.16-.16.1-.29.24-.37.41l-.39-.21c.06-.14.16-.27.3-.39.13-.12.29-.21.46-.28.18-.07.36-.1.56-.1.25,0,.46.05.66.14.19.1.34.23.45.4s.16.37.16.59v2.34h-.43v-.69l.06.05c-.06.13-.15.25-.28.36-.13.11-.27.2-.45.26-.17.07-.36.1-.56.1Z"/>
        <path class="cls-1" d="m134.27,31.81v-4.82h.43v4.82h-.43Z"/>
        <path class="cls-1" d="m43.42,39.53c-.3,0-.57-.06-.82-.17-.24-.11-.45-.27-.61-.46-.17-.19-.28-.4-.35-.62l.41-.15c.11.32.29.57.52.74s.51.25.84.25c.21,0,.39-.03.55-.1s.29-.17.38-.29.13-.27.13-.44c0-.24-.07-.43-.2-.56-.13-.13-.32-.23-.54-.3l-.86-.25c-.34-.1-.6-.26-.78-.49-.17-.23-.26-.49-.26-.78,0-.25.06-.47.18-.66.12-.19.29-.34.5-.45.21-.11.45-.16.72-.16s.53.05.75.16c.22.1.41.24.56.41.15.17.26.36.33.56l-.41.15c-.1-.29-.26-.5-.48-.65-.22-.15-.47-.22-.75-.22-.19,0-.35.03-.49.1-.14.07-.25.16-.33.29-.08.12-.12.28-.12.45,0,.2.06.38.18.54s.32.27.59.35l.76.23c.36.11.63.26.82.47s.28.47.28.78c0,.25-.06.48-.19.67-.13.19-.31.34-.53.45-.23.11-.49.16-.79.16Z"/>
        <path class="cls-1" d="m47.44,39.53c-.33,0-.62-.08-.88-.23-.25-.15-.45-.37-.6-.64s-.22-.57-.22-.91.07-.64.22-.91.34-.48.6-.63c.25-.15.55-.23.88-.23.21,0,.4.04.59.11.18.08.35.17.49.3s.25.27.32.44l-.38.2c-.09-.19-.23-.34-.41-.46-.18-.12-.38-.17-.61-.17s-.45.06-.64.17c-.19.11-.33.27-.44.48s-.16.44-.16.7.05.49.16.69c.11.2.26.36.44.48.19.12.4.17.64.17s.43-.06.61-.17c.18-.11.31-.27.41-.46l.38.21c-.07.16-.18.31-.32.44s-.31.23-.49.31-.38.11-.59.11Z"/>
        <path class="cls-1" d="m49.72,35.41v-.7h.43v.7h-.43Zm0,4.04v-3.39h.43v3.39h-.43Z"/>
        <path class="cls-1" d="m52.72,39.53c-.32,0-.61-.08-.86-.23-.26-.15-.46-.37-.61-.64s-.22-.57-.22-.91.07-.64.22-.91c.14-.27.34-.47.59-.63.25-.15.52-.23.83-.23.24,0,.45.04.64.13.19.09.36.21.49.36.14.15.24.33.32.52s.11.39.11.6c0,.04,0,.09,0,.14,0,.05,0,.1-.02.16h-2.92v-.39h2.67l-.2.16c.03-.24,0-.45-.1-.65-.1-.19-.23-.35-.41-.46-.17-.11-.37-.17-.59-.17s-.42.06-.61.17c-.19.12-.33.28-.44.48-.11.2-.15.44-.13.72-.02.27.03.51.14.72.11.21.27.37.46.48.19.12.41.17.64.17.25,0,.46-.06.63-.17.18-.12.32-.27.43-.46l.36.19c-.07.16-.18.3-.32.43-.14.13-.3.23-.49.3s-.39.11-.62.11Z"/>
        <path class="cls-1" d="m55.1,39.46v-3.39h.43v.67l-.1-.03c.08-.22.22-.4.41-.53.2-.13.42-.19.68-.19.24,0,.45.05.65.16.19.11.35.26.46.45.11.19.17.41.17.65v2.21h-.43v-2.06c0-.21-.04-.38-.12-.53-.08-.14-.19-.26-.33-.34-.14-.08-.3-.12-.47-.12s-.34.04-.48.13c-.14.08-.25.2-.33.35-.08.15-.11.33-.11.54v2.03h-.43Z"/>
        <path class="cls-1" d="m60.3,39.53c-.33,0-.62-.08-.88-.23-.25-.15-.45-.37-.6-.64s-.22-.57-.22-.91.07-.64.22-.91.34-.48.6-.63c.25-.15.55-.23.88-.23.21,0,.4.04.59.11.18.08.35.17.49.3.14.12.25.27.32.44l-.38.2c-.09-.19-.23-.34-.41-.46-.18-.12-.38-.17-.61-.17s-.45.06-.64.17c-.19.11-.33.27-.44.48-.11.2-.16.44-.16.7s.05.49.16.69c.11.2.26.36.44.48.19.12.4.17.64.17s.43-.06.61-.17c.18-.11.31-.27.41-.46l.38.21c-.07.16-.18.31-.32.44-.14.13-.31.23-.49.31s-.38.11-.59.11Z"/>
        <path class="cls-1" d="m64.13,39.53c-.32,0-.61-.08-.86-.23-.26-.15-.46-.37-.61-.64s-.22-.57-.22-.91.07-.64.22-.91c.14-.27.34-.47.59-.63.25-.15.52-.23.83-.23.24,0,.45.04.64.13.19.09.36.21.49.36.14.15.24.33.32.52s.11.39.11.6c0,.04,0,.09,0,.14,0,.05,0,.1-.02.16h-2.92v-.39h2.67l-.2.16c.03-.24,0-.45-.1-.65-.1-.19-.23-.35-.41-.46-.17-.11-.37-.17-.59-.17s-.42.06-.61.17c-.19.12-.33.28-.44.48-.11.2-.15.44-.13.72-.02.27.03.51.14.72.11.21.27.37.46.48.19.12.41.17.64.17.25,0,.46-.06.63-.17.18-.12.32-.27.43-.46l.36.19c-.07.16-.18.3-.32.43-.14.13-.3.23-.49.3s-.39.11-.62.11Z"/>
        <path class="cls-1" d="m67.68,39.53c-.32,0-.6-.08-.84-.24-.24-.16-.42-.38-.53-.66l.36-.17c.1.21.24.37.42.49.18.12.37.18.59.18s.39-.05.54-.16c.15-.1.22-.24.22-.41,0-.11-.03-.21-.09-.28-.06-.07-.14-.13-.23-.17-.09-.04-.18-.08-.26-.1l-.51-.15c-.3-.08-.52-.21-.66-.36-.14-.16-.21-.34-.21-.56,0-.19.05-.36.15-.51s.23-.26.4-.34.36-.12.56-.12c.29,0,.54.07.78.22s.4.35.49.6l-.38.18c-.08-.19-.21-.34-.37-.45-.16-.11-.34-.16-.54-.16s-.35.05-.47.16-.18.23-.18.39c0,.11.03.19.08.26.06.07.12.12.2.17.08.04.16.07.23.09l.57.17c.28.08.49.2.64.37.15.17.23.37.23.59,0,.18-.05.35-.15.49-.1.15-.24.26-.42.34-.18.08-.39.12-.62.12Z"/>
      </g>
      <g>
        <path class="cls-1" d="m48.56,14.15c-.92,0-1.78-.17-2.58-.5s-1.48-.8-2.07-1.4c-.59-.6-1.05-1.31-1.38-2.12-.33-.81-.49-1.69-.49-2.65s.16-1.85.49-2.66c.32-.81.78-1.52,1.37-2.12.59-.6,1.28-1.06,2.07-1.39.79-.33,1.66-.49,2.59-.49s1.78.16,2.52.47c.75.31,1.38.73,1.9,1.25s.89,1.1,1.11,1.73l-2.38,1.14c-.22-.62-.6-1.14-1.15-1.55-.55-.41-1.22-.62-2-.62s-1.43.18-2.01.54-1.03.85-1.34,1.48c-.32.63-.48,1.37-.48,2.21s.16,1.58.48,2.22c.32.64.77,1.13,1.34,1.49s1.25.54,2.01.54,1.45-.21,2-.62c.55-.41.93-.93,1.15-1.55l2.38,1.14c-.22.64-.59,1.21-1.11,1.73-.52.52-1.15.94-1.9,1.25-.75.31-1.59.47-2.52.47Z"/>
        <path class="cls-1" d="m55.8,13.94V1.02h8.69v2.34h-6v2.93h5.65v2.34h-5.65v2.96h6v2.34h-8.69Z"/>
        <path class="cls-1" d="m72.15,14.15c-.92,0-1.78-.17-2.58-.5s-1.48-.8-2.07-1.4c-.59-.6-1.05-1.31-1.38-2.12-.33-.81-.49-1.69-.49-2.65s.16-1.85.49-2.66c.32-.81.78-1.52,1.37-2.12.59-.6,1.28-1.06,2.07-1.39.79-.33,1.66-.49,2.59-.49s1.78.16,2.52.47c.75.31,1.38.73,1.9,1.25.52.52.89,1.1,1.11,1.73l-2.38,1.14c-.22-.62-.6-1.14-1.15-1.55-.55-.41-1.22-.62-2-.62s-1.43.18-2.01.54c-.58.36-1.03.85-1.34,1.48-.32.63-.48,1.37-.48,2.21s.16,1.58.48,2.22c.32.64.77,1.13,1.34,1.49.58.36,1.25.54,2.01.54s1.45-.21,2-.62c.55-.41.93-.93,1.15-1.55l2.38,1.14c-.22.64-.59,1.21-1.11,1.73s-1.15.94-1.9,1.25c-.75.31-1.59.47-2.52.47Z"/>
        <path class="cls-1" d="m79.4,13.94V1.02h2.69v12.92h-2.69Z"/>
        <path class="cls-1" d="m84.38,13.94V1.02h2.6l4.84,6.42h-1.21l4.7-6.42h2.6v12.92h-2.69V3.99l1.07.24-4.98,6.42h-.35l-4.8-6.42.9-.24v9.95h-2.69Z"/>
        <path class="cls-1" d="m100.19,13.94V1.02h2.69v12.92h-2.69Z"/>
        <path class="cls-1" d="m105.17,13.94V1.02h5.46c.89,0,1.65.15,2.29.45.64.3,1.12.73,1.46,1.29.33.56.5,1.24.5,2.04,0,.57-.16,1.11-.47,1.62-.31.51-.83.95-1.54,1.29v-1.32c.68.27,1.21.58,1.58.95.37.37.62.77.76,1.21s.21.89.21,1.36c0,1.27-.42,2.26-1.27,2.96s-2.02,1.06-3.52,1.06h-5.46Zm2.69-8.06h2.96c.42,0,.75-.12,1-.36.25-.24.37-.55.37-.95s-.12-.71-.37-.94c-.25-.24-.58-.36-1-.36h-2.96v2.6Zm0,5.72h3.09c.54,0,.98-.16,1.3-.47.32-.31.49-.72.49-1.21s-.16-.92-.49-1.23c-.32-.31-.76-.47-1.3-.47h-3.09v3.38Z"/>
      </g>
      <g>
        <path class="cls-2" d="m9.17,25.33c-5.9,7.76-7.97,15.02-7.97,15.02h34.4v-2.96s-13.46-2.73-26.43-12.05Z"/>
        <path class="cls-2" d="m8.14,12.78c-1.39,1.54-2.79,3.25-4.19,5.15-1.33-1.2-2.65-2.48-3.94-3.85V4.83c2.54,3.16,5.3,5.78,8.14,7.95Z"/>
        <path class="cls-2" d="m25.07,0s-7.26,2.57-15.67,11.41C6.17,8.97,2.96,5.93,0,2.15V0h25.07Z"/>
        <path class="cls-2" d="m35.6,0v5.46s-10.06,1.7-20.11,9.88c-1.39-.77-2.79-1.62-4.19-2.58C16.27,7.83,23.2,2.96,32.61,0h2.99Z"/>
        <path class="cls-2" d="m2.54,19.89c-.85,1.23-1.7,2.54-2.54,3.92v-6.47c.83.89,1.67,1.73,2.54,2.55Z"/>
        <path class="cls-2" d="m35.6,8.15v13.22s-8.12-.16-17.79-4.84c4.66-3.65,10.52-6.74,17.79-8.39Z"/>
        <path class="cls-2" d="m13.96,16.63c-1.75,1.53-3.5,3.29-5.17,5.28-1.05-.78-2.11-1.63-3.16-2.51,1.2-1.69,2.64-3.48,4.34-5.28,1.33.93,2.67,1.76,3.99,2.51Z"/>
        <path class="cls-2" d="m35.6,23.34v11.26s-12.06-2.32-24.83-11.25c1.57-1.87,3.39-3.74,5.46-5.51,10.27,5.15,19.38,5.5,19.38,5.5Z"/>
        <path class="cls-2" d="m7.21,23.88c-2.73,3.6-5.23,7.9-7.21,12.99v-7.24s1.17-3.5,4.24-8.2c.98.86,1.98,1.67,2.97,2.45Z"/>
      </g>
    </g>
  </g>
</svg>