<?xml version="1.0" encoding="UTF-8" standalone="no"?>
<!-- Created with Inkscape (http://www.inkscape.org/) -->

<svg
   width="208.20494mm"
   height="60.310303mm"
   viewBox="0 0 208.20494 60.310303"
   version="1.1"
   id="svg1"
   inkscape:version="1.4.1-rc (06eac75fbf, 2025-03-29)"
   sodipodi:docname="logo_color.svg"
   xmlns:inkscape="http://www.inkscape.org/namespaces/inkscape"
   xmlns:sodipodi="http://sodipodi.sourceforge.net/DTD/sodipodi-0.dtd"
   xmlns="http://www.w3.org/2000/svg"
   xmlns:svg="http://www.w3.org/2000/svg">
  <sodipodi:namedview
     id="namedview1"
     pagecolor="#505050"
     bordercolor="#eeeeee"
     borderopacity="1"
     inkscape:showpageshadow="0"
     inkscape:pageopacity="0"
     inkscape:pagecheckerboard="0"
     inkscape:deskcolor="#505050"
     inkscape:document-units="mm"
     inkscape:zoom="1.3816253"
     inkscape:cx="360.44505"
     inkscape:cy="253.68673"
     inkscape:window-width="1920"
     inkscape:window-height="1011"
     inkscape:window-x="0"
     inkscape:window-y="0"
     inkscape:window-maximized="1"
     inkscape:current-layer="layer1" />
  <defs
     id="defs1">
    <clipPath
       clipPathUnits="userSpaceOnUse"
       id="clipPath21">
      <path
         d="M 0,841.89 H 595.276 V 0 H 0 Z"
         transform="translate(-334.66701,-214.38211)"
         id="path21" />
    </clipPath>
    <clipPath
       clipPathUnits="userSpaceOnUse"
       id="clipPath23">
      <path
         d="M 0,841.89 H 595.276 V 0 H 0 Z"
         transform="translate(-333.63271,-226.9327)"
         id="path23" />
    </clipPath>
    <clipPath
       clipPathUnits="userSpaceOnUse"
       id="clipPath25">
      <path
         d="M 0,841.89 H 595.276 V 0 H 0 Z"
         transform="translate(-350.56991,-239.71411)"
         id="path25" />
    </clipPath>
    <clipPath
       clipPathUnits="userSpaceOnUse"
       id="clipPath27">
      <path
         d="M 0,841.89 H 595.276 V 0 H 0 Z"
         transform="translate(-361.09801,-239.71411)"
         id="path27" />
    </clipPath>
    <clipPath
       clipPathUnits="userSpaceOnUse"
       id="clipPath29">
      <path
         d="M 0,841.89 H 595.276 V 0 H 0 Z"
         transform="translate(-328.03621,-219.82171)"
         id="path29" />
    </clipPath>
    <clipPath
       clipPathUnits="userSpaceOnUse"
       id="clipPath31">
      <path
         d="M 0,841.89 H 595.276 V 0 H 0 Z"
         transform="translate(-361.09801,-231.56871)"
         id="path31" />
    </clipPath>
    <clipPath
       clipPathUnits="userSpaceOnUse"
       id="clipPath33">
      <path
         d="M 0,841.89 H 595.276 V 0 H 0 Z"
         transform="translate(-339.46001,-223.0816)"
         id="path33" />
    </clipPath>
    <clipPath
       clipPathUnits="userSpaceOnUse"
       id="clipPath35">
      <path
         d="M 0,841.89 H 595.276 V 0 H 0 Z"
         transform="translate(-361.09801,-216.37701)"
         id="path35" />
    </clipPath>
    <clipPath
       clipPathUnits="userSpaceOnUse"
       id="clipPath37">
      <path
         d="M 0,841.89 H 595.276 V 0 H 0 Z"
         transform="translate(-332.70911,-215.8321)"
         id="path37" />
    </clipPath>
  </defs>
  <g
     inkscape:label="Layer 1"
     inkscape:groupmode="layer"
     id="layer1"
     transform="translate(-1.7950528)">
    <g
       id="g1"
       transform="matrix(4.0218333,0,0,4.0218333,-185.30783,-394.3169)">
      <path
         id="path18"
         d="m 63.14894,106.97981 c -0.118855,0 -0.227376,-0.0207 -0.326595,-0.062 -0.09715,-0.0434 -0.180867,-0.10439 -0.252181,-0.1819 -0.07235,-0.0796 -0.128157,-0.17157 -0.169498,-0.27699 -0.03927,-0.10438 -0.05788,-0.2191 -0.05788,-0.34313 0,-0.12609 0.0186,-0.24184 0.05788,-0.34726 0.04134,-0.10439 0.09715,-0.19534 0.169498,-0.27285 0.07131,-0.0796 0.15503,-0.14056 0.252181,-0.18191 0.09922,-0.0434 0.20774,-0.0661 0.326595,-0.0661 0.112655,0 0.212907,0.0207 0.301791,0.062 0.09095,0.0413 0.167431,0.094 0.23151,0.1571 0.06305,0.0641 0.107487,0.13022 0.132292,0.19843 l -0.152962,0.0661 c -0.04134,-0.0992 -0.107487,-0.1788 -0.198438,-0.23978 -0.08888,-0.0599 -0.19327,-0.0909 -0.314193,-0.0909 -0.124023,0 -0.235644,0.031 -0.334863,0.0909 -0.09922,0.061 -0.176733,0.1447 -0.23151,0.25218 -0.05271,0.10542 -0.07855,0.22945 -0.07855,0.37207 0,0.14056 0.02584,0.26459 0.07855,0.37207 0.05478,0.10749 0.132291,0.19224 0.23151,0.25218 0.09922,0.0579 0.21084,0.0868 0.334863,0.0868 0.120923,0 0.22531,-0.03 0.314193,-0.0909 0.09095,-0.0599 0.157096,-0.14056 0.198438,-0.23978 l 0.152962,0.0661 c -0.02481,0.0692 -0.06925,0.13539 -0.132292,0.19843 -0.06408,0.0641 -0.14056,0.11576 -0.23151,0.1571 -0.08888,0.0413 -0.189136,0.062 -0.301791,0.062 z m 1.501717,0 c -0.113688,0 -0.214973,-0.0279 -0.305924,-0.0827 -0.08888,-0.0548 -0.159163,-0.12919 -0.21084,-0.22324 -0.05271,-0.0961 -0.07855,-0.20464 -0.07855,-0.3266 0,-0.11782 0.0248,-0.22427 0.07441,-0.31832 0.05168,-0.093 0.120923,-0.1664 0.206706,-0.21911 0.08785,-0.0548 0.186035,-0.0827 0.293522,-0.0827 0.08475,0 0.16123,0.0155 0.227376,0.0455 0.06821,0.031 0.126091,0.0734 0.173633,0.12816 0.04961,0.0527 0.08682,0.11369 0.111621,0.1819 0.02687,0.0661 0.04134,0.13643 0.04134,0.21084 0,0.0165 -0.0021,0.0331 -0.0041,0.0496 0,0.0165 -0.0021,0.0351 -0.0041,0.0537 h -1.029395 v -0.14056 h 0.942579 l -0.07028,0.0579 c 0.01034,-0.0827 -0.0021,-0.15813 -0.03721,-0.22738 -0.03307,-0.0682 -0.08062,-0.12195 -0.14056,-0.16123 -0.06098,-0.0413 -0.131258,-0.062 -0.21084,-0.062 -0.07752,0 -0.148828,0.0207 -0.214974,0.062 -0.06615,0.0413 -0.118856,0.0982 -0.157096,0.1695 -0.03617,0.0724 -0.05168,0.1571 -0.04548,0.25632 -0.0062,0.0972 0.01034,0.1819 0.04961,0.25631 0.04134,0.0724 0.09508,0.12816 0.16123,0.1695 0.06821,0.0393 0.144694,0.0579 0.227376,0.0579 0.08785,0 0.162264,-0.0207 0.223243,-0.062 0.06304,-0.0413 0.113688,-0.0951 0.152962,-0.16123 l 0.128157,0.0703 c -0.0248,0.0558 -0.06201,0.10542 -0.111621,0.14882 -0.04961,0.0444 -0.107487,0.0806 -0.173632,0.10749 -0.06615,0.0269 -0.139527,0.0413 -0.219109,0.0413 z m 0.842326,-0.0289 v -1.19889 h 0.148828 v 0.23565 l -0.03721,-0.008 c 0.02997,-0.0765 0.07958,-0.13746 0.148828,-0.1819 0.06821,-0.0465 0.148829,-0.0703 0.239779,-0.0703 0.08268,0 0.15813,0.0196 0.227376,0.0579 0.06821,0.0362 0.121957,0.0889 0.161231,0.1571 0.04134,0.0662 0.06201,0.14263 0.06201,0.22738 v 0.78134 h -0.152962 v -0.7276 c 0,-0.0744 -0.01447,-0.13643 -0.04134,-0.18604 -0.02791,-0.0517 -0.06615,-0.092 -0.115755,-0.11988 -0.04754,-0.03 -0.102319,-0.0455 -0.165365,-0.0455 -0.06615,0 -0.124023,0.0155 -0.173632,0.0455 -0.04754,0.031 -0.08475,0.0734 -0.111621,0.12815 -0.02791,0.0527 -0.04134,0.11472 -0.04134,0.18604 v 0.71933 z m 1.732194,0.0124 c -0.10542,0 -0.186035,-0.0289 -0.243913,-0.0868 -0.05581,-0.0599 -0.08268,-0.14676 -0.08268,-0.26045 v -0.7152 h -0.219108 v -0.14883 h 0.06615 c 0.04961,0 0.08682,-0.0145 0.111621,-0.0455 0.02687,-0.03 0.04134,-0.0703 0.04134,-0.11989 v -0.11163 h 0.152963 v 0.27699 h 0.264583 v 0.14883 H 67.05155 v 0.7152 c 0,0.0393 0.0052,0.0734 0.01653,0.10335 0.01034,0.031 0.02997,0.0558 0.05788,0.0744 0.02997,0.0196 0.07131,0.0289 0.124023,0.0289 0.01034,0 0.0248,0 0.04134,0 0.01654,-0.002 0.02997,-0.005 0.04134,-0.008 v 0.13642 c -0.01653,0.005 -0.03617,0.008 -0.05788,0.008 -0.02274,0.002 -0.03927,0.004 -0.04961,0.004 z m 0.420646,-0.0124 v -1.19889 h 0.148828 v 0.21084 l -0.02067,-0.0248 c 0.0248,-0.063 0.06718,-0.11266 0.128158,-0.14883 0.05994,-0.0351 0.132291,-0.0538 0.214974,-0.0538 h 0.07855 v 0.15297 h -0.09922 c -0.09405,0 -0.168465,0.0289 -0.223242,0.0868 -0.05271,0.0579 -0.07855,0.1385 -0.07855,0.23978 v 0.73587 z m 1.319816,0.0289 c -0.113688,0 -0.217041,-0.0279 -0.310058,-0.0827 -0.09095,-0.0548 -0.164331,-0.12919 -0.219108,-0.22324 -0.05271,-0.0961 -0.07855,-0.20361 -0.07855,-0.32246 0,-0.12093 0.02584,-0.22841 0.07855,-0.32246 0.05478,-0.093 0.128157,-0.1664 0.219108,-0.21911 0.09095,-0.0548 0.194303,-0.0827 0.310058,-0.0827 0.115756,0 0.219109,0.0279 0.310059,0.0827 0.09095,0.0527 0.162264,0.12609 0.214974,0.21911 0.05478,0.094 0.08268,0.20153 0.08268,0.32246 0,0.12195 -0.0279,0.22944 -0.08268,0.32246 -0.05581,0.094 -0.128158,0.16846 -0.219108,0.22324 -0.09095,0.0548 -0.19327,0.0827 -0.305925,0.0827 z m 0,-0.15296 c 0.08268,0 0.157097,-0.0207 0.223242,-0.062 0.06821,-0.0413 0.121957,-0.0972 0.161231,-0.1695 0.04134,-0.0744 0.06201,-0.15503 0.06201,-0.24391 0,-0.0909 -0.02067,-0.17157 -0.06201,-0.24392 -0.03927,-0.0713 -0.09302,-0.12815 -0.161231,-0.16949 -0.06614,-0.0434 -0.140559,-0.0661 -0.223242,-0.0661 -0.08268,0 -0.159163,0.0227 -0.227376,0.0661 -0.06615,0.0413 -0.119889,0.0982 -0.161231,0.16949 -0.03927,0.0724 -0.05788,0.15297 -0.05788,0.24392 0,0.0889 0.0186,0.1695 0.05788,0.24391 0.04134,0.0724 0.09508,0.12816 0.161231,0.1695 0.06821,0.0413 0.144694,0.062 0.227376,0.062 z m 1.318783,0.12402 v -1.67431 h 0.545703 c 0.165364,0 0.307991,0.0351 0.429948,0.10335 0.120923,0.0662 0.214974,0.1633 0.28112,0.28939 0.06821,0.12402 0.103353,0.27182 0.103353,0.44235 0,0.17156 -0.03514,0.32039 -0.103353,0.44648 -0.06615,0.12403 -0.160197,0.22118 -0.28112,0.28939 -0.121957,0.0692 -0.264584,0.10335 -0.429948,0.10335 z m 0.16123,-0.14882 h 0.384473 c 0.129191,0 0.241846,-0.0289 0.338997,-0.0868 0.09612,-0.0579 0.170533,-0.13746 0.223242,-0.23978 0.05168,-0.10129 0.07855,-0.22324 0.07855,-0.3638 0,-0.14056 -0.02687,-0.26045 -0.07855,-0.35967 -0.05271,-0.10129 -0.128157,-0.1819 -0.227376,-0.23978 -0.09715,-0.0579 -0.208773,-0.0868 -0.334863,-0.0868 h -0.384473 z m 2.028817,0.17776 c -0.113688,0 -0.214974,-0.0279 -0.305925,-0.0827 -0.08888,-0.0548 -0.159163,-0.12919 -0.210839,-0.22324 -0.05271,-0.0961 -0.07855,-0.20464 -0.07855,-0.3266 0,-0.11782 0.0248,-0.22427 0.07441,-0.31832 0.05168,-0.093 0.120923,-0.1664 0.206706,-0.21911 0.08785,-0.0548 0.186035,-0.0827 0.293522,-0.0827 0.08475,0 0.161231,0.0155 0.227376,0.0455 0.06821,0.031 0.126091,0.0734 0.173633,0.12816 0.04961,0.0527 0.08682,0.11369 0.111621,0.1819 0.02687,0.0661 0.04134,0.13643 0.04134,0.21084 0,0.0165 -0.0021,0.0331 -0.0041,0.0496 0,0.0165 -0.0021,0.0351 -0.0041,0.0537 h -1.029394 v -0.14056 h 0.942578 l -0.07028,0.0579 c 0.01034,-0.0827 -0.0021,-0.15813 -0.03721,-0.22738 -0.03307,-0.0682 -0.08062,-0.12195 -0.14056,-0.16123 -0.06098,-0.0413 -0.131258,-0.062 -0.21084,-0.062 -0.07751,0 -0.148828,0.0207 -0.214974,0.062 -0.06614,0.0413 -0.118855,0.0982 -0.157096,0.1695 -0.03617,0.0724 -0.05168,0.1571 -0.04547,0.25632 -0.0062,0.0972 0.01034,0.1819 0.04961,0.25631 0.04134,0.0724 0.09508,0.12816 0.161231,0.1695 0.06821,0.0393 0.144694,0.0579 0.227376,0.0579 0.08785,0 0.162264,-0.0207 0.223242,-0.062 0.06305,-0.0413 0.113688,-0.0951 0.152962,-0.16123 l 0.128158,0.0703 c -0.0248,0.0558 -0.06201,0.10542 -0.111621,0.14882 -0.04961,0.0444 -0.107487,0.0806 -0.173633,0.10749 -0.06615,0.0269 -0.139526,0.0413 -0.219108,0.0413 z m 1.999878,0 c -0.118856,0 -0.227377,-0.0207 -0.326595,-0.062 -0.09715,-0.0434 -0.180868,-0.10439 -0.252181,-0.1819 -0.07235,-0.0796 -0.128158,-0.17157 -0.169499,-0.27699 -0.03927,-0.10438 -0.05788,-0.2191 -0.05788,-0.34313 0,-0.12609 0.0186,-0.24184 0.05788,-0.34726 0.04134,-0.10439 0.09715,-0.19534 0.169499,-0.27285 0.07131,-0.0796 0.155029,-0.14056 0.252181,-0.18191 0.09922,-0.0434 0.207739,-0.0661 0.326595,-0.0661 0.112654,0 0.212907,0.0207 0.30179,0.062 0.09095,0.0413 0.167432,0.094 0.231511,0.1571 0.06305,0.0641 0.107486,0.13022 0.132291,0.19843 l -0.152962,0.0661 c -0.04134,-0.0992 -0.107487,-0.1788 -0.198438,-0.23978 -0.08888,-0.0599 -0.193269,-0.0909 -0.314192,-0.0909 -0.124024,0 -0.235645,0.031 -0.334864,0.0909 -0.09922,0.061 -0.176733,0.1447 -0.23151,0.25218 -0.05271,0.10542 -0.07855,0.22945 -0.07855,0.37207 0,0.14056 0.02584,0.26459 0.07855,0.37207 0.05478,0.10749 0.132292,0.19224 0.23151,0.25218 0.09922,0.0579 0.21084,0.0868 0.334864,0.0868 0.120923,0 0.225309,-0.03 0.314192,-0.0909 0.09095,-0.0599 0.157097,-0.14056 0.198438,-0.23978 l 0.152962,0.0661 c -0.0248,0.0692 -0.06925,0.13539 -0.132291,0.19843 -0.06408,0.0641 -0.140561,0.11576 -0.231511,0.1571 -0.08888,0.0413 -0.189136,0.062 -0.30179,0.062 z m 1.513086,0 c -0.113689,0 -0.217042,-0.0279 -0.310059,-0.0827 -0.09095,-0.0548 -0.164331,-0.12919 -0.219108,-0.22324 -0.05271,-0.0961 -0.07855,-0.20361 -0.07855,-0.32246 0,-0.12093 0.02584,-0.22841 0.07855,-0.32246 0.05478,-0.093 0.128158,-0.1664 0.219108,-0.21911 0.09095,-0.0548 0.194304,-0.0827 0.310059,-0.0827 0.115755,0 0.219108,0.0279 0.310058,0.0827 0.09095,0.0527 0.162264,0.12609 0.214974,0.21911 0.05478,0.094 0.08268,0.20153 0.08268,0.32246 0,0.12195 -0.0279,0.22944 -0.08268,0.32246 -0.05581,0.094 -0.128157,0.16846 -0.219108,0.22324 -0.09095,0.0548 -0.19327,0.0827 -0.305924,0.0827 z m 0,-0.15296 c 0.08268,0 0.157096,-0.0207 0.223242,-0.062 0.06821,-0.0413 0.121956,-0.0972 0.16123,-0.1695 0.04134,-0.0744 0.06201,-0.15503 0.06201,-0.24391 0,-0.0909 -0.02067,-0.17157 -0.06201,-0.24392 -0.03927,-0.0713 -0.09302,-0.12815 -0.16123,-0.16949 -0.06615,-0.0434 -0.14056,-0.0661 -0.223242,-0.0661 -0.08268,0 -0.159164,0.0227 -0.227377,0.0661 -0.06615,0.0413 -0.119889,0.0982 -0.16123,0.16949 -0.03927,0.0724 -0.05788,0.15297 -0.05788,0.24392 0,0.0889 0.0186,0.1695 0.05788,0.24391 0.04134,0.0724 0.09508,0.12816 0.16123,0.1695 0.06821,0.0413 0.144694,0.062 0.227377,0.062 z m 0.918807,0.12402 v -1.19889 h 0.148828 v 0.23565 l -0.03721,-0.008 c 0.02997,-0.0765 0.07958,-0.13746 0.148828,-0.1819 0.06821,-0.0465 0.148828,-0.0703 0.239778,-0.0703 0.08268,0 0.15813,0.0196 0.227377,0.0579 0.06821,0.0362 0.121956,0.0889 0.16123,0.1571 0.04134,0.0662 0.06201,0.14263 0.06201,0.22738 v 0.78134 h -0.152962 v -0.7276 c 0,-0.0744 -0.01447,-0.13643 -0.04134,-0.18604 -0.0279,-0.0517 -0.06615,-0.092 -0.115755,-0.11988 -0.04754,-0.03 -0.102319,-0.0455 -0.165364,-0.0455 -0.06615,0 -0.124024,0.0155 -0.173633,0.0455 -0.04754,0.031 -0.08475,0.0734 -0.111621,0.12815 -0.0279,0.0527 -0.04134,0.11472 -0.04134,0.18604 v 0.71933 z m 1.693953,0.0289 c -0.113688,0 -0.212907,-0.0289 -0.297656,-0.0868 -0.08578,-0.0579 -0.147795,-0.13436 -0.186035,-0.23151 l 0.128157,-0.062 c 0.03514,0.0744 0.08372,0.13436 0.144694,0.17777 0.06305,0.0413 0.133325,0.062 0.21084,0.062 0.07441,0 0.136426,-0.0176 0.186035,-0.0537 0.05168,-0.0382 0.07855,-0.0879 0.07855,-0.14883 0,-0.0382 -0.01137,-0.0703 -0.03307,-0.0951 -0.02274,-0.0269 -0.04961,-0.0476 -0.08268,-0.062 -0.03101,-0.0165 -0.05994,-0.0289 -0.08682,-0.0372 l -0.181901,-0.0496 c -0.10542,-0.03 -0.181901,-0.0724 -0.231511,-0.12816 -0.04961,-0.0579 -0.07441,-0.12402 -0.07441,-0.19844 0,-0.0682 0.01654,-0.12815 0.04961,-0.17776 0.03514,-0.0517 0.08372,-0.092 0.144695,-0.11989 0.05994,-0.0269 0.12609,-0.0413 0.198437,-0.0413 0.09922,0 0.190169,0.0269 0.272851,0.0785 0.08268,0.0496 0.140561,0.11989 0.173633,0.21084 l -0.132291,0.062 c -0.03101,-0.0682 -0.07441,-0.12093 -0.132292,-0.1571 -0.05581,-0.0382 -0.117822,-0.0579 -0.186035,-0.0579 -0.06925,0 -0.126091,0.0186 -0.169499,0.0537 -0.04134,0.0362 -0.06201,0.0816 -0.06201,0.13642 0,0.0393 0.0093,0.0703 0.02894,0.0951 0.0186,0.0248 0.04237,0.0444 0.07028,0.0579 0.02997,0.0145 0.05788,0.0248 0.08268,0.0331 l 0.198438,0.0579 c 0.09922,0.0279 0.174666,0.0724 0.227376,0.1323 0.05478,0.0579 0.08268,0.12712 0.08268,0.2067 0,0.0662 -0.0186,0.12609 -0.05374,0.17777 -0.03617,0.0496 -0.08682,0.0899 -0.152962,0.11989 -0.06408,0.03 -0.135393,0.0455 -0.214974,0.0455 z m 1.154451,0 c -0.08268,0 -0.159163,-0.0196 -0.227376,-0.0579 -0.06615,-0.0382 -0.119889,-0.092 -0.16123,-0.16123 -0.03928,-0.0713 -0.05788,-0.15399 -0.05788,-0.24804 v -0.76068 h 0.148828 v 0.74414 c 0,0.0692 0.01344,0.12816 0.04134,0.17777 0.02687,0.0475 0.06408,0.0847 0.111621,0.11162 0.04961,0.0279 0.10542,0.0413 0.169499,0.0413 0.06615,0 0.124024,-0.0134 0.173633,-0.0413 0.04961,-0.03 0.08682,-0.0713 0.111621,-0.12402 0.02687,-0.0548 0.04134,-0.11783 0.04134,-0.19017 v -0.71934 h 0.152962 v 1.19889 H 80.10604 v -0.23977 l 0.03721,0.0124 c -0.02791,0.0775 -0.07648,0.13952 -0.144694,0.18603 -0.06925,0.0465 -0.150895,0.0703 -0.243913,0.0703 z m 0.862997,-0.0289 v -1.70325 h 0.148828 v 1.70325 z m 0.957047,0.0124 c -0.10542,0 -0.186035,-0.0289 -0.243913,-0.0868 -0.05581,-0.0599 -0.08268,-0.14676 -0.08268,-0.26045 v -0.7152 h -0.219108 v -0.14883 h 0.06615 c 0.04961,0 0.08682,-0.0145 0.111621,-0.0455 0.02687,-0.03 0.04134,-0.0703 0.04134,-0.11989 v -0.11163 h 0.152962 v 0.27699 h 0.264584 v 0.14883 H 81.40106 v 0.7152 c 0,0.0393 0.0052,0.0734 0.01654,0.10335 0.01034,0.031 0.02997,0.0558 0.05788,0.0744 0.02997,0.0196 0.07131,0.0289 0.124023,0.0289 0.01034,0 0.0248,0 0.04134,0 0.01653,-0.002 0.02997,-0.005 0.04134,-0.008 v 0.13642 c -0.01653,0.005 -0.03617,0.008 -0.05788,0.008 -0.02274,0.002 -0.03927,0.004 -0.04961,0.004 z m 0.933276,0.0165 c -0.113687,0 -0.21704,-0.0279 -0.310058,-0.0827 -0.09095,-0.0548 -0.164331,-0.12919 -0.219108,-0.22324 -0.05271,-0.0961 -0.07855,-0.20361 -0.07855,-0.32246 0,-0.12093 0.02584,-0.22841 0.07855,-0.32246 0.05478,-0.093 0.128157,-0.1664 0.219108,-0.21911 0.09095,-0.0548 0.194303,-0.0827 0.310058,-0.0827 0.115756,0 0.219109,0.0279 0.310059,0.0827 0.09095,0.0527 0.162264,0.12609 0.214974,0.21911 0.05478,0.094 0.08268,0.20153 0.08268,0.32246 0,0.12195 -0.02791,0.22944 -0.08268,0.32246 -0.05581,0.094 -0.128158,0.16846 -0.219108,0.22324 -0.09095,0.0548 -0.19327,0.0827 -0.305925,0.0827 z m 0,-0.15296 c 0.08268,0 0.157097,-0.0207 0.223243,-0.062 0.06821,-0.0413 0.121956,-0.0972 0.16123,-0.1695 0.04134,-0.0744 0.06201,-0.15503 0.06201,-0.24391 0,-0.0909 -0.02067,-0.17157 -0.06201,-0.24392 -0.03927,-0.0713 -0.09302,-0.12815 -0.16123,-0.16949 -0.06615,-0.0434 -0.14056,-0.0661 -0.223243,-0.0661 -0.08268,0 -0.159163,0.0227 -0.227376,0.0661 -0.06615,0.0413 -0.119889,0.0982 -0.16123,0.16949 -0.03927,0.0724 -0.05788,0.15297 -0.05788,0.24392 0,0.0889 0.0186,0.1695 0.05788,0.24391 0.04134,0.0724 0.09508,0.12816 0.16123,0.1695 0.06821,0.0413 0.144694,0.062 0.227376,0.062 z m 0.918807,0.12402 v -1.19889 h 0.148828 v 0.21084 l -0.02067,-0.0248 c 0.0248,-0.063 0.06718,-0.11266 0.128158,-0.14883 0.05994,-0.0351 0.132291,-0.0538 0.214974,-0.0538 h 0.07855 v 0.15297 h -0.09922 c -0.09405,0 -0.168465,0.0289 -0.223242,0.0868 -0.05271,0.0579 -0.07855,0.1385 -0.07855,0.23978 v 0.73587 z m 0.724504,0 v -1.19889 h 0.148828 v 1.19889 z m -0.0041,-1.43867 0.198438,-0.339 h 0.206705 l -0.252181,0.339 z m 0.822689,1.46761 c -0.07441,0 -0.142627,-0.0145 -0.202572,-0.0413 -0.05788,-0.03 -0.105419,-0.0703 -0.140559,-0.11989 -0.03307,-0.0517 -0.04961,-0.11162 -0.04961,-0.17776 0,-0.06 0.0124,-0.11576 0.03721,-0.16537 0.02687,-0.0517 0.06821,-0.0961 0.124023,-0.13229 0.05788,-0.0382 0.132292,-0.0641 0.223242,-0.0785 l 0.475424,-0.0827 v 0.14056 l -0.438217,0.0744 c -0.09405,0.0165 -0.16123,0.0475 -0.202571,0.0909 -0.04134,0.0413 -0.06201,0.0899 -0.06201,0.1447 0,0.061 0.0217,0.11058 0.06615,0.14883 0.04651,0.0393 0.10542,0.0579 0.177767,0.0579 0.08475,0 0.159163,-0.0176 0.223242,-0.0537 0.06305,-0.0382 0.111621,-0.0889 0.144694,-0.15296 0.03514,-0.063 0.05374,-0.13229 0.05374,-0.20671 v -0.30179 c 0,-0.0744 -0.02791,-0.13436 -0.08268,-0.1819 -0.05271,-0.0496 -0.12299,-0.0744 -0.210839,-0.0744 -0.07442,0 -0.140561,0.0196 -0.198438,0.0579 -0.05788,0.0362 -0.101286,0.0847 -0.128158,0.1447 l -0.140559,-0.0744 c 0.0217,-0.0496 0.05581,-0.0951 0.103352,-0.13642 0.04961,-0.0413 0.104387,-0.0724 0.165365,-0.0951 0.06304,-0.0248 0.129191,-0.0372 0.198438,-0.0372 0.08475,0 0.16123,0.0165 0.227376,0.0496 0.06821,0.0331 0.121956,0.0806 0.16123,0.14056 0.03824,0.061 0.05788,0.13022 0.05788,0.2067 v 0.82682 h -0.152962 v -0.24391 l 0.0248,0.0165 c -0.02274,0.0475 -0.05581,0.0899 -0.09922,0.12816 -0.04444,0.0393 -0.09715,0.0703 -0.157097,0.0951 -0.06098,0.0217 -0.127124,0.0331 -0.198437,0.0331 z m 2.101163,0 c -0.118855,0 -0.227376,-0.0207 -0.326595,-0.062 -0.09715,-0.0434 -0.180867,-0.10439 -0.252181,-0.1819 -0.07235,-0.0796 -0.128157,-0.17157 -0.169498,-0.27699 -0.03927,-0.10438 -0.05788,-0.2191 -0.05788,-0.34313 0,-0.12609 0.0186,-0.24184 0.05788,-0.34726 0.04134,-0.10439 0.09715,-0.19534 0.169498,-0.27285 0.07131,-0.0796 0.15503,-0.14056 0.252181,-0.18191 0.09922,-0.0434 0.20774,-0.0661 0.326595,-0.0661 0.112655,0 0.212907,0.0207 0.301791,0.062 0.09095,0.0413 0.167432,0.094 0.23151,0.1571 0.06305,0.0641 0.107487,0.13022 0.132292,0.19843 l -0.152962,0.0661 c -0.04134,-0.0992 -0.107487,-0.1788 -0.198438,-0.23978 -0.08888,-0.0599 -0.19327,-0.0909 -0.314193,-0.0909 -0.124023,0 -0.235644,0.031 -0.334863,0.0909 -0.09922,0.061 -0.176733,0.1447 -0.23151,0.25218 -0.05271,0.10542 -0.07855,0.22945 -0.07855,0.37207 0,0.14056 0.02584,0.26459 0.07855,0.37207 0.05478,0.10749 0.132292,0.19224 0.23151,0.25218 0.09922,0.0579 0.21084,0.0868 0.334863,0.0868 0.120923,0 0.22531,-0.03 0.314193,-0.0909 0.09095,-0.0599 0.157097,-0.14056 0.198438,-0.23978 l 0.152962,0.0661 c -0.0248,0.0692 -0.06925,0.13539 -0.132292,0.19843 -0.06408,0.0641 -0.140559,0.11576 -0.23151,0.1571 -0.08888,0.0413 -0.189136,0.062 -0.301791,0.062 z m 0.977719,-0.0289 v -1.19889 h 0.148828 v 1.19889 z m 0,-1.42627 v -0.24804 h 0.148828 v 0.24804 z m 1.056266,1.45521 c -0.113688,0 -0.214974,-0.0279 -0.305924,-0.0827 -0.08888,-0.0548 -0.159163,-0.12919 -0.21084,-0.22324 -0.05271,-0.0961 -0.07855,-0.20464 -0.07855,-0.3266 0,-0.11782 0.0248,-0.22427 0.07441,-0.31832 0.05168,-0.093 0.120923,-0.1664 0.206706,-0.21911 0.08785,-0.0548 0.186035,-0.0827 0.293522,-0.0827 0.08475,0 0.16123,0.0155 0.227376,0.0455 0.06821,0.031 0.126091,0.0734 0.173633,0.12816 0.04961,0.0527 0.08682,0.11369 0.111621,0.1819 0.02687,0.0661 0.04134,0.13643 0.04134,0.21084 0,0.0165 -0.0021,0.0331 -0.0041,0.0496 0,0.0165 -0.0021,0.0351 -0.0041,0.0537 h -1.029393 v -0.14056 h 0.942578 l -0.07028,0.0579 c 0.01034,-0.0827 -0.0021,-0.15813 -0.03721,-0.22738 -0.03307,-0.0682 -0.08062,-0.12195 -0.14056,-0.16123 -0.06098,-0.0413 -0.131258,-0.062 -0.21084,-0.062 -0.07751,0 -0.148828,0.0207 -0.214974,0.062 -0.06615,0.0413 -0.118856,0.0982 -0.157096,0.1695 -0.03617,0.0724 -0.05168,0.1571 -0.04548,0.25632 -0.0062,0.0972 0.01034,0.1819 0.04961,0.25631 0.04134,0.0724 0.09508,0.12816 0.16123,0.1695 0.06821,0.0393 0.144694,0.0579 0.227376,0.0579 0.08785,0 0.162264,-0.0207 0.223243,-0.062 0.06305,-0.0413 0.113688,-0.0951 0.152962,-0.16123 l 0.128157,0.0703 c -0.0248,0.0558 -0.06201,0.10542 -0.111621,0.14882 -0.04961,0.0444 -0.107487,0.0806 -0.173632,0.10749 -0.06615,0.0269 -0.139527,0.0413 -0.219109,0.0413 z m 0.842326,-0.0289 v -1.19889 h 0.148829 v 0.23565 l -0.03721,-0.008 c 0.02997,-0.0765 0.07958,-0.13746 0.148829,-0.1819 0.06821,-0.0465 0.148828,-0.0703 0.239778,-0.0703 0.08268,0 0.15813,0.0196 0.227377,0.0579 0.06821,0.0362 0.121956,0.0889 0.16123,0.1571 0.04134,0.0662 0.06201,0.14263 0.06201,0.22738 v 0.78134 h -0.152962 v -0.7276 c 0,-0.0744 -0.01447,-0.13643 -0.04134,-0.18604 -0.0279,-0.0517 -0.06615,-0.092 -0.115755,-0.11988 -0.04754,-0.03 -0.102319,-0.0455 -0.165365,-0.0455 -0.06614,0 -0.124023,0.0155 -0.173632,0.0455 -0.04754,0.031 -0.08475,0.0734 -0.111622,0.12815 -0.0279,0.0527 -0.04134,0.11472 -0.04134,0.18604 v 0.71933 z m 1.732194,0.0124 c -0.10542,0 -0.186035,-0.0289 -0.243912,-0.0868 -0.05581,-0.0599 -0.08268,-0.14676 -0.08268,-0.26045 v -0.7152 h -0.219108 v -0.14883 h 0.06615 c 0.04961,0 0.08682,-0.0145 0.111621,-0.0455 0.02687,-0.03 0.04134,-0.0703 0.04134,-0.11989 v -0.11163 h 0.152963 v 0.27699 h 0.264583 v 0.14883 h -0.264583 v 0.7152 c 0,0.0393 0.0052,0.0734 0.01653,0.10335 0.01034,0.031 0.02997,0.0558 0.05788,0.0744 0.02997,0.0196 0.07131,0.0289 0.124023,0.0289 0.01034,0 0.0248,0 0.04134,0 0.01653,-0.002 0.02997,-0.005 0.04134,-0.008 v 0.13642 c -0.01654,0.005 -0.03617,0.008 -0.05788,0.008 -0.02274,0.002 -0.03927,0.004 -0.04961,0.004 z m 0.383439,-0.0124 v -1.19889 h 0.148828 v 1.19889 z m -0.0041,-1.43867 0.198437,-0.339 h 0.206706 l -0.252181,0.339 z m 0.599446,1.43867 v -1.05006 H 92.41847 v -0.14883 h 0.239778 v -0.11162 c 0,-0.0847 0.01757,-0.1571 0.05374,-0.21497 0.03824,-0.0579 0.08682,-0.10129 0.144694,-0.1323 0.05994,-0.03 0.125057,-0.0455 0.194303,-0.0455 0.01654,0 0.03307,0.002 0.04961,0.004 0.0186,0.003 0.03411,0.006 0.04547,0.008 v 0.13643 c -0.0083,-0.002 -0.02274,-0.004 -0.04134,-0.004 -0.01653,-0.002 -0.02894,-0.004 -0.03721,-0.004 -0.07441,0 -0.136426,0.0207 -0.186035,0.062 -0.04754,0.0393 -0.07028,0.10232 -0.07028,0.19017 v 0.11162 h 0.677995 v 0.14883 H 92.8112 v 1.05006 z m 0.7028,0 v -1.19889 h 0.148828 v 1.19889 z m 1.019059,0.0289 c -0.115755,0 -0.219108,-0.0279 -0.310059,-0.0827 -0.08888,-0.0548 -0.159163,-0.12919 -0.210839,-0.22324 -0.04961,-0.0961 -0.07442,-0.20361 -0.07442,-0.32246 0,-0.12093 0.0248,-0.22841 0.07442,-0.32246 0.05168,-0.093 0.121956,-0.1664 0.210839,-0.21911 0.09095,-0.0548 0.194304,-0.0827 0.310059,-0.0827 0.07441,0 0.142627,0.0145 0.206706,0.0413 0.06615,0.0248 0.124023,0.0599 0.173632,0.10335 0.05168,0.0444 0.09095,0.0951 0.115756,0.15296 l -0.136426,0.0703 c -0.03307,-0.0661 -0.08165,-0.11989 -0.144694,-0.16123 -0.06098,-0.0413 -0.132292,-0.062 -0.214974,-0.062 -0.08268,0 -0.157096,0.0207 -0.223242,0.062 -0.06615,0.0413 -0.118856,0.0982 -0.157097,0.1695 -0.03927,0.0724 -0.05788,0.15503 -0.05788,0.24805 0,0.091 0.0186,0.1726 0.05788,0.24391 0.03824,0.0724 0.09095,0.12816 0.157097,0.1695 0.06615,0.0413 0.14056,0.062 0.223242,0.062 0.08268,0 0.153996,-0.0186 0.214974,-0.0579 0.06305,-0.0413 0.111621,-0.0961 0.144694,-0.16536 l 0.136426,0.0744 c -0.0248,0.0558 -0.06408,0.10646 -0.115756,0.15296 -0.04961,0.0444 -0.107486,0.0806 -0.173632,0.10749 -0.06408,0.0269 -0.132292,0.0413 -0.206706,0.0413 z m 1.12758,0 c -0.07441,0 -0.142627,-0.0145 -0.202572,-0.0413 -0.05788,-0.03 -0.105419,-0.0703 -0.140559,-0.11989 -0.03307,-0.0517 -0.04961,-0.11162 -0.04961,-0.17776 0,-0.06 0.0124,-0.11576 0.03721,-0.16537 0.02687,-0.0517 0.06821,-0.0961 0.124024,-0.13229 0.05788,-0.0382 0.132292,-0.0641 0.223242,-0.0785 l 0.475423,-0.0827 v 0.14056 l -0.438216,0.0744 c -0.09405,0.0165 -0.16123,0.0475 -0.202572,0.0909 -0.04134,0.0413 -0.06201,0.0899 -0.06201,0.1447 0,0.061 0.0217,0.11058 0.06615,0.14883 0.04651,0.0393 0.105419,0.0579 0.177766,0.0579 0.08475,0 0.159164,-0.0176 0.223243,-0.0537 0.06305,-0.0382 0.111621,-0.0889 0.144694,-0.15296 0.03514,-0.063 0.05374,-0.13229 0.05374,-0.20671 v -0.30179 c 0,-0.0744 -0.02791,-0.13436 -0.08268,-0.1819 -0.05271,-0.0496 -0.12299,-0.0744 -0.21084,-0.0744 -0.07441,0 -0.14056,0.0196 -0.198438,0.0579 -0.05788,0.0362 -0.101285,0.0847 -0.128157,0.1447 l -0.14056,-0.0744 c 0.0217,-0.0496 0.05581,-0.0951 0.103353,-0.13642 0.04961,-0.0413 0.104386,-0.0724 0.165364,-0.0951 0.06305,-0.0248 0.129191,-0.0372 0.198438,-0.0372 0.08475,0 0.161231,0.0165 0.227376,0.0496 0.06821,0.0331 0.121957,0.0806 0.161231,0.14056 0.03824,0.061 0.05788,0.13022 0.05788,0.2067 v 0.82682 h -0.152962 v -0.24391 l 0.0248,0.0165 c -0.02274,0.0475 -0.05581,0.0899 -0.09922,0.12816 -0.04444,0.0393 -0.09715,0.0703 -0.157096,0.0951 -0.06098,0.0217 -0.127124,0.0331 -0.198437,0.0331 z m -32.701878,2.66754 v -0.77308 l -0.587044,-0.90124 h 0.181901 l 0.520898,0.79375 h -0.06615 l 0.520899,-0.79375 h 0.177767 l -0.587045,0.90124 v 0.77308 z m 1.362191,0 v -1.67432 h 0.136425 l 0.628386,0.92191 h -0.07441 l 0.628385,-0.92191 h 0.14056 v 1.67432 H 65.46205 v -1.44694 l 0.04961,0.0207 -0.611849,0.90124 h -0.0083 l -0.611849,-0.90124 0.04961,-0.0207 v 1.44694 z m 2.387451,0.0289 c -0.113688,0 -0.214974,-0.0279 -0.305925,-0.0827 -0.08888,-0.0548 -0.159163,-0.12919 -0.21084,-0.22325 -0.05271,-0.0961 -0.07855,-0.20463 -0.07855,-0.32659 0,-0.11782 0.0248,-0.22428 0.07441,-0.31833 0.05168,-0.093 0.120923,-0.1664 0.206706,-0.21911 0.08785,-0.0548 0.186035,-0.0827 0.293522,-0.0827 0.08475,0 0.161231,0.0155 0.227376,0.0455 0.06821,0.031 0.126091,0.0734 0.173633,0.12815 0.04961,0.0527 0.08682,0.11369 0.111621,0.18191 0.02687,0.0661 0.04134,0.13642 0.04134,0.21084 0,0.0165 -0.0021,0.0331 -0.0041,0.0496 0,0.0165 -0.0021,0.0351 -0.0041,0.0537 H 66.05122 v -0.14056 h 0.942578 l -0.07028,0.0579 c 0.01034,-0.0827 -0.0021,-0.15813 -0.03721,-0.22738 -0.03307,-0.0682 -0.08061,-0.12196 -0.14056,-0.16123 -0.06098,-0.0413 -0.131258,-0.062 -0.21084,-0.062 -0.07751,0 -0.148828,0.0207 -0.214974,0.062 -0.06615,0.0413 -0.118856,0.0982 -0.157096,0.1695 -0.03617,0.0724 -0.05168,0.15709 -0.04548,0.25631 -0.0062,0.0971 0.01034,0.1819 0.04961,0.25632 0.04134,0.0724 0.09508,0.12816 0.16123,0.1695 0.06821,0.0393 0.144695,0.0579 0.227377,0.0579 0.08785,0 0.162264,-0.0207 0.223242,-0.062 0.06305,-0.0413 0.113688,-0.0951 0.152962,-0.16123 l 0.128158,0.0703 c -0.0248,0.0558 -0.06201,0.10542 -0.111621,0.14883 -0.04961,0.0444 -0.107488,0.0806 -0.173633,0.10749 -0.06615,0.0269 -0.139526,0.0413 -0.219108,0.0413 z m 1.289843,-0.0165 c -0.10542,0 -0.186035,-0.0289 -0.243913,-0.0868 -0.05581,-0.06 -0.08268,-0.14677 -0.08268,-0.26045 v -0.71521 h -0.219108 v -0.14882 h 0.06615 c 0.04961,0 0.08682,-0.0145 0.111621,-0.0455 0.02687,-0.03 0.04134,-0.0703 0.04134,-0.11989 v -0.11162 h 0.152963 v 0.27699 h 0.264583 v 0.14882 h -0.264583 v 0.71521 c 0,0.0393 0.0052,0.0734 0.01653,0.10335 0.01034,0.031 0.02997,0.0558 0.05788,0.0744 0.02997,0.0196 0.07131,0.0289 0.124023,0.0289 0.01034,0 0.0248,0 0.04134,0 0.01653,-0.002 0.02997,-0.005 0.04134,-0.008 v 0.13643 c -0.01654,0.005 -0.03617,0.008 -0.05788,0.008 -0.02274,0.002 -0.03927,0.004 -0.04961,0.004 z m 0.734839,0.0165 c -0.07441,0 -0.142627,-0.0145 -0.202571,-0.0413 -0.05788,-0.03 -0.10542,-0.0703 -0.14056,-0.11989 -0.03307,-0.0517 -0.04961,-0.11162 -0.04961,-0.17777 0,-0.0599 0.0124,-0.11575 0.03721,-0.16536 0.02687,-0.0517 0.06821,-0.0961 0.124024,-0.1323 0.05788,-0.0382 0.132291,-0.0641 0.223242,-0.0785 l 0.475423,-0.0827 v 0.14056 l -0.438216,0.0744 c -0.09405,0.0165 -0.161231,0.0475 -0.202572,0.091 -0.04134,0.0413 -0.06201,0.0899 -0.06201,0.14469 0,0.061 0.0217,0.11059 0.06615,0.14883 0.04651,0.0393 0.105419,0.0579 0.177766,0.0579 0.08475,0 0.159164,-0.0176 0.223242,-0.0537 0.06305,-0.0382 0.111622,-0.0889 0.144695,-0.15297 0.03514,-0.063 0.05374,-0.13229 0.05374,-0.2067 v -0.30179 c 0,-0.0744 -0.02791,-0.13436 -0.08268,-0.1819 -0.05271,-0.0496 -0.12299,-0.0744 -0.21084,-0.0744 -0.07441,0 -0.14056,0.0196 -0.198438,0.0579 -0.05788,0.0362 -0.101285,0.0847 -0.128157,0.14469 l -0.14056,-0.0744 c 0.0217,-0.0496 0.05581,-0.0951 0.103353,-0.13643 0.04961,-0.0413 0.104386,-0.0723 0.165364,-0.0951 0.06305,-0.0248 0.129192,-0.0372 0.198438,-0.0372 0.08475,0 0.16123,0.0165 0.227376,0.0496 0.06821,0.0331 0.121957,0.0806 0.161231,0.14056 0.03824,0.061 0.05788,0.13023 0.05788,0.20671 v 0.82682 H 69.01016 v -0.24391 l 0.0248,0.0165 c -0.02274,0.0475 -0.05581,0.0899 -0.09922,0.12816 -0.04444,0.0393 -0.09715,0.0703 -0.157097,0.0951 -0.06098,0.0217 -0.127123,0.0331 -0.198437,0.0331 z m 0.928109,-0.55811 v -0.14469 h 0.768945 v 0.14469 z m 1.117244,0.52917 v -1.19889 h 0.148828 v 1.19889 z m 0,-1.42627 v -0.24805 h 0.148828 v 0.24805 z m 0.50953,1.42627 v -1.19889 h 0.148828 v 0.23564 l -0.03721,-0.008 c 0.02997,-0.0765 0.07958,-0.13746 0.148828,-0.1819 0.06821,-0.0465 0.148828,-0.0703 0.239779,-0.0703 0.08268,0 0.15813,0.0196 0.227376,0.0579 0.06821,0.0362 0.121956,0.0889 0.16123,0.1571 0.04134,0.0661 0.06201,0.14262 0.06201,0.22737 v 0.78135 H 71.9329 v -0.7276 c 0,-0.0744 -0.01447,-0.13643 -0.04134,-0.18604 -0.02791,-0.0517 -0.06615,-0.092 -0.115755,-0.11989 -0.04754,-0.03 -0.10232,-0.0455 -0.165365,-0.0455 -0.06615,0 -0.124023,0.0155 -0.173633,0.0455 -0.04754,0.031 -0.08475,0.0734 -0.111621,0.12816 -0.02791,0.0527 -0.04134,0.11472 -0.04134,0.18603 v 0.71934 z m 1.585433,0 -0.471289,-1.19889 h 0.165364 l 0.409277,1.0666 h -0.05788 l 0.409277,-1.0666 H 73.3489 l -0.475423,1.19889 z m 1.365291,0.0289 c -0.113688,0 -0.214974,-0.0279 -0.305925,-0.0827 -0.08888,-0.0548 -0.159163,-0.12919 -0.210839,-0.22325 -0.05271,-0.0961 -0.07855,-0.20463 -0.07855,-0.32659 0,-0.11782 0.0248,-0.22428 0.07441,-0.31833 0.05168,-0.093 0.120923,-0.1664 0.206705,-0.21911 0.08785,-0.0548 0.186035,-0.0827 0.293522,-0.0827 0.08475,0 0.161231,0.0155 0.227377,0.0455 0.06821,0.031 0.12609,0.0734 0.173633,0.12815 0.04961,0.0527 0.08682,0.11369 0.111621,0.18191 0.02687,0.0661 0.04134,0.13642 0.04134,0.21084 0,0.0165 -0.0021,0.0331 -0.0041,0.0496 0,0.0165 -0.0021,0.0351 -0.0041,0.0537 H 73.58151 v -0.14056 h 0.942578 l -0.07028,0.0579 c 0.01033,-0.0827 -0.0021,-0.15813 -0.03721,-0.22738 -0.03307,-0.0682 -0.08062,-0.12196 -0.14056,-0.16123 -0.06098,-0.0413 -0.131258,-0.062 -0.21084,-0.062 -0.07751,0 -0.148828,0.0207 -0.214974,0.062 -0.06614,0.0413 -0.118855,0.0982 -0.157096,0.1695 -0.03617,0.0724 -0.05168,0.15709 -0.04547,0.25631 -0.0062,0.0971 0.01034,0.1819 0.04961,0.25632 0.04134,0.0724 0.09509,0.12816 0.161231,0.1695 0.06821,0.0393 0.144694,0.0579 0.227376,0.0579 0.08785,0 0.162264,-0.0207 0.223242,-0.062 0.06305,-0.0413 0.113688,-0.0951 0.152962,-0.16123 l 0.128158,0.0703 c -0.0248,0.0558 -0.06201,0.10542 -0.111621,0.14883 -0.04961,0.0444 -0.107487,0.0806 -0.173633,0.10749 -0.06615,0.0269 -0.139526,0.0413 -0.219108,0.0413 z m 1.251603,0 c -0.113688,0 -0.212907,-0.0289 -0.297656,-0.0868 -0.08578,-0.0579 -0.147795,-0.13436 -0.186035,-0.23151 l 0.128157,-0.062 c 0.03514,0.0744 0.08372,0.13436 0.144694,0.17777 0.06305,0.0413 0.133326,0.062 0.21084,0.062 0.07441,0 0.136426,-0.0176 0.186035,-0.0537 0.05168,-0.0382 0.07855,-0.0879 0.07855,-0.14883 0,-0.0382 -0.01137,-0.0703 -0.03307,-0.0951 -0.02274,-0.0269 -0.04961,-0.0475 -0.08268,-0.062 -0.031,-0.0165 -0.05994,-0.0289 -0.08682,-0.0372 l -0.181901,-0.0496 c -0.10542,-0.03 -0.181901,-0.0723 -0.23151,-0.12815 -0.04961,-0.0579 -0.07442,-0.12403 -0.07442,-0.19844 0,-0.0682 0.01654,-0.12816 0.04961,-0.17777 0.03514,-0.0517 0.08372,-0.092 0.144694,-0.11989 0.05994,-0.0269 0.12609,-0.0413 0.198437,-0.0413 0.09922,0 0.19017,0.0269 0.272852,0.0786 0.08268,0.0496 0.14056,0.11989 0.173632,0.21084 l -0.132291,0.062 c -0.03101,-0.0682 -0.07441,-0.12092 -0.132292,-0.15709 -0.05581,-0.0382 -0.117822,-0.0579 -0.186035,-0.0579 -0.06925,0 -0.12609,0.0186 -0.169499,0.0537 -0.04134,0.0362 -0.06201,0.0816 -0.06201,0.13643 0,0.0393 0.0093,0.0703 0.02894,0.0951 0.0186,0.0248 0.04237,0.0444 0.07028,0.0579 0.02997,0.0145 0.05788,0.0248 0.08268,0.0331 l 0.198437,0.0579 c 0.09922,0.0279 0.174666,0.0724 0.227376,0.13229 0.05478,0.0579 0.08268,0.12713 0.08268,0.20671 0,0.0661 -0.0186,0.12609 -0.05374,0.17776 -0.03617,0.0496 -0.08682,0.0899 -0.152962,0.11989 -0.06408,0.03 -0.135393,0.0455 -0.214974,0.0455 z m 1.179256,-0.0165 c -0.10542,0 -0.186035,-0.0289 -0.243913,-0.0868 -0.05581,-0.06 -0.08268,-0.14677 -0.08268,-0.26045 v -0.71521 h -0.219108 v -0.14882 h 0.06615 c 0.04961,0 0.08682,-0.0145 0.111621,-0.0455 0.02687,-0.03 0.04134,-0.0703 0.04134,-0.11989 v -0.11162 h 0.152962 v 0.27699 h 0.264584 v 0.14882 H 76.34304 v 0.71521 c 0,0.0393 0.0052,0.0734 0.01653,0.10335 0.01034,0.031 0.02997,0.0558 0.05788,0.0744 0.02997,0.0196 0.07131,0.0289 0.124023,0.0289 0.01034,0 0.0248,0 0.04134,0 0.01654,-0.002 0.02997,-0.005 0.04134,-0.008 v 0.13643 c -0.01653,0.005 -0.03617,0.008 -0.05788,0.008 -0.02274,0.002 -0.03927,0.004 -0.04961,0.004 z m 0.420647,-0.0124 v -1.19889 h 0.148828 v 1.19889 z m 0,-1.42627 v -0.24805 h 0.148828 v 0.24805 z m 1.072802,1.92236 c -0.08061,0 -0.155029,-0.0145 -0.223242,-0.0413 -0.06925,-0.0248 -0.128158,-0.0599 -0.177767,-0.10335 -0.04961,-0.0413 -0.08888,-0.091 -0.115755,-0.14883 l 0.136425,-0.0744 c 0.02687,0.0599 0.07235,0.11162 0.136426,0.15296 0.06615,0.0413 0.146762,0.062 0.243913,0.062 0.07131,0 0.138493,-0.0145 0.202572,-0.0413 0.06305,-0.0279 0.113688,-0.0724 0.152962,-0.13229 0.03824,-0.0579 0.05788,-0.13023 0.05788,-0.21498 v -0.28525 l 0.02894,0.0289 c -0.04444,0.0889 -0.107487,0.15916 -0.190169,0.21084 -0.08268,0.0496 -0.1757,0.0744 -0.276986,0.0744 -0.113688,0 -0.213941,-0.0269 -0.30179,-0.0827 -0.08888,-0.0548 -0.159163,-0.12816 -0.21084,-0.21911 -0.04961,-0.091 -0.07441,-0.19223 -0.07441,-0.30592 0,-0.10956 0.0248,-0.21084 0.07441,-0.30179 0.05168,-0.091 0.121957,-0.16227 0.21084,-0.21498 0.08785,-0.0548 0.188102,-0.0827 0.301791,-0.0827 0.101285,0 0.192236,0.0238 0.272851,0.0703 0.08268,0.0475 0.146761,0.11162 0.194303,0.19431 l -0.02894,0.0455 v -0.28525 h 0.152962 v 1.15341 c 0,0.10439 -0.0248,0.19638 -0.07441,0.27699 -0.04754,0.0827 -0.113688,0.14676 -0.198438,0.1943 -0.08578,0.0465 -0.183968,0.0703 -0.293522,0.0703 z m -0.02067,-0.66559 c 0.08268,0 0.155029,-0.0207 0.219108,-0.062 0.06615,-0.0413 0.117822,-0.0961 0.157096,-0.16537 0.03824,-0.0682 0.05788,-0.14469 0.05788,-0.22737 0,-0.0827 -0.01964,-0.15813 -0.05788,-0.22738 -0.03928,-0.0682 -0.09095,-0.12195 -0.157097,-0.16123 -0.06408,-0.0413 -0.136426,-0.062 -0.219109,-0.062 -0.08268,0 -0.157096,0.0207 -0.223242,0.062 -0.06615,0.0393 -0.117822,0.093 -0.152962,0.16123 -0.03617,0.0692 -0.05374,0.1447 -0.05374,0.22738 0,0.0827 0.01757,0.15916 0.05374,0.22737 0.03514,0.0692 0.08682,0.12403 0.152962,0.16537 0.06615,0.0413 0.14056,0.062 0.223242,0.062 z m 1.290877,0.19844 c -0.07441,0 -0.142627,-0.0145 -0.202572,-0.0413 -0.05788,-0.03 -0.105419,-0.0703 -0.140559,-0.11989 -0.03307,-0.0517 -0.04961,-0.11162 -0.04961,-0.17777 0,-0.0599 0.0124,-0.11575 0.03721,-0.16536 0.02687,-0.0517 0.06821,-0.0961 0.124024,-0.1323 0.05788,-0.0382 0.132291,-0.0641 0.223242,-0.0785 l 0.475423,-0.0827 v 0.14056 l -0.438218,0.0744 c -0.09405,0.0165 -0.16123,0.0475 -0.202571,0.091 -0.04134,0.0413 -0.06201,0.0899 -0.06201,0.14469 0,0.061 0.0217,0.11059 0.06615,0.14883 0.04651,0.0393 0.10542,0.0579 0.177767,0.0579 0.08475,0 0.159163,-0.0176 0.223242,-0.0537 0.06305,-0.0382 0.111621,-0.0889 0.144694,-0.15297 0.03514,-0.063 0.05374,-0.13229 0.05374,-0.2067 v -0.30179 c 0,-0.0744 -0.02791,-0.13436 -0.08268,-0.1819 -0.05271,-0.0496 -0.12299,-0.0744 -0.210839,-0.0744 -0.07442,0 -0.140561,0.0196 -0.198438,0.0579 -0.05788,0.0362 -0.101286,0.0847 -0.128157,0.14469 l -0.14056,-0.0744 c 0.0217,-0.0496 0.05581,-0.0951 0.103352,-0.13643 0.04961,-0.0413 0.104387,-0.0723 0.165365,-0.0951 0.06305,-0.0248 0.129191,-0.0372 0.198438,-0.0372 0.08475,0 0.16123,0.0165 0.227376,0.0496 0.06821,0.0331 0.121956,0.0806 0.16123,0.14056 0.03824,0.061 0.05788,0.13023 0.05788,0.20671 v 0.82682 h -0.152962 v -0.24391 l 0.0248,0.0165 c -0.02274,0.0475 -0.05581,0.0899 -0.09922,0.12816 -0.04444,0.0393 -0.09715,0.0703 -0.157097,0.0951 -0.06098,0.0217 -0.127124,0.0331 -0.198437,0.0331 z m 1.490348,0 c -0.115755,0 -0.219108,-0.0279 -0.310058,-0.0827 -0.08888,-0.0548 -0.159165,-0.12919 -0.210841,-0.22325 -0.04961,-0.0961 -0.07442,-0.2036 -0.07442,-0.32246 0,-0.12092 0.0248,-0.22841 0.07442,-0.32246 0.05168,-0.093 0.121956,-0.1664 0.210839,-0.21911 0.09095,-0.0548 0.194304,-0.0827 0.310059,-0.0827 0.07441,0 0.142627,0.0145 0.206706,0.0413 0.06614,0.0248 0.124023,0.06 0.173632,0.10336 0.05168,0.0444 0.09095,0.0951 0.115755,0.15296 l -0.136425,0.0703 c -0.03307,-0.0661 -0.08165,-0.11989 -0.144694,-0.16123 -0.06098,-0.0413 -0.132292,-0.062 -0.214974,-0.062 -0.08268,0 -0.157096,0.0207 -0.223242,0.062 -0.06615,0.0413 -0.118856,0.0982 -0.157097,0.1695 -0.03927,0.0723 -0.05788,0.15503 -0.05788,0.24804 0,0.091 0.0186,0.1726 0.05788,0.24392 0.03824,0.0723 0.09095,0.12815 0.157097,0.16949 0.06615,0.0414 0.140559,0.062 0.223242,0.062 0.08268,0 0.153996,-0.0186 0.214974,-0.0579 0.06304,-0.0413 0.111621,-0.0961 0.144694,-0.16537 l 0.136425,0.0744 c -0.0248,0.0558 -0.06408,0.10645 -0.115755,0.15296 -0.04961,0.0444 -0.107487,0.0806 -0.173632,0.10749 -0.06408,0.0269 -0.132292,0.0413 -0.206706,0.0413 z m 0.807186,-0.0289 v -1.19889 h 0.148828 v 1.19889 z m 0,-1.42627 v -0.24805 h 0.148828 v 0.24805 z m 1.067635,1.45521 c -0.113688,0 -0.217041,-0.0279 -0.310058,-0.0827 -0.09095,-0.0548 -0.164333,-0.12919 -0.21911,-0.22325 -0.05271,-0.0961 -0.07855,-0.2036 -0.07855,-0.32246 0,-0.12092 0.02584,-0.22841 0.07855,-0.32246 0.05478,-0.093 0.128158,-0.1664 0.219108,-0.21911 0.09095,-0.0548 0.194304,-0.0827 0.310059,-0.0827 0.115755,0 0.219108,0.0279 0.310058,0.0827 0.09095,0.0527 0.162264,0.12609 0.214974,0.21911 0.05478,0.094 0.08268,0.20154 0.08268,0.32246 0,0.12196 -0.02791,0.22945 -0.08268,0.32246 -0.05581,0.0941 -0.128157,0.16847 -0.219108,0.22325 -0.09095,0.0548 -0.193269,0.0827 -0.305924,0.0827 z m 0,-0.15296 c 0.08268,0 0.157097,-0.0207 0.223242,-0.062 0.06821,-0.0413 0.121957,-0.0971 0.161231,-0.16949 0.04134,-0.0744 0.06201,-0.15503 0.06201,-0.24392 0,-0.0909 -0.02067,-0.17156 -0.06201,-0.24391 -0.03927,-0.0713 -0.09302,-0.12816 -0.161231,-0.1695 -0.06615,-0.0434 -0.140559,-0.0661 -0.223242,-0.0661 -0.08268,0 -0.159163,0.0227 -0.227376,0.0661 -0.06615,0.0413 -0.119889,0.0982 -0.161231,0.1695 -0.03927,0.0724 -0.05788,0.15296 -0.05788,0.24391 0,0.0889 0.0186,0.1695 0.05788,0.24392 0.04134,0.0723 0.09508,0.12815 0.161231,0.16949 0.06821,0.0414 0.144694,0.062 0.227376,0.062 z m -0.07855,-1.31465 0.198437,-0.339 h 0.206706 l -0.252181,0.339 z m 0.996322,1.43867 v -1.19889 h 0.148828 v 0.23564 l -0.03721,-0.008 c 0.02997,-0.0765 0.07958,-0.13746 0.148828,-0.1819 0.06821,-0.0465 0.148828,-0.0703 0.239779,-0.0703 0.08268,0 0.15813,0.0196 0.227376,0.0579 0.06821,0.0362 0.121957,0.0889 0.161231,0.1571 0.04134,0.0661 0.06201,0.14262 0.06201,0.22737 v 0.78135 h -0.152963 v -0.7276 c 0,-0.0744 -0.01447,-0.13643 -0.04134,-0.18604 -0.0279,-0.0517 -0.06615,-0.092 -0.115755,-0.11989 -0.04754,-0.03 -0.10232,-0.0455 -0.165365,-0.0455 -0.06615,0 -0.124023,0.0155 -0.173632,0.0455 -0.04754,0.031 -0.08475,0.0734 -0.111621,0.12816 -0.02791,0.0527 -0.04134,0.11472 -0.04134,0.18603 v 0.71934 z m 1.685685,0 v -1.67432 h 1.066601 v 0.14883 H 85.41018 v 0.61185 h 0.859896 v 0.14883 H 85.41018 v 0.61598 h 0.905371 v 0.14883 z m 1.352889,0 v -1.19889 h 0.148828 v 0.23564 l -0.03721,-0.008 c 0.02997,-0.0765 0.07958,-0.13746 0.148828,-0.1819 0.06821,-0.0465 0.148828,-0.0703 0.239778,-0.0703 0.08268,0 0.15813,0.0196 0.227377,0.0579 0.06821,0.0362 0.121956,0.0889 0.16123,0.1571 0.04134,0.0661 0.06201,0.14262 0.06201,0.22737 v 0.78135 h -0.152962 v -0.7276 c 0,-0.0744 -0.01447,-0.13643 -0.04134,-0.18604 -0.02791,-0.0517 -0.06615,-0.092 -0.115755,-0.11989 -0.04754,-0.03 -0.10232,-0.0455 -0.165365,-0.0455 -0.06615,0 -0.124024,0.0155 -0.173633,0.0455 -0.04754,0.031 -0.08475,0.0734 -0.111621,0.12816 -0.02791,0.0527 -0.04134,0.11472 -0.04134,0.18603 v 0.71934 z m 2.442228,0.0289 c -0.118856,0 -0.227376,-0.0207 -0.326595,-0.062 -0.09715,-0.0434 -0.180869,-0.10439 -0.252183,-0.1819 -0.07235,-0.0796 -0.128157,-0.17157 -0.169498,-0.27699 -0.03927,-0.10439 -0.05788,-0.21911 -0.05788,-0.34313 0,-0.12609 0.0186,-0.24185 0.05788,-0.34727 0.04134,-0.10438 0.09715,-0.19533 0.169498,-0.27285 0.07131,-0.0796 0.15503,-0.14056 0.252181,-0.1819 0.09922,-0.0434 0.20774,-0.0661 0.326595,-0.0661 0.112655,0 0.212907,0.0207 0.301791,0.062 0.09095,0.0413 0.167431,0.094 0.23151,0.15709 0.06305,0.0641 0.107487,0.13023 0.132292,0.19844 l -0.152962,0.0662 c -0.04134,-0.0992 -0.107488,-0.1788 -0.198438,-0.23978 -0.08888,-0.06 -0.19327,-0.091 -0.314193,-0.091 -0.124023,0 -0.235644,0.031 -0.334863,0.091 -0.09922,0.061 -0.176733,0.14469 -0.23151,0.25218 -0.05271,0.10542 -0.07855,0.22944 -0.07855,0.37207 0,0.14056 0.02584,0.26458 0.07855,0.37207 0.05478,0.10749 0.132291,0.19224 0.23151,0.25218 0.09922,0.0579 0.21084,0.0868 0.334863,0.0868 0.120923,0 0.22531,-0.03 0.314193,-0.091 0.09095,-0.06 0.157096,-0.14056 0.198438,-0.23978 l 0.152962,0.0661 c -0.0248,0.0692 -0.06925,0.1354 -0.132292,0.19844 -0.06408,0.0641 -0.14056,0.11576 -0.23151,0.1571 -0.08888,0.0413 -0.189136,0.062 -0.301791,0.062 z m 0.977718,-0.0289 v -1.19889 h 0.148828 v 1.19889 z m 0,-1.42627 v -0.24805 h 0.148828 v 0.24805 z m 1.055232,1.45521 c -0.113688,0 -0.214974,-0.0279 -0.305924,-0.0827 -0.08889,-0.0548 -0.159165,-0.12919 -0.210841,-0.22325 -0.05271,-0.0961 -0.07855,-0.20463 -0.07855,-0.32659 0,-0.11782 0.0248,-0.22428 0.07441,-0.31833 0.05168,-0.093 0.120922,-0.1664 0.206705,-0.21911 0.08785,-0.0548 0.186036,-0.0827 0.293522,-0.0827 0.08475,0 0.161231,0.0155 0.227377,0.0455 0.06821,0.031 0.12609,0.0734 0.173633,0.12815 0.04961,0.0527 0.08682,0.11369 0.111621,0.18191 0.02687,0.0661 0.04134,0.13642 0.04134,0.21084 0,0.0165 -0.0021,0.0331 -0.0041,0.0496 0,0.0165 -0.0021,0.0351 -0.0041,0.0537 h -1.029394 v -0.14056 h 0.942578 l -0.07028,0.0579 c 0.01034,-0.0827 -0.0021,-0.15813 -0.03721,-0.22738 -0.03307,-0.0682 -0.08062,-0.12196 -0.14056,-0.16123 -0.06098,-0.0413 -0.131258,-0.062 -0.21084,-0.062 -0.07751,0 -0.148828,0.0207 -0.214974,0.062 -0.06615,0.0413 -0.118855,0.0982 -0.157096,0.1695 -0.03617,0.0724 -0.05168,0.15709 -0.04547,0.25631 -0.0062,0.0971 0.01034,0.1819 0.04961,0.25632 0.04134,0.0724 0.09508,0.12816 0.161231,0.1695 0.06821,0.0393 0.144694,0.0579 0.227376,0.0579 0.08785,0 0.162264,-0.0207 0.223242,-0.062 0.06305,-0.0413 0.113688,-0.0951 0.152962,-0.16123 l 0.128158,0.0703 c -0.0248,0.0558 -0.06201,0.10542 -0.111621,0.14883 -0.04961,0.0444 -0.107487,0.0806 -0.173633,0.10749 -0.06615,0.0269 -0.139526,0.0413 -0.219108,0.0413 z m 0.84336,-0.0289 v -1.19889 h 0.148828 v 0.23564 l -0.03721,-0.008 c 0.02997,-0.0765 0.07958,-0.13746 0.148828,-0.1819 0.06821,-0.0465 0.148828,-0.0703 0.239779,-0.0703 0.08268,0 0.158129,0.0196 0.227376,0.0579 0.06821,0.0362 0.121956,0.0889 0.16123,0.1571 0.04134,0.0661 0.06201,0.14262 0.06201,0.22737 v 0.78135 h -0.152962 v -0.7276 c 0,-0.0744 -0.01447,-0.13643 -0.04134,-0.18604 -0.02791,-0.0517 -0.06615,-0.092 -0.115756,-0.11989 -0.04754,-0.03 -0.102319,-0.0455 -0.165364,-0.0455 -0.06615,0 -0.124023,0.0155 -0.173633,0.0455 -0.04754,0.031 -0.08475,0.0734 -0.111621,0.12816 -0.0279,0.0527 -0.04134,0.11472 -0.04134,0.18603 v 0.71934 z m 1.831412,0.0289 c -0.115755,0 -0.219107,-0.0279 -0.310058,-0.0827 -0.08889,-0.0548 -0.159165,-0.12919 -0.210841,-0.22325 -0.04961,-0.0961 -0.07442,-0.2036 -0.07442,-0.32246 0,-0.12092 0.0248,-0.22841 0.07442,-0.32246 0.05168,-0.093 0.121956,-0.1664 0.210839,-0.21911 0.09095,-0.0548 0.194304,-0.0827 0.310059,-0.0827 0.07441,0 0.142627,0.0145 0.206706,0.0413 0.06615,0.0248 0.124023,0.06 0.173632,0.10336 0.05168,0.0444 0.09095,0.0951 0.115756,0.15296 l -0.136426,0.0703 c -0.03307,-0.0661 -0.08165,-0.11989 -0.144694,-0.16123 -0.06098,-0.0413 -0.132292,-0.062 -0.214974,-0.062 -0.08268,0 -0.157096,0.0207 -0.223242,0.062 -0.06615,0.0413 -0.118856,0.0982 -0.157097,0.1695 -0.03927,0.0723 -0.05788,0.15503 -0.05788,0.24804 0,0.091 0.0186,0.1726 0.05788,0.24392 0.03824,0.0723 0.09095,0.12815 0.157097,0.16949 0.06615,0.0414 0.14056,0.062 0.223242,0.062 0.08268,0 0.153996,-0.0186 0.214974,-0.0579 0.06305,-0.0413 0.111621,-0.0961 0.144694,-0.16537 l 0.136426,0.0744 c -0.0248,0.0558 -0.06408,0.10645 -0.115756,0.15296 -0.04961,0.0444 -0.107486,0.0806 -0.173632,0.10749 -0.06408,0.0269 -0.132292,0.0413 -0.206706,0.0413 z m 0.806151,-0.0289 v -1.19889 h 0.148829 v 1.19889 z m 0,-1.42627 v -0.24805 h 0.148829 v 0.24805 z m 0.853695,1.45521 c -0.07441,0 -0.142627,-0.0145 -0.202572,-0.0413 -0.05788,-0.03 -0.105419,-0.0703 -0.14056,-0.11989 -0.03307,-0.0517 -0.04961,-0.11162 -0.04961,-0.17777 0,-0.0599 0.0124,-0.11575 0.03721,-0.16536 0.02687,-0.0517 0.06821,-0.0961 0.124024,-0.13229 0.05788,-0.0383 0.132291,-0.0641 0.223242,-0.0786 l 0.475423,-0.0827 v 0.14056 l -0.438216,0.0744 c -0.09405,0.0165 -0.161231,0.0475 -0.202572,0.091 -0.04134,0.0413 -0.06201,0.0899 -0.06201,0.14469 0,0.061 0.0217,0.11059 0.06614,0.14883 0.04651,0.0393 0.10542,0.0579 0.177767,0.0579 0.08475,0 0.159164,-0.0176 0.223243,-0.0537 0.06305,-0.0382 0.111621,-0.0889 0.144693,-0.15297 0.03514,-0.063 0.05374,-0.13229 0.05374,-0.2067 v -0.30179 c 0,-0.0744 -0.0279,-0.13436 -0.08268,-0.1819 -0.05271,-0.0496 -0.12299,-0.0744 -0.21084,-0.0744 -0.07441,0 -0.14056,0.0196 -0.198438,0.0579 -0.05788,0.0362 -0.101286,0.0847 -0.128157,0.14469 l -0.14056,-0.0744 c 0.0217,-0.0496 0.05581,-0.0951 0.103353,-0.13643 0.04961,-0.0413 0.104386,-0.0723 0.165364,-0.0951 0.06305,-0.0248 0.129191,-0.0372 0.198438,-0.0372 0.08475,0 0.16123,0.0165 0.227376,0.0496 0.06821,0.0331 0.121957,0.0806 0.161231,0.14056 0.03824,0.061 0.05788,0.13023 0.05788,0.20671 v 0.82682 h -0.152962 v -0.24391 l 0.0248,0.0165 c -0.02274,0.0475 -0.05581,0.0899 -0.09922,0.12816 -0.04444,0.0393 -0.09715,0.0703 -0.157096,0.0951 -0.06098,0.0217 -0.127124,0.0331 -0.198438,0.0331 z m 1.353922,0 c -0.113688,0 -0.212906,-0.0289 -0.297656,-0.0868 -0.08578,-0.0579 -0.147794,-0.13436 -0.186035,-0.23151 l 0.128158,-0.062 c 0.03514,0.0744 0.08371,0.13436 0.144694,0.17777 0.06305,0.0413 0.133325,0.062 0.210839,0.062 0.07442,0 0.136426,-0.0176 0.186036,-0.0537 0.05168,-0.0382 0.07855,-0.0879 0.07855,-0.14883 0,-0.0382 -0.01137,-0.0703 -0.03307,-0.0951 -0.02274,-0.0269 -0.04961,-0.0475 -0.08268,-0.062 -0.03101,-0.0165 -0.05994,-0.0289 -0.08682,-0.0372 l -0.181901,-0.0496 c -0.10542,-0.03 -0.181901,-0.0723 -0.23151,-0.12815 -0.04961,-0.0579 -0.07441,-0.12403 -0.07441,-0.19844 0,-0.0682 0.01653,-0.12816 0.04961,-0.17777 0.03514,-0.0517 0.08372,-0.092 0.144694,-0.11989 0.05994,-0.0269 0.126091,-0.0413 0.198437,-0.0413 0.09922,0 0.19017,0.0269 0.272852,0.0786 0.08268,0.0496 0.14056,0.11989 0.173633,0.21084 l -0.132292,0.062 c -0.031,-0.0682 -0.07441,-0.12092 -0.132292,-0.15709 -0.05581,-0.0382 -0.117822,-0.0579 -0.186035,-0.0579 -0.06925,0 -0.12609,0.0186 -0.169498,0.0537 -0.04134,0.0362 -0.06201,0.0816 -0.06201,0.13643 0,0.0393 0.0093,0.0703 0.02894,0.0951 0.0186,0.0248 0.04238,0.0444 0.07028,0.0579 0.02997,0.0145 0.05788,0.0248 0.08268,0.0331 l 0.198438,0.0579 c 0.09922,0.0279 0.174666,0.0724 0.227376,0.13229 0.05478,0.0579 0.08268,0.12713 0.08268,0.20671 0,0.0661 -0.0186,0.12609 -0.05374,0.17776 -0.03617,0.0496 -0.08682,0.0899 -0.152962,0.11989 -0.06408,0.03 -0.135393,0.0455 -0.214974,0.0455 z m -34.373094,2.66754 v -1.67432 h 0.694532 c 0.09302,0 0.174666,0.0186 0.243912,0.0537 0.06821,0.0362 0.121957,0.0858 0.161231,0.14883 0.03824,0.0641 0.05788,0.13539 0.05788,0.21498 0,0.0889 -0.02274,0.16743 -0.06614,0.23564 -0.04444,0.0662 -0.106454,0.11472 -0.186035,0.14469 l -0.0041,-0.0413 c 0.06615,0.0227 0.121957,0.0558 0.169499,0.0992 0.04961,0.0413 0.08682,0.0909 0.111621,0.14883 0.02687,0.0579 0.04134,0.11989 0.04134,0.18603 0,0.14883 -0.04754,0.26769 -0.14056,0.35554 -0.09405,0.0858 -0.223242,0.12816 -0.388606,0.12816 z m 0.161231,-0.14883 h 0.529167 c 0.112654,0 0.202571,-0.0289 0.268717,-0.0868 0.06615,-0.0599 0.09922,-0.14159 0.09922,-0.24391 0,-0.10129 -0.03307,-0.1819 -0.09922,-0.23978 -0.06615,-0.0599 -0.152962,-0.0909 -0.260449,-0.0909 h -0.537435 z m 0,-0.81029 h 0.520898 c 0.09302,0 0.167432,-0.0258 0.223243,-0.0785 0.05788,-0.0548 0.08682,-0.12505 0.08682,-0.21084 0,-0.0879 -0.02894,-0.15503 -0.08682,-0.20257 -0.05581,-0.0496 -0.130225,-0.0744 -0.223243,-0.0744 h -0.520898 z m 1.373559,0.95912 v -1.1989 h 0.148829 v 1.1989 z m 0,-1.42627 v -0.24805 h 0.148829 v 0.24805 z m 1.067635,1.4552 c -0.113688,0 -0.217041,-0.0279 -0.310058,-0.0827 -0.09095,-0.0548 -0.164331,-0.12919 -0.219108,-0.22324 -0.05271,-0.0961 -0.07855,-0.2036 -0.07855,-0.32246 0,-0.12092 0.02584,-0.22841 0.07855,-0.32246 0.05478,-0.093 0.128157,-0.1664 0.219108,-0.21911 0.09095,-0.0548 0.194303,-0.0827 0.310058,-0.0827 0.115756,0 0.219109,0.0279 0.310059,0.0827 0.09095,0.0527 0.162264,0.12609 0.214974,0.21911 0.05478,0.094 0.08268,0.20154 0.08268,0.32246 0,0.12196 -0.02791,0.22944 -0.08268,0.32246 -0.05581,0.094 -0.128158,0.16847 -0.219108,0.22324 -0.09095,0.0548 -0.19327,0.0827 -0.305925,0.0827 z m 0,-0.15296 c 0.08268,0 0.157097,-0.0207 0.223243,-0.062 0.06821,-0.0413 0.121956,-0.0971 0.16123,-0.1695 0.04134,-0.0744 0.06201,-0.15503 0.06201,-0.24391 0,-0.091 -0.02067,-0.17157 -0.06201,-0.24391 -0.03927,-0.0713 -0.09302,-0.12816 -0.16123,-0.1695 -0.06615,-0.0434 -0.14056,-0.0661 -0.223243,-0.0661 -0.08268,0 -0.159163,0.0227 -0.227376,0.0661 -0.06615,0.0413 -0.119889,0.0982 -0.16123,0.1695 -0.03927,0.0723 -0.05788,0.15296 -0.05788,0.24391 0,0.0889 0.0186,0.1695 0.05788,0.24391 0.04134,0.0724 0.09508,0.12816 0.16123,0.1695 0.06821,0.0413 0.144694,0.062 0.227376,0.062 z m 0.918808,0.12403 v -1.1989 h 0.148828 v 0.23565 l -0.0248,-0.0372 c 0.02997,-0.0682 0.07855,-0.12196 0.144694,-0.16123 0.06615,-0.0413 0.138493,-0.062 0.219108,-0.062 0.09302,0 0.177767,0.0269 0.252181,0.0785 0.07648,0.0527 0.130225,0.12195 0.16123,0.2067 l -0.04548,0.004 c 0.02687,-0.093 0.07855,-0.16537 0.152962,-0.21498 0.07648,-0.0496 0.161231,-0.0744 0.252181,-0.0744 0.07958,0 0.152963,0.0196 0.219108,0.0579 0.06821,0.0362 0.124024,0.0889 0.165365,0.15709 0.04134,0.0662 0.06201,0.14263 0.06201,0.22738 v 0.78135 h -0.152962 v -0.72761 c 0,-0.0744 -0.01447,-0.13642 -0.04134,-0.18603 -0.0279,-0.0517 -0.06511,-0.092 -0.111621,-0.11989 -0.04754,-0.03 -0.09922,-0.0455 -0.157096,-0.0455 -0.06098,0 -0.115755,0.0155 -0.165365,0.0455 -0.04754,0.031 -0.08475,0.0734 -0.111621,0.12816 -0.0279,0.0527 -0.04134,0.11472 -0.04134,0.18603 v 0.71934 H 66.69091 v -0.72761 c 0,-0.0744 -0.01447,-0.13642 -0.04134,-0.18603 -0.0279,-0.0517 -0.06511,-0.092 -0.111621,-0.11989 -0.04754,-0.03 -0.101286,-0.0455 -0.161231,-0.0455 -0.06098,0 -0.114722,0.0155 -0.16123,0.0455 -0.04754,0.031 -0.08475,0.0734 -0.111621,0.12816 -0.02791,0.0527 -0.04134,0.11472 -0.04134,0.18603 v 0.71934 z m 2.587955,0.0289 c -0.113688,0 -0.214974,-0.0279 -0.305924,-0.0827 -0.08888,-0.0548 -0.159164,-0.12919 -0.21084,-0.22324 -0.05271,-0.0961 -0.07855,-0.20464 -0.07855,-0.3266 0,-0.11782 0.0248,-0.22427 0.07442,-0.31832 0.05168,-0.093 0.120922,-0.1664 0.206705,-0.21911 0.08785,-0.0548 0.186035,-0.0827 0.293522,-0.0827 0.08475,0 0.161231,0.0155 0.227377,0.0455 0.06821,0.031 0.12609,0.0734 0.173632,0.12816 0.04961,0.0527 0.08682,0.11369 0.111621,0.1819 0.02687,0.0661 0.04134,0.13643 0.04134,0.21084 0,0.0165 -0.0021,0.0331 -0.0041,0.0496 0,0.0165 -0.0021,0.0351 -0.0041,0.0537 h -1.029395 v -0.14056 h 0.942579 l -0.07028,0.0579 c 0.01034,-0.0827 -0.0021,-0.15813 -0.03721,-0.22737 -0.03307,-0.0682 -0.08061,-0.12196 -0.140559,-0.16124 -0.06098,-0.0413 -0.131259,-0.062 -0.21084,-0.062 -0.07752,0 -0.148829,0.0207 -0.214974,0.062 -0.06615,0.0413 -0.118856,0.0982 -0.157097,0.1695 -0.03617,0.0724 -0.05168,0.1571 -0.04547,0.25632 -0.0062,0.0971 0.01034,0.1819 0.04961,0.25631 0.04134,0.0724 0.09508,0.12816 0.16123,0.1695 0.06821,0.0393 0.144694,0.0579 0.227376,0.0579 0.08785,0 0.162264,-0.0207 0.223243,-0.062 0.06304,-0.0413 0.113688,-0.0951 0.152962,-0.16123 l 0.128157,0.0703 c -0.0248,0.0558 -0.06201,0.10542 -0.111621,0.14883 -0.04961,0.0444 -0.107487,0.0806 -0.173633,0.10748 -0.06615,0.0269 -0.139526,0.0413 -0.219108,0.0413 z m 1.384928,0 c -0.113688,0 -0.214974,-0.0279 -0.305924,-0.0827 -0.08888,-0.0548 -0.159164,-0.12919 -0.21084,-0.22324 -0.04961,-0.0961 -0.07441,-0.20361 -0.07441,-0.32246 0,-0.12092 0.0248,-0.22841 0.07441,-0.32246 0.05168,-0.093 0.121956,-0.1664 0.21084,-0.21911 0.08785,-0.0548 0.190169,-0.0827 0.305924,-0.0827 0.104387,0 0.198438,0.0238 0.28112,0.0703 0.08268,0.0475 0.146761,0.11162 0.194304,0.1943 l -0.0248,0.0455 v -0.78962 h 0.148828 v 1.70326 h -0.148828 v -0.28526 l 0.0248,0.0248 c -0.04134,0.0909 -0.10542,0.16329 -0.19017,0.21497 -0.08578,0.0496 -0.180867,0.0744 -0.285254,0.0744 z m 0.0041,-0.15296 c 0.08268,0 0.157096,-0.0207 0.223242,-0.062 0.06821,-0.0413 0.121956,-0.0971 0.16123,-0.1695 0.03824,-0.0744 0.05788,-0.15503 0.05788,-0.24391 0,-0.091 -0.01964,-0.17157 -0.05788,-0.24391 -0.03927,-0.0713 -0.09302,-0.12816 -0.16123,-0.1695 -0.06615,-0.0413 -0.14056,-0.062 -0.223242,-0.062 -0.08268,0 -0.157096,0.0207 -0.223242,0.062 -0.06615,0.0413 -0.118856,0.0982 -0.157097,0.1695 -0.03617,0.0723 -0.05374,0.15296 -0.05374,0.24391 0,0.0889 0.01757,0.1695 0.05374,0.24391 0.03824,0.0724 0.09095,0.12816 0.157097,0.1695 0.06615,0.0413 0.140559,0.062 0.223242,0.062 z m 0.957047,0.12403 v -1.1989 h 0.148828 v 1.1989 z m 0,-1.42627 v -0.24805 h 0.148828 v 0.24805 z m 1.056266,1.4552 c -0.115755,0 -0.219107,-0.0279 -0.310058,-0.0827 -0.08888,-0.0548 -0.159164,-0.12919 -0.21084,-0.22324 -0.04961,-0.0961 -0.07441,-0.20361 -0.07441,-0.32246 0,-0.12092 0.0248,-0.22841 0.07441,-0.32246 0.05168,-0.093 0.121956,-0.1664 0.21084,-0.21911 0.09095,-0.0548 0.194303,-0.0827 0.310058,-0.0827 0.07442,0 0.142627,0.0145 0.206706,0.0413 0.06615,0.0248 0.124023,0.0599 0.173633,0.10335 0.05168,0.0444 0.09095,0.0951 0.115755,0.15296 l -0.136425,0.0703 c -0.03307,-0.0661 -0.08165,-0.11989 -0.144695,-0.16123 -0.06098,-0.0413 -0.132291,-0.062 -0.214974,-0.062 -0.08268,0 -0.157096,0.0207 -0.223242,0.062 -0.06614,0.0413 -0.118855,0.0982 -0.157096,0.1695 -0.03927,0.0724 -0.05788,0.15503 -0.05788,0.24805 0,0.0909 0.0186,0.1726 0.05788,0.24391 0.03824,0.0724 0.09095,0.12816 0.157096,0.1695 0.06615,0.0413 0.14056,0.062 0.223242,0.062 0.08268,0 0.153996,-0.0186 0.214974,-0.0579 0.06305,-0.0413 0.111622,-0.0961 0.144695,-0.16536 l 0.136425,0.0744 c -0.0248,0.0558 -0.06408,0.10646 -0.115755,0.15297 -0.04961,0.0444 -0.107487,0.0806 -0.173633,0.10748 -0.06408,0.0269 -0.132291,0.0413 -0.206706,0.0413 z m 1.12758,0 c -0.07441,0 -0.142627,-0.0145 -0.202571,-0.0413 -0.05788,-0.03 -0.10542,-0.0703 -0.14056,-0.11989 -0.03307,-0.0517 -0.04961,-0.11162 -0.04961,-0.17776 0,-0.06 0.0124,-0.11576 0.03721,-0.16537 0.02687,-0.0517 0.06821,-0.0961 0.124024,-0.13229 0.05788,-0.0382 0.132291,-0.0641 0.223242,-0.0785 l 0.475423,-0.0827 v 0.14056 l -0.438216,0.0744 c -0.09405,0.0165 -0.161231,0.0476 -0.202572,0.0909 -0.04134,0.0414 -0.06201,0.0899 -0.06201,0.1447 0,0.061 0.0217,0.11059 0.06615,0.14883 0.04651,0.0393 0.105419,0.0579 0.177766,0.0579 0.08475,0 0.159164,-0.0176 0.223242,-0.0537 0.06305,-0.0382 0.111622,-0.0889 0.144695,-0.15296 0.03514,-0.063 0.05374,-0.13229 0.05374,-0.20671 V 111.517 c 0,-0.0744 -0.02791,-0.13436 -0.08268,-0.1819 -0.05271,-0.0496 -0.12299,-0.0744 -0.21084,-0.0744 -0.07441,0 -0.14056,0.0196 -0.198438,0.0579 -0.05788,0.0362 -0.101285,0.0847 -0.128157,0.1447 l -0.14056,-0.0744 c 0.0217,-0.0496 0.05581,-0.0951 0.103353,-0.13642 0.04961,-0.0413 0.104386,-0.0724 0.165364,-0.0951 0.06305,-0.0248 0.129191,-0.0372 0.198438,-0.0372 0.08475,0 0.16123,0.0165 0.227376,0.0496 0.06821,0.0331 0.121957,0.0806 0.161231,0.14056 0.03824,0.061 0.05788,0.13022 0.05788,0.2067 v 0.82683 H 73.46153 v -0.24392 l 0.0248,0.0165 c -0.02274,0.0475 -0.05581,0.0899 -0.09922,0.12815 -0.04444,0.0393 -0.09715,0.0703 -0.157097,0.0951 -0.06098,0.0217 -0.127123,0.0331 -0.198437,0.0331 z m 1.353923,0 c -0.113689,0 -0.212907,-0.0289 -0.297657,-0.0868 -0.08578,-0.0579 -0.147794,-0.13436 -0.186035,-0.23151 l 0.128158,-0.062 c 0.03514,0.0744 0.08372,0.13435 0.144694,0.17776 0.06305,0.0413 0.133325,0.062 0.21084,0.062 0.07441,0 0.136425,-0.0176 0.186035,-0.0537 0.05168,-0.0382 0.07855,-0.0879 0.07855,-0.14883 0,-0.0382 -0.01137,-0.0703 -0.03307,-0.0951 -0.02274,-0.0269 -0.04961,-0.0475 -0.08268,-0.062 -0.03101,-0.0165 -0.05994,-0.0289 -0.08682,-0.0372 l -0.181901,-0.0496 c -0.10542,-0.03 -0.181901,-0.0724 -0.23151,-0.12816 -0.04961,-0.0579 -0.07441,-0.12402 -0.07441,-0.19844 0,-0.0682 0.01654,-0.12815 0.04961,-0.17776 0.03514,-0.0517 0.08372,-0.092 0.144694,-0.11989 0.05994,-0.0269 0.126091,-0.0413 0.198438,-0.0413 0.09922,0 0.190169,0.0269 0.272851,0.0785 0.08268,0.0496 0.14056,0.11988 0.173633,0.21084 l -0.132292,0.062 c -0.03101,-0.0682 -0.07441,-0.12093 -0.132291,-0.1571 -0.05581,-0.0382 -0.117822,-0.0579 -0.186036,-0.0579 -0.06925,0 -0.12609,0.0186 -0.169498,0.0537 -0.04134,0.0362 -0.06201,0.0816 -0.06201,0.13642 0,0.0393 0.0093,0.0703 0.02894,0.0951 0.0186,0.0248 0.04237,0.0444 0.07028,0.0579 0.02997,0.0145 0.05788,0.0248 0.08268,0.0331 l 0.198438,0.0579 c 0.09922,0.0279 0.174667,0.0723 0.227376,0.13229 0.05478,0.0579 0.08268,0.12712 0.08268,0.2067 0,0.0662 -0.0186,0.12609 -0.05374,0.17777 -0.03617,0.0496 -0.08682,0.0899 -0.152962,0.11989 -0.06408,0.03 -0.135392,0.0455 -0.214974,0.0455 z m 0,0"
         style="fill:#000000;fill-opacity:1;fill-rule:nonzero;stroke:none;stroke-width:0.352778"
         aria-label="Centro De Consultora Cientca &#10;Y Meta-investigacin En Ciencias &#10;Biomedicas " />
      <path
         id="path19"
         d="m 64.757111,103.41724 c -0.328662,0 -0.63252,-0.06 -0.913639,-0.17777 -0.279053,-0.11782 -0.522966,-0.28319 -0.731739,-0.49609 -0.206705,-0.21188 -0.367936,-0.45992 -0.483691,-0.74414 -0.115755,-0.28629 -0.173633,-0.59945 -0.173633,-0.93845 0,-0.339 0.05581,-0.65112 0.169499,-0.93844 0.115755,-0.28939 0.276986,-0.538471 0.483691,-0.748277 0.208773,-0.208773 0.452686,-0.372071 0.731739,-0.487826 0.281119,-0.115755 0.587044,-0.173632 0.917773,-0.173632 0.327628,0 0.622184,0.05581 0.8847,0.165364 0.264584,0.110588 0.488859,0.258382 0.673861,0.44235 0.183968,0.181901 0.315226,0.384473 0.392741,0.607715 l -0.839225,0.405146 c -0.07751,-0.22014 -0.213941,-0.402045 -0.409278,-0.545706 -0.193269,-0.145727 -0.42788,-0.219108 -0.702799,-0.219108 -0.270785,0 -0.507463,0.06408 -0.711068,0.19017 -0.204638,0.127124 -0.362768,0.301794 -0.475423,0.525034 -0.110587,0.22117 -0.165364,0.47956 -0.165364,0.77721 0,0.29766 0.05478,0.56017 0.165364,0.78548 0.112655,0.22325 0.270785,0.39895 0.475423,0.52504 0.203605,0.12712 0.440283,0.19017 0.711068,0.19017 0.274919,0 0.50953,-0.0724 0.702799,-0.21911 0.195337,-0.14573 0.331763,-0.32763 0.409278,-0.54571 l 0.839225,0.40101 c -0.07751,0.22635 -0.208773,0.43202 -0.392741,0.61599 -0.185002,0.1819 -0.409277,0.32866 -0.673861,0.43821 -0.262516,0.10956 -0.557072,0.16537 -0.8847,0.16537 z m 2.555916,-0.0744 v -4.559925 h 3.063379 v 0.826823 h -2.116667 v 1.033532 h 1.996778 v 0.82682 h -1.996778 v 1.04593 h 2.116667 v 0.82682 z m 5.769157,0.0744 c -0.328662,0 -0.63252,-0.06 -0.91364,-0.17777 -0.279052,-0.11782 -0.522965,-0.28319 -0.731738,-0.49609 -0.206706,-0.21188 -0.367936,-0.45992 -0.483691,-0.74414 -0.115755,-0.28629 -0.173633,-0.59945 -0.173633,-0.93845 0,-0.339 0.05581,-0.65112 0.169499,-0.93844 0.115755,-0.28939 0.276985,-0.538471 0.483691,-0.748277 0.208773,-0.208773 0.452686,-0.372071 0.731738,-0.487826 0.28112,-0.115755 0.587045,-0.173632 0.917774,-0.173632 0.327628,0 0.622184,0.05581 0.8847,0.165364 0.264584,0.110588 0.488859,0.258382 0.673861,0.44235 0.183968,0.181901 0.315226,0.384473 0.392741,0.607715 l -0.839225,0.405146 c -0.07751,-0.22014 -0.213941,-0.402045 -0.409278,-0.545706 -0.19327,-0.145727 -0.427881,-0.219108 -0.702799,-0.219108 -0.270785,0 -0.507463,0.06408 -0.711068,0.19017 -0.204639,0.127124 -0.362768,0.301794 -0.475423,0.525034 -0.110588,0.22117 -0.165365,0.47956 -0.165365,0.77721 0,0.29766 0.05478,0.56017 0.165365,0.78548 0.112655,0.22325 0.270784,0.39895 0.475423,0.52504 0.203605,0.12712 0.440283,0.19017 0.711068,0.19017 0.274918,0 0.509529,-0.0724 0.702799,-0.21911 0.195337,-0.14573 0.331763,-0.32763 0.409278,-0.54571 l 0.839225,0.40101 c -0.07751,0.22635 -0.208773,0.43202 -0.392741,0.61599 -0.185002,0.1819 -0.409277,0.32866 -0.673861,0.43821 -0.262516,0.10956 -0.557072,0.16537 -0.8847,0.16537 z m 2.555916,-0.0744 v -4.559925 h 0.946712 v 4.559925 z m 1.754932,0 v -4.559925 h 0.917773 l 1.707389,2.265495 h -0.429948 l 1.65778,-2.265495 h 0.917773 v 4.559925 h -0.946712 v -3.513994 l 0.376205,0.08682 -1.752865,2.265494 h -0.124023 l -1.694987,-2.265494 0.318327,-0.08682 v 3.513994 z m 5.578987,0 v -4.559925 h 0.946712 v 4.559925 z m 1.754931,0 v -4.559925 h 1.926498 c 0.314192,0 0.58291,0.05374 0.806152,0.16123 0.225309,0.10542 0.396875,0.256315 0.51263,0.454752 0.117822,0.198438 0.177767,0.438217 0.177767,0.719333 0,0.20154 -0.05581,0.39274 -0.165365,0.57465 -0.107486,0.17983 -0.288354,0.33072 -0.541568,0.45475 v -0.46716 c 0.239778,0.0941 0.423746,0.20671 0.553971,0.339 0.132291,0.13023 0.221175,0.27182 0.268717,0.42581 0.04961,0.15193 0.07441,0.31213 0.07441,0.47956 0,0.44649 -0.148828,0.79582 -0.446484,1.04593 -0.297656,0.24805 -0.711068,0.37207 -1.240234,0.37207 z m 0.946713,-0.82682 h 1.091406 c 0.190169,0 0.341064,-0.0548 0.454752,-0.16536 0.115755,-0.10956 0.173633,-0.25219 0.173633,-0.42582 0,-0.1788 -0.05788,-0.32349 -0.173633,-0.43408 -0.113688,-0.10955 -0.264583,-0.16537 -0.454752,-0.16537 h -1.091406 z m 0,-2.01745 h 1.045931 c 0.145727,0 0.262516,-0.0413 0.351399,-0.12402 0.08785,-0.0847 0.132292,-0.19637 0.132292,-0.33486 0,-0.140565 -0.04444,-0.252186 -0.132292,-0.334868 -0.08888,-0.08268 -0.205672,-0.124023 -0.351399,-0.124023 h -1.045931 z m 0,0"
         style="fill:#000000;fill-opacity:1;fill-rule:nonzero;stroke:none;stroke-width:0.352778"
         aria-label="CECIMIB" />
      <path
         id="path20"
         d="m 0,0 c -5.901,-7.757 -7.97,-15.016 -7.97,-15.016 h 34.401 v 2.964 c 0,0 -13.456,2.734 -26.431,12.052"
         style="fill:#1b5aab;fill-opacity:1;fill-rule:nonzero;stroke:none"
         transform="matrix(0.35277776,0,0,-0.35277776,50.86029,107.36156)"
         clip-path="url(#clipPath21)" />
      <path
         id="path22"
         d="m 0,0 c -1.385,-1.542 -2.789,-3.251 -4.193,-5.153 -1.33,1.2 -2.65,2.484 -3.943,3.851 V 7.951 C -5.596,4.793 -2.835,2.17 0,0"
         style="fill:#1b5aab;fill-opacity:1;fill-rule:nonzero;stroke:none"
         transform="matrix(0.35277776,0,0,-0.35277776,50.495411,102.93399)"
         clip-path="url(#clipPath23)" />
      <path
         id="path24"
         d="m 0,0 c 0,0 -7.259,-2.567 -15.672,-11.405 -3.232,2.438 -6.446,5.476 -9.401,9.253 V 0 Z"
         style="fill:#1b5aab;fill-opacity:1;fill-rule:nonzero;stroke:none"
         transform="matrix(0.35277776,0,0,-0.35277776,56.470478,98.424993)"
         clip-path="url(#clipPath25)" />
      <path
         id="path26"
         d="m 0,0 v -5.458 c 0,0 -10.057,-1.699 -20.114,-9.882 -1.385,0.767 -2.789,1.617 -4.193,2.577 4.978,4.932 11.904,9.799 21.315,12.763 z"
         style="fill:#1b5aab;fill-opacity:1;fill-rule:nonzero;stroke:none"
         transform="matrix(0.35277776,0,0,-0.35277776,60.184558,98.424993)"
         clip-path="url(#clipPath27)" />
      <path
         id="path28"
         d="M 0,0 C -0.85,-1.228 -1.699,-2.54 -2.54,-3.925 V 2.549 C -1.709,1.662 -0.868,0.822 0,0"
         style="fill:#1b5aab;fill-opacity:1;fill-rule:nonzero;stroke:none"
         transform="matrix(0.35277776,0,0,-0.35277776,48.52109,105.44259)"
         clip-path="url(#clipPath29)" />
      <path
         id="path30"
         d="m 0,0 v -13.225 c 0,0 -8.118,0.157 -17.787,4.84 C -13.123,-4.738 -7.268,-1.644 0,0"
         style="fill:#1b5aab;fill-opacity:1;fill-rule:nonzero;stroke:none"
         transform="matrix(0.35277776,0,0,-0.35277776,60.184558,101.29851)"
         clip-path="url(#clipPath31)" />
      <path
         id="path32"
         d="m 0,0 c -1.755,-1.533 -3.5,-3.288 -5.172,-5.282 -1.052,0.785 -2.105,1.625 -3.158,2.511 1.2,1.691 2.641,3.482 4.34,5.283 C -2.66,1.579 -1.321,0.748 0,0"
         style="fill:#1b5aab;fill-opacity:1;fill-rule:nonzero;stroke:none"
         transform="matrix(0.35277776,0,0,-0.35277776,52.551152,104.29257)"
         clip-path="url(#clipPath33)" />
      <path
         id="path34"
         d="m 0,0 v -11.258 c 0,0 -12.061,2.318 -24.833,11.249 1.57,1.865 3.389,3.74 5.458,5.513 C -9.106,0.351 0,0 0,0"
         style="fill:#1b5aab;fill-opacity:1;fill-rule:nonzero;stroke:none"
         transform="matrix(0.35277776,0,0,-0.35277776,60.184558,106.6578)"
         clip-path="url(#clipPath35)" />
      <path
         id="path36"
         d="m 0,0 c -2.734,-3.602 -5.227,-7.896 -7.213,-12.994 v 7.241 c 0,0 1.173,3.5 4.239,8.2 C -1.995,1.588 -0.997,0.776 0,0"
         style="fill:#1b5aab;fill-opacity:1;fill-rule:nonzero;stroke:none"
         transform="matrix(0.35277776,0,0,-0.35277776,50.169585,106.85003)"
         clip-path="url(#clipPath37)" />
    </g>
  </g>
</svg>
