<?xml version="1.0" encoding="UTF-8" standalone="no"?>
<!-- Created with Inkscape (http://www.inkscape.org/) -->

<svg
   width="208.20494mm"
   height="60.310303mm"
   viewBox="0 0 208.20494 60.310303"
   version="1.1"
   id="svg1"
   inkscape:version="1.4.1-rc (06eac75fbf, 2025-03-29)"
   sodipodi:docname="logo_blanco.svg"
   xmlns:inkscape="http://www.inkscape.org/namespaces/inkscape"
   xmlns:sodipodi="http://sodipodi.sourceforge.net/DTD/sodipodi-0.dtd"
   xmlns="http://www.w3.org/2000/svg"
   xmlns:svg="http://www.w3.org/2000/svg">
  <sodipodi:namedview
     id="namedview1"
     pagecolor="#505050"
     bordercolor="#eeeeee"
     borderopacity="1"
     inkscape:showpageshadow="0"
     inkscape:pageopacity="0"
     inkscape:pagecheckerboard="0"
     inkscape:deskcolor="#505050"
     inkscape:document-units="mm"
     inkscape:zoom="0.63763499"
     inkscape:cx="280.72487"
     inkscape:cy="21.171988"
     inkscape:window-width="1920"
     inkscape:window-height="1011"
     inkscape:window-x="0"
     inkscape:window-y="0"
     inkscape:window-maximized="1"
     inkscape:current-layer="layer1" />
  <defs
     id="defs1">
    <clipPath
       clipPathUnits="userSpaceOnUse"
       id="clipPath21">
      <path
         d="M 0,841.89 H 595.276 V 0 H 0 Z"
         transform="translate(-334.66701,-214.38211)"
         id="path21" />
    </clipPath>
    <clipPath
       clipPathUnits="userSpaceOnUse"
       id="clipPath23">
      <path
         d="M 0,841.89 H 595.276 V 0 H 0 Z"
         transform="translate(-333.63271,-226.9327)"
         id="path23" />
    </clipPath>
    <clipPath
       clipPathUnits="userSpaceOnUse"
       id="clipPath25">
      <path
         d="M 0,841.89 H 595.276 V 0 H 0 Z"
         transform="translate(-350.56991,-239.71411)"
         id="path25" />
    </clipPath>
    <clipPath
       clipPathUnits="userSpaceOnUse"
       id="clipPath27">
      <path
         d="M 0,841.89 H 595.276 V 0 H 0 Z"
         transform="translate(-361.09801,-239.71411)"
         id="path27" />
    </clipPath>
    <clipPath
       clipPathUnits="userSpaceOnUse"
       id="clipPath29">
      <path
         d="M 0,841.89 H 595.276 V 0 H 0 Z"
         transform="translate(-328.03621,-219.82171)"
         id="path29" />
    </clipPath>
    <clipPath
       clipPathUnits="userSpaceOnUse"
       id="clipPath31">
      <path
         d="M 0,841.89 H 595.276 V 0 H 0 Z"
         transform="translate(-361.09801,-231.56871)"
         id="path31" />
    </clipPath>
    <clipPath
       clipPathUnits="userSpaceOnUse"
       id="clipPath33">
      <path
         d="M 0,841.89 H 595.276 V 0 H 0 Z"
         transform="translate(-339.46001,-223.0816)"
         id="path33" />
    </clipPath>
    <clipPath
       clipPathUnits="userSpaceOnUse"
       id="clipPath35">
      <path
         d="M 0,841.89 H 595.276 V 0 H 0 Z"
         transform="translate(-361.09801,-216.37701)"
         id="path35" />
    </clipPath>
    <clipPath
       clipPathUnits="userSpaceOnUse"
       id="clipPath37">
      <path
         d="M 0,841.89 H 595.276 V 0 H 0 Z"
         transform="translate(-332.70911,-215.8321)"
         id="path37" />
    </clipPath>
    <clipPath
       clipPathUnits="userSpaceOnUse"
       id="clipPath39">
      <path
         d="M 0,841.89 H 595.276 V 0 H 0 Z"
         transform="translate(-171.8677,-215.4688)"
         id="path39" />
    </clipPath>
    <clipPath
       clipPathUnits="userSpaceOnUse"
       id="clipPath41">
      <path
         d="M 0,841.89 H 595.276 V 0 H 0 Z"
         transform="translate(-176.12301,-215.4688)"
         id="path41" />
    </clipPath>
    <clipPath
       clipPathUnits="userSpaceOnUse"
       id="clipPath43">
      <path
         d="M 0,841.89 H 595.276 V 0 H 0 Z"
         transform="translate(-178.5049,-215.545)"
         id="path43" />
    </clipPath>
    <clipPath
       clipPathUnits="userSpaceOnUse"
       id="clipPath45">
      <path
         d="M 0,841.89 H 595.276 V 0 H 0 Z"
         transform="translate(-183.4155,-215.5069)"
         id="path45" />
    </clipPath>
    <clipPath
       clipPathUnits="userSpaceOnUse"
       id="clipPath47">
      <path
         d="M 0,841.89 H 595.276 V 0 H 0 Z"
         transform="translate(-184.6069,-215.545)"
         id="path47" />
    </clipPath>
    <clipPath
       clipPathUnits="userSpaceOnUse"
       id="clipPath49">
      <path
         d="M 0,841.89 H 595.276 V 0 H 0 Z"
         transform="translate(-188.3521,-215.89561)"
         id="path49" />
    </clipPath>
    <clipPath
       clipPathUnits="userSpaceOnUse"
       id="clipPath51">
      <path
         d="M 0,841.89 H 595.276 V 0 H 0 Z"
         transform="translate(-192.5425,-215.97171)"
         id="path51" />
    </clipPath>
    <clipPath
       clipPathUnits="userSpaceOnUse"
       id="clipPath53">
      <path
         d="M 0,841.89 H 595.276 V 0 H 0 Z"
         transform="translate(-198.3013,-215.4688)"
         id="path53" />
    </clipPath>
    <clipPath
       clipPathUnits="userSpaceOnUse"
       id="clipPath55">
      <path
         d="M 0,841.89 H 595.276 V 0 H 0 Z"
         transform="translate(-203.9692,-215.4688)"
         id="path55" />
    </clipPath>
    <clipPath
       clipPathUnits="userSpaceOnUse"
       id="clipPath57">
      <path
         d="M 0,841.89 H 595.276 V 0 H 0 Z"
         transform="translate(-208.25631,-215.89561)"
         id="path57" />
    </clipPath>
    <clipPath
       clipPathUnits="userSpaceOnUse"
       id="clipPath59">
      <path
         d="M 0,841.89 H 595.276 V 0 H 0 Z"
         transform="translate(-210.85501,-215.545)"
         id="path59" />
    </clipPath>
    <clipPath
       clipPathUnits="userSpaceOnUse"
       id="clipPath61">
      <path
         d="M 0,841.89 H 595.276 V 0 H 0 Z"
         transform="translate(-215.65771,-215.4688)"
         id="path61" />
    </clipPath>
    <clipPath
       clipPathUnits="userSpaceOnUse"
       id="clipPath63">
      <path
         d="M 0,841.89 H 595.276 V 0 H 0 Z"
         transform="translate(-218.938,-215.4688)"
         id="path63" />
    </clipPath>
    <clipPath
       clipPathUnits="userSpaceOnUse"
       id="clipPath65">
      <path
         d="M 0,841.89 H 595.276 V 0 H 0 Z"
         id="path65" />
    </clipPath>
    <clipPath
       clipPathUnits="userSpaceOnUse"
       id="clipPath67">
      <path
         d="M 0,841.89 H 595.276 V 0 H 0 Z"
         transform="translate(-224.09131,-215.5069)"
         id="path67" />
    </clipPath>
    <clipPath
       clipPathUnits="userSpaceOnUse"
       id="clipPath69">
      <path
         d="M 0,841.89 H 595.276 V 0 H 0 Z"
         transform="translate(-226.7407,-215.89561)"
         id="path69" />
    </clipPath>
    <clipPath
       clipPathUnits="userSpaceOnUse"
       id="clipPath71">
      <path
         d="M 0,841.89 H 595.276 V 0 H 0 Z"
         transform="translate(-229.33941,-215.545)"
         id="path71" />
    </clipPath>
    <clipPath
       clipPathUnits="userSpaceOnUse"
       id="clipPath73">
      <path
         d="M 0,841.89 H 595.276 V 0 H 0 Z"
         id="path73" />
    </clipPath>
    <clipPath
       clipPathUnits="userSpaceOnUse"
       id="clipPath75">
      <path
         d="M 0,841.89 H 595.276 V 0 H 0 Z"
         transform="translate(-233.71531,-215.4688)"
         id="path75" />
    </clipPath>
    <clipPath
       clipPathUnits="userSpaceOnUse"
       id="clipPath77">
      <path
         d="M 0,841.89 H 595.276 V 0 H 0 Z"
         transform="translate(-239.67631,-215.4688)"
         id="path77" />
    </clipPath>
    <clipPath
       clipPathUnits="userSpaceOnUse"
       id="clipPath79">
      <path
         d="M 0,841.89 H 595.276 V 0 H 0 Z"
         id="path79" />
    </clipPath>
    <clipPath
       clipPathUnits="userSpaceOnUse"
       id="clipPath81">
      <path
         d="M 0,841.89 H 595.276 V 0 H 0 Z"
         transform="translate(-245.4409,-215.4688)"
         id="path81" />
    </clipPath>
    <clipPath
       clipPathUnits="userSpaceOnUse"
       id="clipPath83">
      <path
         d="M 0,841.89 H 595.276 V 0 H 0 Z"
         transform="translate(-247.82371,-215.545)"
         id="path83" />
    </clipPath>
    <clipPath
       clipPathUnits="userSpaceOnUse"
       id="clipPath85">
      <path
         d="M 0,841.89 H 595.276 V 0 H 0 Z"
         transform="translate(-252.7339,-215.5069)"
         id="path85" />
    </clipPath>
    <clipPath
       clipPathUnits="userSpaceOnUse"
       id="clipPath87">
      <path
         d="M 0,841.89 H 595.276 V 0 H 0 Z"
         id="path87" />
    </clipPath>
    <clipPath
       clipPathUnits="userSpaceOnUse"
       id="clipPath89">
      <path
         d="M 0,841.89 H 595.276 V 0 H 0 Z"
         id="path89" />
    </clipPath>
    <clipPath
       clipPathUnits="userSpaceOnUse"
       id="clipPath91">
      <path
         d="M 0,841.89 H 595.276 V 0 H 0 Z"
         transform="translate(-260.39601,-215.4688)"
         id="path91" />
    </clipPath>
    <clipPath
       clipPathUnits="userSpaceOnUse"
       id="clipPath93">
      <path
         d="M 0,841.89 H 595.276 V 0 H 0 Z"
         transform="translate(-263.58741,-215.4688)"
         id="path93" />
    </clipPath>
    <clipPath
       clipPathUnits="userSpaceOnUse"
       id="clipPath95">
      <path
         d="M 0,841.89 H 595.276 V 0 H 0 Z"
         transform="translate(-170.89311,-207.90141)"
         id="path95" />
    </clipPath>
    <clipPath
       clipPathUnits="userSpaceOnUse"
       id="clipPath97">
      <path
         d="M 0,841.89 H 595.276 V 0 H 0 Z"
         transform="translate(-174.74661,-207.90141)"
         id="path97" />
    </clipPath>
    <clipPath
       clipPathUnits="userSpaceOnUse"
       id="clipPath99">
      <path
         d="M 0,841.89 H 595.276 V 0 H 0 Z"
         transform="translate(-181.52391,-207.82531)"
         id="path99" />
    </clipPath>
    <clipPath
       clipPathUnits="userSpaceOnUse"
       id="clipPath101">
      <path
         d="M 0,841.89 H 595.276 V 0 H 0 Z"
         transform="translate(-185.1733,-207.86331)"
         id="path101" />
    </clipPath>
    <clipPath
       clipPathUnits="userSpaceOnUse"
       id="clipPath103">
      <path
         d="M 0,841.89 H 595.276 V 0 H 0 Z"
         transform="translate(-187.25631,-207.82531)"
         id="path103" />
    </clipPath>
    <clipPath
       clipPathUnits="userSpaceOnUse"
       id="clipPath105">
      <path
         d="M 0,841.89 H 595.276 V 0 H 0 Z"
         id="path105" />
    </clipPath>
    <clipPath
       clipPathUnits="userSpaceOnUse"
       id="clipPath107">
      <path
         d="M 0,841.89 H 595.276 V 0 H 0 Z"
         id="path107" />
    </clipPath>
    <clipPath
       clipPathUnits="userSpaceOnUse"
       id="clipPath109">
      <path
         d="M 0,841.89 H 595.276 V 0 H 0 Z"
         transform="translate(-194.4985,-207.90141)"
         id="path109" />
    </clipPath>
    <clipPath
       clipPathUnits="userSpaceOnUse"
       id="clipPath111">
      <path
         d="M 0,841.89 H 595.276 V 0 H 0 Z"
         transform="translate(-198.99561,-207.90141)"
         id="path111" />
    </clipPath>
    <clipPath
       clipPathUnits="userSpaceOnUse"
       id="clipPath113">
      <path
         d="M 0,841.89 H 595.276 V 0 H 0 Z"
         transform="translate(-202.86771,-207.82531)"
         id="path113" />
    </clipPath>
    <clipPath
       clipPathUnits="userSpaceOnUse"
       id="clipPath115">
      <path
         d="M 0,841.89 H 595.276 V 0 H 0 Z"
         transform="translate(-206.4097,-207.82531)"
         id="path115" />
    </clipPath>
    <clipPath
       clipPathUnits="userSpaceOnUse"
       id="clipPath117">
      <path
         d="M 0,841.89 H 595.276 V 0 H 0 Z"
         transform="translate(-209.75341,-207.86331)"
         id="path117" />
    </clipPath>
    <clipPath
       clipPathUnits="userSpaceOnUse"
       id="clipPath119">
      <path
         d="M 0,841.89 H 595.276 V 0 H 0 Z"
         id="path119" />
    </clipPath>
    <clipPath
       clipPathUnits="userSpaceOnUse"
       id="clipPath121">
      <path
         d="M 0,841.89 H 595.276 V 0 H 0 Z"
         transform="translate(-213.93121,-208.37901)"
         id="path121" />
    </clipPath>
    <clipPath
       clipPathUnits="userSpaceOnUse"
       id="clipPath123">
      <path
         d="M 0,841.89 H 595.276 V 0 H 0 Z"
         transform="translate(-217.5874,-207.82531)"
         id="path123" />
    </clipPath>
    <clipPath
       clipPathUnits="userSpaceOnUse"
       id="clipPath125">
      <path
         d="M 0,841.89 H 595.276 V 0 H 0 Z"
         transform="translate(-221.81691,-207.82531)"
         id="path125" />
    </clipPath>
    <clipPath
       clipPathUnits="userSpaceOnUse"
       id="clipPath127">
      <path
         d="M 0,841.89 H 595.276 V 0 H 0 Z"
         id="path127" />
    </clipPath>
    <clipPath
       clipPathUnits="userSpaceOnUse"
       id="clipPath129">
      <path
         d="M 0,841.89 H 595.276 V 0 H 0 Z"
         transform="translate(-226.9126,-211.97761)"
         id="path129" />
    </clipPath>
    <clipPath
       clipPathUnits="userSpaceOnUse"
       id="clipPath131">
      <path
         d="M 0,841.89 H 595.276 V 0 H 0 Z"
         transform="translate(-229.72801,-207.90141)"
         id="path131" />
    </clipPath>
    <clipPath
       clipPathUnits="userSpaceOnUse"
       id="clipPath133">
      <path
         d="M 0,841.89 H 595.276 V 0 H 0 Z"
         transform="translate(-234.50541,-207.90141)"
         id="path133" />
    </clipPath>
    <clipPath
       clipPathUnits="userSpaceOnUse"
       id="clipPath135">
      <path
         d="M 0,841.89 H 595.276 V 0 H 0 Z"
         transform="translate(-238.33941,-207.90141)"
         id="path135" />
    </clipPath>
    <clipPath
       clipPathUnits="userSpaceOnUse"
       id="clipPath137">
      <path
         d="M 0,841.89 H 595.276 V 0 H 0 Z"
         transform="translate(-245.269,-207.82531)"
         id="path137" />
    </clipPath>
    <clipPath
       clipPathUnits="userSpaceOnUse"
       id="clipPath139">
      <path
         d="M 0,841.89 H 595.276 V 0 H 0 Z"
         id="path139" />
    </clipPath>
    <clipPath
       clipPathUnits="userSpaceOnUse"
       id="clipPath141">
      <path
         d="M 0,841.89 H 595.276 V 0 H 0 Z"
         transform="translate(-251.03271,-207.82531)"
         id="path141" />
    </clipPath>
    <clipPath
       clipPathUnits="userSpaceOnUse"
       id="clipPath143">
      <path
         d="M 0,841.89 H 595.276 V 0 H 0 Z"
         transform="translate(-253.4155,-207.90141)"
         id="path143" />
    </clipPath>
    <clipPath
       clipPathUnits="userSpaceOnUse"
       id="clipPath145">
      <path
         d="M 0,841.89 H 595.276 V 0 H 0 Z"
         transform="translate(-258.61281,-207.82531)"
         id="path145" />
    </clipPath>
    <clipPath
       clipPathUnits="userSpaceOnUse"
       id="clipPath147">
      <path
         d="M 0,841.89 H 595.276 V 0 H 0 Z"
         id="path147" />
    </clipPath>
    <clipPath
       clipPathUnits="userSpaceOnUse"
       id="clipPath149">
      <path
         d="M 0,841.89 H 595.276 V 0 H 0 Z"
         transform="translate(-263.314,-207.82531)"
         id="path149" />
    </clipPath>
    <clipPath
       clipPathUnits="userSpaceOnUse"
       id="clipPath151">
      <path
         d="M 0,841.89 H 595.276 V 0 H 0 Z"
         transform="translate(-267.14791,-207.82531)"
         id="path151" />
    </clipPath>
    <clipPath
       clipPathUnits="userSpaceOnUse"
       id="clipPath153">
      <path
         d="M 0,841.89 H 595.276 V 0 H 0 Z"
         transform="translate(-170.1733,-200.68461)"
         id="path153" />
    </clipPath>
    <clipPath
       clipPathUnits="userSpaceOnUse"
       id="clipPath155">
      <path
         d="M 0,841.89 H 595.276 V 0 H 0 Z"
         id="path155" />
    </clipPath>
    <clipPath
       clipPathUnits="userSpaceOnUse"
       id="clipPath157">
      <path
         d="M 0,841.89 H 595.276 V 0 H 0 Z"
         transform="translate(-177.0972,-200.60851)"
         id="path157" />
    </clipPath>
    <clipPath
       clipPathUnits="userSpaceOnUse"
       id="clipPath159">
      <path
         d="M 0,841.89 H 595.276 V 0 H 0 Z"
         transform="translate(-179.6958,-200.2579)"
         id="path159" />
    </clipPath>
    <clipPath
       clipPathUnits="userSpaceOnUse"
       id="clipPath161">
      <path
         d="M 0,841.89 H 595.276 V 0 H 0 Z"
         transform="translate(-187.04001,-200.1817)"
         id="path161" />
    </clipPath>
    <clipPath
       clipPathUnits="userSpaceOnUse"
       id="clipPath163">
      <path
         d="M 0,841.89 H 595.276 V 0 H 0 Z"
         transform="translate(-190.97661,-200.60851)"
         id="path163" />
    </clipPath>
    <clipPath
       clipPathUnits="userSpaceOnUse"
       id="clipPath165">
      <path
         d="M 0,841.89 H 595.276 V 0 H 0 Z"
         id="path165" />
    </clipPath>
    <clipPath
       clipPathUnits="userSpaceOnUse"
       id="clipPath167">
      <path
         d="M 0,841.89 H 595.276 V 0 H 0 Z"
         transform="translate(-196.6831,-200.1817)"
         id="path167" />
    </clipPath>
    <clipPath
       clipPathUnits="userSpaceOnUse"
       id="clipPath169">
      <path
         d="M 0,841.89 H 595.276 V 0 H 0 Z"
         transform="translate(-199.8745,-200.1817)"
         id="path169" />
    </clipPath>
    <clipPath
       clipPathUnits="userSpaceOnUse"
       id="clipPath171">
      <path
         d="M 0,841.89 H 595.276 V 0 H 0 Z"
         transform="translate(-203.7085,-200.1817)"
         id="path171" />
    </clipPath>
    <clipPath
       clipPathUnits="userSpaceOnUse"
       id="clipPath173">
      <path
         d="M 0,841.89 H 595.276 V 0 H 0 Z"
         transform="translate(-176.4175,-225.56551)"
         id="path173" />
    </clipPath>
    <clipPath
       clipPathUnits="userSpaceOnUse"
       id="clipPath175">
      <path
         d="M 0,841.89 H 595.276 V 0 H 0 Z"
         transform="translate(-183.66501,-225.7735)"
         id="path175" />
    </clipPath>
    <clipPath
       clipPathUnits="userSpaceOnUse"
       id="clipPath177">
      <path
         d="M 0,841.89 H 595.276 V 0 H 0 Z"
         transform="translate(-200.01511,-225.56551)"
         id="path177" />
    </clipPath>
    <clipPath
       clipPathUnits="userSpaceOnUse"
       id="clipPath179">
      <path
         d="M 0,841.89 H 595.276 V 0 H 0 Z"
         id="path179" />
    </clipPath>
    <clipPath
       clipPathUnits="userSpaceOnUse"
       id="clipPath181">
      <path
         d="M 0,841.89 H 595.276 V 0 H 0 Z"
         transform="translate(-212.23881,-225.7735)"
         id="path181" />
    </clipPath>
    <clipPath
       clipPathUnits="userSpaceOnUse"
       id="clipPath183">
      <path
         d="M 0,841.89 H 595.276 V 0 H 0 Z"
         id="path183" />
    </clipPath>
    <clipPath
       clipPathUnits="userSpaceOnUse"
       id="clipPath185">
      <path
         d="M 0,841.89 H 595.276 V 0 H 0 Z"
         transform="translate(-235.71531,-228.11431)"
         id="path185" />
    </clipPath>
    <clipPath
       clipPathUnits="userSpaceOnUse"
       id="clipPath187">
      <path
         d="M 0,841.89 H 595.276 V 0 H 0 Z"
         transform="translate(-137.032,-214.38211)"
         id="path187" />
    </clipPath>
    <clipPath
       clipPathUnits="userSpaceOnUse"
       id="clipPath189">
      <path
         d="M 0,841.89 H 595.276 V 0 H 0 Z"
         transform="translate(-135.9976,-226.9327)"
         id="path189" />
    </clipPath>
    <clipPath
       clipPathUnits="userSpaceOnUse"
       id="clipPath191">
      <path
         d="M 0,841.89 H 595.276 V 0 H 0 Z"
         transform="translate(-152.9349,-239.71411)"
         id="path191" />
    </clipPath>
    <clipPath
       clipPathUnits="userSpaceOnUse"
       id="clipPath193">
      <path
         d="M 0,841.89 H 595.276 V 0 H 0 Z"
         transform="translate(-163.46301,-239.71411)"
         id="path193" />
    </clipPath>
    <clipPath
       clipPathUnits="userSpaceOnUse"
       id="clipPath195">
      <path
         d="M 0,841.89 H 595.276 V 0 H 0 Z"
         transform="translate(-130.40121,-219.82171)"
         id="path195" />
    </clipPath>
    <clipPath
       clipPathUnits="userSpaceOnUse"
       id="clipPath197">
      <path
         d="M 0,841.89 H 595.276 V 0 H 0 Z"
         transform="translate(-163.46301,-231.56871)"
         id="path197" />
    </clipPath>
    <clipPath
       clipPathUnits="userSpaceOnUse"
       id="clipPath199">
      <path
         d="M 0,841.89 H 595.276 V 0 H 0 Z"
         transform="translate(-141.825,-223.0816)"
         id="path199" />
    </clipPath>
    <clipPath
       clipPathUnits="userSpaceOnUse"
       id="clipPath201">
      <path
         d="M 0,841.89 H 595.276 V 0 H 0 Z"
         transform="translate(-163.46301,-216.37701)"
         id="path201" />
    </clipPath>
    <clipPath
       clipPathUnits="userSpaceOnUse"
       id="clipPath203">
      <path
         d="M 0,841.89 H 595.276 V 0 H 0 Z"
         transform="translate(-135.0741,-215.8321)"
         id="path203" />
    </clipPath>
    <clipPath
       clipPathUnits="userSpaceOnUse"
       id="clipPath207">
      <path
         d="M 0,841.89 H 595.276 V 0 H 0 Z"
         transform="translate(-235.84951,-67.534502)"
         id="path207" />
    </clipPath>
    <clipPath
       clipPathUnits="userSpaceOnUse"
       id="clipPath209">
      <path
         d="M 0,841.89 H 595.276 V 0 H 0 Z"
         transform="translate(-234.8152,-80.085077)"
         id="path209" />
    </clipPath>
    <clipPath
       clipPathUnits="userSpaceOnUse"
       id="clipPath211">
      <path
         d="M 0,841.89 H 595.276 V 0 H 0 Z"
         transform="translate(-251.75241,-92.866502)"
         id="path211" />
    </clipPath>
    <clipPath
       clipPathUnits="userSpaceOnUse"
       id="clipPath213">
      <path
         d="M 0,841.89 H 595.276 V 0 H 0 Z"
         transform="translate(-262.2805,-92.866502)"
         id="path213" />
    </clipPath>
    <clipPath
       clipPathUnits="userSpaceOnUse"
       id="clipPath215">
      <path
         d="M 0,841.89 H 595.276 V 0 H 0 Z"
         transform="translate(-229.2187,-72.974027)"
         id="path215" />
    </clipPath>
    <clipPath
       clipPathUnits="userSpaceOnUse"
       id="clipPath217">
      <path
         d="M 0,841.89 H 595.276 V 0 H 0 Z"
         transform="translate(-262.2805,-84.721127)"
         id="path217" />
    </clipPath>
    <clipPath
       clipPathUnits="userSpaceOnUse"
       id="clipPath219">
      <path
         d="M 0,841.89 H 595.276 V 0 H 0 Z"
         transform="translate(-240.64251,-76.233977)"
         id="path219" />
    </clipPath>
    <clipPath
       clipPathUnits="userSpaceOnUse"
       id="clipPath221">
      <path
         d="M 0,841.89 H 595.276 V 0 H 0 Z"
         transform="translate(-262.2805,-69.529277)"
         id="path221" />
    </clipPath>
    <clipPath
       clipPathUnits="userSpaceOnUse"
       id="clipPath223">
      <path
         d="M 0,841.89 H 595.276 V 0 H 0 Z"
         transform="translate(-233.89171,-68.984402)"
         id="path223" />
    </clipPath>
  </defs>
  <g
     inkscape:label="Layer 1"
     inkscape:groupmode="layer"
     id="layer1"
     transform="translate(-1.7950528)">
    <g
       id="g3"
       transform="matrix(3.9408341,0,0,3.9408341,-331.44907,-286.71357)">
      <path
         id="path204"
         d="m 101.72074,81.844411 c -0.11885,0 -0.22737,-0.02067 -0.32659,-0.06201 -0.0971,-0.04341 -0.18087,-0.104387 -0.25218,-0.181901 -0.0724,-0.07958 -0.12816,-0.171566 -0.1695,-0.276986 -0.0393,-0.104386 -0.0579,-0.219108 -0.0579,-0.343132 0,-0.12609 0.0186,-0.241845 0.0579,-0.347265 0.0413,-0.104387 0.0971,-0.195337 0.1695,-0.272852 0.0713,-0.07958 0.15503,-0.14056 0.25218,-0.181901 0.0992,-0.04341 0.20774,-0.06615 0.32659,-0.06615 0.11266,0 0.21291,0.02067 0.30179,0.06201 0.0909,0.04134 0.16743,0.09405 0.23151,0.157097 0.063,0.06408 0.10749,0.130224 0.1323,0.198437 l -0.15297,0.06615 c -0.0413,-0.09922 -0.10748,-0.178801 -0.19843,-0.239779 -0.0889,-0.05994 -0.19327,-0.09095 -0.3142,-0.09095 -0.12402,0 -0.23564,0.03101 -0.33486,0.09095 -0.0992,0.06098 -0.17673,0.144694 -0.23151,0.252181 -0.0527,0.10542 -0.0786,0.229444 -0.0786,0.37207 0,0.14056 0.0258,0.264584 0.0786,0.372071 0.0548,0.107487 0.13229,0.192236 0.23151,0.252181 0.0992,0.05788 0.21084,0.08682 0.33486,0.08682 0.12093,0 0.22531,-0.02997 0.3142,-0.09095 0.0909,-0.05994 0.15709,-0.14056 0.19843,-0.239779 l 0.15297,0.06615 c -0.0248,0.06925 -0.0693,0.135392 -0.1323,0.198437 -0.0641,0.06408 -0.14056,0.115756 -0.23151,0.157097 -0.0889,0.04134 -0.18913,0.06201 -0.30179,0.06201 z m 1.50172,0 c -0.11369,0 -0.21497,-0.0279 -0.30592,-0.08268 -0.0889,-0.05478 -0.15917,-0.129191 -0.21084,-0.223242 -0.0527,-0.09612 -0.0785,-0.204639 -0.0785,-0.326595 0,-0.117822 0.0248,-0.224276 0.0744,-0.318327 0.0517,-0.09302 0.12092,-0.166398 0.20671,-0.219108 0.0879,-0.05478 0.18603,-0.08268 0.29352,-0.08268 0.0847,0 0.16123,0.0155 0.22738,0.04547 0.0682,0.03101 0.12609,0.07338 0.17363,0.128158 0.0496,0.05271 0.0868,0.113688 0.11162,0.181901 0.0269,0.06614 0.0413,0.136425 0.0413,0.210839 0,0.01654 -0.002,0.03307 -0.004,0.04961 0,0.01654 -0.002,0.03514 -0.004,0.05374 h -1.02939 v -0.14056 h 0.94258 l -0.0703,0.05788 c 0.0103,-0.08268 -0.002,-0.15813 -0.0372,-0.227376 -0.0331,-0.06821 -0.0806,-0.121957 -0.14056,-0.161231 -0.061,-0.04134 -0.13126,-0.06201 -0.21084,-0.06201 -0.0775,0 -0.14883,0.02067 -0.21497,0.06201 -0.0661,0.04134 -0.11886,0.09819 -0.1571,0.169499 -0.0362,0.07235 -0.0517,0.157096 -0.0455,0.256315 -0.006,0.09715 0.0103,0.181901 0.0496,0.256315 0.0413,0.07235 0.0951,0.128158 0.16123,0.169499 0.0682,0.03927 0.1447,0.05788 0.22738,0.05788 0.0879,0 0.16226,-0.02067 0.22324,-0.06201 0.0631,-0.04134 0.11369,-0.09508 0.15296,-0.161231 l 0.12816,0.07028 c -0.0248,0.05581 -0.062,0.10542 -0.11162,0.148828 -0.0496,0.04444 -0.10749,0.08062 -0.17363,0.107487 -0.0661,0.02687 -0.13953,0.04134 -0.21911,0.04134 z m 0.84336,-0.02894 v -1.198894 h 0.14883 v 0.235645 l -0.0372,-0.0083 c 0.03,-0.07648 0.0796,-0.13746 0.14883,-0.181901 0.0682,-0.04651 0.14883,-0.07028 0.23978,-0.07028 0.0827,0 0.15813,0.01964 0.22737,0.05788 0.0682,0.03617 0.12196,0.08888 0.16123,0.157097 0.0413,0.06615 0.062,0.142627 0.062,0.227376 v 0.781348 h -0.15297 v -0.727605 c 0,-0.07441 -0.0145,-0.136425 -0.0413,-0.186035 -0.0279,-0.05168 -0.0661,-0.09198 -0.11575,-0.119889 -0.0476,-0.02997 -0.10232,-0.04547 -0.16537,-0.04547 -0.0661,0 -0.12402,0.0155 -0.17363,0.04547 -0.0475,0.03101 -0.0847,0.07338 -0.11162,0.128158 -0.0279,0.05271 -0.0413,0.114721 -0.0413,0.186035 v 0.719336 z m 1.73116,0.0124 c -0.10542,0 -0.18604,-0.02894 -0.24391,-0.08682 -0.0558,-0.05995 -0.0827,-0.146762 -0.0827,-0.26045 V 80.7654 h -0.2191 v -0.148829 h 0.0661 c 0.0496,0 0.0868,-0.01447 0.11162,-0.04547 0.0269,-0.02997 0.0413,-0.07028 0.0413,-0.119889 v -0.111621 h 0.15297 v 0.276985 h 0.26458 v 0.148829 h -0.26458 v 0.715201 c 0,0.03927 0.005,0.07338 0.0165,0.103353 0.0103,0.03101 0.03,0.05581 0.0579,0.07441 0.03,0.01964 0.0713,0.02894 0.12402,0.02894 0.0103,0 0.0248,0 0.0413,0 0.0165,-0.0021 0.03,-0.0052 0.0413,-0.0083 v 0.136426 c -0.0165,0.0052 -0.0362,0.0083 -0.0579,0.0083 -0.0227,0.0021 -0.0393,0.0041 -0.0496,0.0041 z m 0.42065,-0.0124 v -1.198894 h 0.14882 v 0.21084 l -0.0207,-0.0248 c 0.0248,-0.06305 0.0672,-0.112655 0.12816,-0.148828 0.06,-0.03514 0.13229,-0.05374 0.21498,-0.05374 h 0.0785 v 0.152962 h -0.0992 c -0.0941,0 -0.16847,0.02894 -0.22325,0.08682 -0.0527,0.05788 -0.0785,0.138493 -0.0785,0.239778 v 0.735873 z m 1.31981,0.02894 c -0.11369,0 -0.21704,-0.0279 -0.31006,-0.08268 -0.0909,-0.05478 -0.16433,-0.129191 -0.2191,-0.223242 -0.0527,-0.09612 -0.0785,-0.203605 -0.0785,-0.322461 0,-0.120923 0.0258,-0.22841 0.0785,-0.322461 0.0548,-0.09302 0.12815,-0.166398 0.2191,-0.219108 0.091,-0.05478 0.19431,-0.08268 0.31006,-0.08268 0.11576,0 0.21911,0.02791 0.31006,0.08268 0.091,0.05271 0.16226,0.126091 0.21497,0.219108 0.0548,0.09405 0.0827,0.201538 0.0827,0.322461 0,0.121956 -0.0279,0.229443 -0.0827,0.322461 -0.0558,0.09405 -0.12815,0.168465 -0.2191,0.223242 -0.0909,0.05478 -0.19327,0.08268 -0.30593,0.08268 z m 0,-0.152962 c 0.0827,0 0.1571,-0.02067 0.22324,-0.06201 0.0682,-0.04134 0.12196,-0.09715 0.16123,-0.169498 0.0414,-0.07441 0.062,-0.15503 0.062,-0.243913 0,-0.09095 -0.0207,-0.171566 -0.062,-0.243913 -0.0393,-0.07131 -0.093,-0.128157 -0.16123,-0.169498 -0.0661,-0.04341 -0.14056,-0.06615 -0.22324,-0.06615 -0.0827,0 -0.15916,0.02274 -0.22737,0.06615 -0.0661,0.04134 -0.11989,0.09819 -0.16123,0.169498 -0.0393,0.07235 -0.0579,0.152962 -0.0579,0.243913 0,0.08888 0.0186,0.169499 0.0579,0.243913 0.0413,0.07235 0.0951,0.128157 0.16123,0.169498 0.0682,0.04134 0.14469,0.06201 0.22737,0.06201 z m 1.31878,0.124024 v -1.674317 h 0.54571 c 0.16536,0 0.30799,0.03514 0.42995,0.103353 0.12092,0.06615 0.21497,0.163298 0.28112,0.289388 0.0682,0.124024 0.10335,0.271818 0.10335,0.44235 0,0.171566 -0.0351,0.320394 -0.10335,0.446485 -0.0661,0.124023 -0.1602,0.221175 -0.28112,0.289388 -0.12196,0.06925 -0.26459,0.103353 -0.42995,0.103353 z m 0.16123,-0.148829 h 0.38448 c 0.12919,0 0.24184,-0.02894 0.33899,-0.08682 0.0961,-0.05788 0.17054,-0.137459 0.22325,-0.239779 0.0517,-0.101285 0.0786,-0.223242 0.0786,-0.363802 0,-0.14056 -0.0269,-0.260449 -0.0786,-0.359668 -0.0527,-0.101285 -0.12816,-0.181901 -0.22738,-0.239778 -0.0971,-0.05788 -0.20877,-0.08682 -0.33486,-0.08682 h -0.38448 z m 2.02882,0.177767 c -0.11369,0 -0.21497,-0.0279 -0.30592,-0.08268 -0.0889,-0.05478 -0.15917,-0.129191 -0.21084,-0.223242 -0.0527,-0.09612 -0.0786,-0.204639 -0.0786,-0.326595 0,-0.117822 0.0248,-0.224276 0.0744,-0.318327 0.0517,-0.09302 0.12093,-0.166398 0.20671,-0.219108 0.0879,-0.05478 0.18603,-0.08268 0.29352,-0.08268 0.0847,0 0.16123,0.0155 0.22738,0.04547 0.0682,0.03101 0.12609,0.07338 0.17363,0.128158 0.0496,0.05271 0.0868,0.113688 0.11162,0.181901 0.0269,0.06614 0.0413,0.136425 0.0413,0.210839 0,0.01654 -0.002,0.03307 -0.004,0.04961 0,0.01654 -0.002,0.03514 -0.004,0.05374 h -1.02939 v -0.14056 h 0.94258 l -0.0703,0.05788 c 0.0103,-0.08268 -0.002,-0.15813 -0.0372,-0.227376 -0.0331,-0.06821 -0.0806,-0.121957 -0.14056,-0.161231 -0.061,-0.04134 -0.13126,-0.06201 -0.21084,-0.06201 -0.0775,0 -0.14883,0.02067 -0.21497,0.06201 -0.0662,0.04134 -0.11886,0.09819 -0.1571,0.169499 -0.0362,0.07235 -0.0517,0.157096 -0.0455,0.256315 -0.006,0.09715 0.0103,0.181901 0.0496,0.256315 0.0413,0.07235 0.0951,0.128158 0.16124,0.169499 0.0682,0.03927 0.14469,0.05788 0.22737,0.05788 0.0878,0 0.16227,-0.02067 0.22324,-0.06201 0.0631,-0.04134 0.11369,-0.09508 0.15297,-0.161231 l 0.12815,0.07028 c -0.0248,0.05581 -0.062,0.10542 -0.11162,0.148828 -0.0496,0.04444 -0.10748,0.08062 -0.17363,0.107487 -0.0661,0.02687 -0.13953,0.04134 -0.21911,0.04134 z m 1.99988,0 c -0.11886,0 -0.22738,-0.02067 -0.3266,-0.06201 -0.0971,-0.04341 -0.18086,-0.104387 -0.25218,-0.181901 -0.0723,-0.07958 -0.12815,-0.171566 -0.1695,-0.276986 -0.0393,-0.104386 -0.0579,-0.219108 -0.0579,-0.343132 0,-0.12609 0.0186,-0.241845 0.0579,-0.347265 0.0413,-0.104387 0.0972,-0.195337 0.1695,-0.272852 0.0713,-0.07958 0.15503,-0.14056 0.25218,-0.181901 0.0992,-0.04341 0.20774,-0.06615 0.3266,-0.06615 0.11265,0 0.21291,0.02067 0.30179,0.06201 0.091,0.04134 0.16743,0.09405 0.23151,0.157097 0.0631,0.06408 0.10749,0.130224 0.13229,0.198437 l -0.15296,0.06615 c -0.0413,-0.09922 -0.10749,-0.178801 -0.19844,-0.239779 -0.0889,-0.05994 -0.19327,-0.09095 -0.31419,-0.09095 -0.12402,0 -0.23565,0.03101 -0.33486,0.09095 -0.0992,0.06098 -0.17674,0.144694 -0.23151,0.252181 -0.0527,0.10542 -0.0786,0.229444 -0.0786,0.37207 0,0.14056 0.0258,0.264584 0.0786,0.372071 0.0548,0.107487 0.13229,0.192236 0.23151,0.252181 0.0992,0.05788 0.21084,0.08682 0.33486,0.08682 0.12092,0 0.22531,-0.02997 0.31419,-0.09095 0.091,-0.05994 0.1571,-0.14056 0.19844,-0.239779 l 0.15296,0.06615 c -0.0248,0.06925 -0.0692,0.135392 -0.13229,0.198437 -0.0641,0.06408 -0.14056,0.115756 -0.23151,0.157097 -0.0889,0.04134 -0.18914,0.06201 -0.30179,0.06201 z m 1.51309,0 c -0.11369,0 -0.21705,-0.0279 -0.31006,-0.08268 -0.0909,-0.05478 -0.16433,-0.129191 -0.21911,-0.223242 -0.0527,-0.09612 -0.0785,-0.203605 -0.0785,-0.322461 0,-0.120923 0.0258,-0.22841 0.0785,-0.322461 0.0548,-0.09302 0.12816,-0.166398 0.21911,-0.219108 0.091,-0.05478 0.1943,-0.08268 0.31006,-0.08268 0.11575,0 0.2191,0.02791 0.31005,0.08268 0.0909,0.05271 0.16227,0.126091 0.21498,0.219108 0.0548,0.09405 0.0827,0.201538 0.0827,0.322461 0,0.121956 -0.0279,0.229443 -0.0827,0.322461 -0.0558,0.09405 -0.12816,0.168465 -0.21911,0.223242 -0.091,0.05478 -0.19327,0.08268 -0.30592,0.08268 z m 0,-0.152962 c 0.0827,0 0.15709,-0.02067 0.22324,-0.06201 0.0682,-0.04134 0.12195,-0.09715 0.16123,-0.169498 0.0413,-0.07441 0.062,-0.15503 0.062,-0.243913 0,-0.09095 -0.0207,-0.171566 -0.062,-0.243913 -0.0393,-0.07131 -0.093,-0.128157 -0.16123,-0.169498 -0.0662,-0.04341 -0.14056,-0.06615 -0.22324,-0.06615 -0.0827,0 -0.15917,0.02274 -0.22738,0.06615 -0.0662,0.04134 -0.11989,0.09819 -0.16123,0.169498 -0.0393,0.07235 -0.0579,0.152962 -0.0579,0.243913 0,0.08888 0.0186,0.169499 0.0579,0.243913 0.0413,0.07235 0.0951,0.128157 0.16123,0.169498 0.0682,0.04134 0.14469,0.06201 0.22738,0.06201 z m 0.9188,0.124024 v -1.198894 h 0.14883 v 0.235645 l -0.0372,-0.0083 c 0.03,-0.07648 0.0796,-0.13746 0.14883,-0.181901 0.0682,-0.04651 0.14883,-0.07028 0.23978,-0.07028 0.0827,0 0.15813,0.01964 0.22738,0.05788 0.0682,0.03617 0.12195,0.08888 0.16123,0.157097 0.0413,0.06615 0.062,0.142627 0.062,0.227376 v 0.781348 h -0.15296 v -0.727605 c 0,-0.07441 -0.0145,-0.136425 -0.0413,-0.186035 -0.0279,-0.05168 -0.0661,-0.09198 -0.11576,-0.119889 -0.0475,-0.02997 -0.10232,-0.04547 -0.16536,-0.04547 -0.0661,0 -0.12403,0.0155 -0.17364,0.04547 -0.0475,0.03101 -0.0847,0.07338 -0.11162,0.128158 -0.0279,0.05271 -0.0413,0.114721 -0.0413,0.186035 v 0.719336 z m 1.69396,0.02894 c -0.11369,0 -0.21291,-0.02894 -0.29766,-0.08682 -0.0858,-0.05788 -0.1478,-0.134359 -0.18604,-0.23151 l 0.12816,-0.06201 c 0.0351,0.07441 0.0837,0.134359 0.1447,0.177767 0.063,0.04134 0.13332,0.06201 0.21084,0.06201 0.0744,0 0.13642,-0.01757 0.18603,-0.05374 0.0517,-0.03824 0.0786,-0.08785 0.0786,-0.148828 0,-0.03824 -0.0114,-0.07028 -0.0331,-0.09508 -0.0227,-0.02687 -0.0496,-0.04754 -0.0827,-0.06201 -0.031,-0.01654 -0.0599,-0.02894 -0.0868,-0.03721 l -0.1819,-0.04961 c -0.10542,-0.02997 -0.1819,-0.07235 -0.23151,-0.128157 -0.0496,-0.05788 -0.0744,-0.124024 -0.0744,-0.198438 0,-0.06821 0.0165,-0.128157 0.0496,-0.177767 0.0351,-0.05168 0.0837,-0.09198 0.14469,-0.119889 0.06,-0.02687 0.1261,-0.04134 0.19844,-0.04134 0.0992,0 0.19017,0.02687 0.27285,0.07855 0.0827,0.04961 0.14056,0.119889 0.17364,0.21084 l -0.13229,0.06201 c -0.031,-0.06821 -0.0744,-0.120922 -0.1323,-0.157096 -0.0558,-0.03824 -0.11782,-0.05788 -0.18603,-0.05788 -0.0692,0 -0.12609,0.0186 -0.1695,0.05374 -0.0413,0.03617 -0.062,0.08165 -0.062,0.136426 0,0.03927 0.009,0.07028 0.0289,0.09508 0.0186,0.02481 0.0424,0.04444 0.0703,0.05788 0.03,0.01447 0.0579,0.0248 0.0827,0.03307 l 0.19844,0.05788 c 0.0992,0.02791 0.17466,0.07235 0.22737,0.132291 0.0548,0.05788 0.0827,0.127124 0.0827,0.206706 0,0.06615 -0.0186,0.12609 -0.0537,0.177767 -0.0362,0.04961 -0.0868,0.08992 -0.15296,0.119889 -0.0641,0.02997 -0.13539,0.04547 -0.21497,0.04547 z m 1.15445,0 c -0.0827,0 -0.15917,-0.01964 -0.22738,-0.05788 -0.0661,-0.03824 -0.11989,-0.09198 -0.16123,-0.161231 -0.0393,-0.07131 -0.0579,-0.153995 -0.0579,-0.248047 v -0.760677 h 0.14883 v 0.744141 c 0,0.06925 0.0134,0.128158 0.0413,0.177767 0.0269,0.04754 0.0641,0.08475 0.11162,0.111621 0.0496,0.02791 0.10542,0.04134 0.1695,0.04134 0.0662,0 0.12402,-0.01344 0.17363,-0.04134 0.0496,-0.02997 0.0868,-0.07131 0.11163,-0.124023 0.0269,-0.05478 0.0413,-0.117823 0.0413,-0.19017 v -0.719336 h 0.15296 v 1.198894 h -0.15296 v -0.239779 l 0.0372,0.0124 c -0.0279,0.07752 -0.0765,0.139527 -0.14469,0.186035 -0.0692,0.04651 -0.1509,0.07028 -0.24391,0.07028 z m 0.86403,-0.02894 v -1.703256 h 0.14882 v 1.703256 z m 0.95601,0.0124 c -0.10542,0 -0.18603,-0.02894 -0.24391,-0.08682 -0.0558,-0.05995 -0.0827,-0.146762 -0.0827,-0.26045 v -0.715201 h -0.21911 v -0.148829 h 0.0661 c 0.0496,0 0.0868,-0.01447 0.11162,-0.04547 0.0269,-0.02997 0.0414,-0.07028 0.0414,-0.119889 v -0.111621 h 0.15296 v 0.276985 h 0.26458 v 0.148829 h -0.26458 v 0.715201 c 0,0.03927 0.005,0.07338 0.0165,0.103353 0.0103,0.03101 0.03,0.05581 0.0579,0.07441 0.03,0.01964 0.0713,0.02894 0.12402,0.02894 0.0103,0 0.0248,0 0.0413,0 0.0165,-0.0021 0.03,-0.0052 0.0413,-0.0083 v 0.136426 c -0.0165,0.0052 -0.0362,0.0083 -0.0579,0.0083 -0.0227,0.0021 -0.0393,0.0041 -0.0496,0.0041 z m 0.93431,0.01654 c -0.11369,0 -0.21704,-0.0279 -0.31006,-0.08268 -0.091,-0.05478 -0.16433,-0.129191 -0.21911,-0.223242 -0.0527,-0.09612 -0.0785,-0.203605 -0.0785,-0.322461 0,-0.120923 0.0258,-0.22841 0.0785,-0.322461 0.0548,-0.09302 0.12816,-0.166398 0.21911,-0.219108 0.0909,-0.05478 0.19431,-0.08268 0.31006,-0.08268 0.11576,0 0.21911,0.02791 0.31006,0.08268 0.0909,0.05271 0.16226,0.126091 0.21497,0.219108 0.0548,0.09405 0.0827,0.201538 0.0827,0.322461 0,0.121956 -0.0279,0.229443 -0.0827,0.322461 -0.0558,0.09405 -0.12815,0.168465 -0.2191,0.223242 -0.091,0.05478 -0.19327,0.08268 -0.30593,0.08268 z m 0,-0.152962 c 0.0827,0 0.1571,-0.02067 0.22324,-0.06201 0.0682,-0.04134 0.12196,-0.09715 0.16123,-0.169498 0.0413,-0.07441 0.062,-0.15503 0.062,-0.243913 0,-0.09095 -0.0207,-0.171566 -0.062,-0.243913 -0.0393,-0.07131 -0.093,-0.128157 -0.16123,-0.169498 -0.0661,-0.04341 -0.14056,-0.06615 -0.22324,-0.06615 -0.0827,0 -0.15916,0.02274 -0.22738,0.06615 -0.0661,0.04134 -0.11989,0.09819 -0.16123,0.169498 -0.0393,0.07235 -0.0579,0.152962 -0.0579,0.243913 0,0.08888 0.0186,0.169499 0.0579,0.243913 0.0413,0.07235 0.0951,0.128157 0.16123,0.169498 0.0682,0.04134 0.1447,0.06201 0.22738,0.06201 z m 0.91777,0.124024 v -1.198894 h 0.14883 v 0.21084 l -0.0207,-0.0248 c 0.0248,-0.06305 0.0672,-0.112655 0.12816,-0.148828 0.06,-0.03514 0.13229,-0.05374 0.21497,-0.05374 h 0.0786 v 0.152962 h -0.0992 c -0.094,0 -0.16846,0.02894 -0.22324,0.08682 -0.0527,0.05788 -0.0785,0.138493 -0.0785,0.239778 v 0.735873 z m 0.72451,0 v -1.198894 h 0.14883 v 1.198894 z m -0.004,-1.438672 0.19844,-0.338998 h 0.20671 l -0.25218,0.338998 z m 0.82269,1.46761 c -0.0744,0 -0.14262,-0.01447 -0.20257,-0.04134 -0.0579,-0.02997 -0.10542,-0.07028 -0.14056,-0.119889 -0.0331,-0.05168 -0.0496,-0.111621 -0.0496,-0.177767 0,-0.05994 0.0124,-0.115755 0.0372,-0.165365 0.0269,-0.05168 0.0682,-0.09612 0.12402,-0.132291 0.0579,-0.03824 0.13229,-0.06408 0.22324,-0.07855 l 0.47543,-0.08268 v 0.14056 l -0.43822,0.07441 c -0.0941,0.01654 -0.16123,0.04754 -0.20257,0.09095 -0.0413,0.04134 -0.062,0.08992 -0.062,0.144694 0,0.06098 0.0217,0.110587 0.0661,0.148828 0.0465,0.03927 0.10542,0.05788 0.17777,0.05788 0.0847,0 0.15916,-0.01757 0.22324,-0.05374 0.0631,-0.03824 0.11162,-0.08888 0.1447,-0.152962 0.0351,-0.06305 0.0537,-0.132292 0.0537,-0.206706 v -0.30179 c 0,-0.07441 -0.0279,-0.134359 -0.0827,-0.181901 -0.0527,-0.04961 -0.12299,-0.07441 -0.21084,-0.07441 -0.0744,0 -0.14056,0.01964 -0.19844,0.05788 -0.0579,0.03617 -0.10129,0.08475 -0.12816,0.144694 l -0.14056,-0.07441 c 0.0217,-0.04961 0.0558,-0.09508 0.10336,-0.136426 0.0496,-0.04134 0.10438,-0.07235 0.16536,-0.09508 0.0631,-0.0248 0.12919,-0.03721 0.19844,-0.03721 0.0847,0 0.16123,0.01654 0.22737,0.04961 0.0682,0.03307 0.12196,0.08061 0.16123,0.14056 0.0383,0.06098 0.0579,0.130225 0.0579,0.206706 v 0.826823 h -0.15296 V 81.57156 l 0.0248,0.01654 c -0.0227,0.04754 -0.0558,0.08992 -0.0992,0.128158 -0.0444,0.03927 -0.0971,0.07028 -0.15709,0.09508 -0.061,0.0217 -0.12713,0.03307 -0.19844,0.03307 z m 2.10117,0 c -0.11886,0 -0.22738,-0.02067 -0.3266,-0.06201 -0.0971,-0.04341 -0.18087,-0.104387 -0.25218,-0.181901 -0.0724,-0.07958 -0.12816,-0.171566 -0.1695,-0.276986 -0.0393,-0.104386 -0.0579,-0.219108 -0.0579,-0.343132 0,-0.12609 0.0186,-0.241845 0.0579,-0.347265 0.0413,-0.104387 0.0971,-0.195337 0.1695,-0.272852 0.0713,-0.07958 0.15503,-0.14056 0.25218,-0.181901 0.0992,-0.04341 0.20774,-0.06615 0.3266,-0.06615 0.11265,0 0.2129,0.02067 0.30179,0.06201 0.0909,0.04134 0.16743,0.09405 0.23151,0.157097 0.063,0.06408 0.10748,0.130224 0.13229,0.198437 l -0.15296,0.06615 c -0.0413,-0.09922 -0.10749,-0.178801 -0.19844,-0.239779 -0.0889,-0.05994 -0.19327,-0.09095 -0.31419,-0.09095 -0.12403,0 -0.23565,0.03101 -0.33487,0.09095 -0.0992,0.06098 -0.17673,0.144694 -0.23151,0.252181 -0.0527,0.10542 -0.0785,0.229444 -0.0785,0.37207 0,0.14056 0.0258,0.264584 0.0785,0.372071 0.0548,0.107487 0.13229,0.192236 0.23151,0.252181 0.0992,0.05788 0.21084,0.08682 0.33487,0.08682 0.12092,0 0.2253,-0.02997 0.31419,-0.09095 0.0909,-0.05994 0.15709,-0.14056 0.19844,-0.239779 l 0.15296,0.06615 c -0.0248,0.06925 -0.0692,0.135392 -0.13229,0.198437 -0.0641,0.06408 -0.14056,0.115756 -0.23151,0.157097 -0.0889,0.04134 -0.18914,0.06201 -0.30179,0.06201 z m 0.97771,-0.02894 v -1.198894 h 0.14883 v 1.198894 z m 0,-1.42627 v -0.248047 h 0.14883 v 0.248047 z m 1.05627,1.455208 c -0.11369,0 -0.21497,-0.0279 -0.30592,-0.08268 -0.0889,-0.05478 -0.15917,-0.129191 -0.21084,-0.223242 -0.0527,-0.09612 -0.0786,-0.204639 -0.0786,-0.326595 0,-0.117822 0.0248,-0.224276 0.0744,-0.318327 0.0517,-0.09302 0.12092,-0.166398 0.20671,-0.219108 0.0879,-0.05478 0.18603,-0.08268 0.29352,-0.08268 0.0847,0 0.16123,0.0155 0.22738,0.04547 0.0682,0.03101 0.12609,0.07338 0.17363,0.128158 0.0496,0.05271 0.0868,0.113688 0.11162,0.181901 0.0269,0.06614 0.0413,0.136425 0.0413,0.210839 0,0.01654 -0.002,0.03307 -0.004,0.04961 0,0.01654 -0.002,0.03514 -0.004,0.05374 h -1.02939 v -0.14056 h 0.94258 l -0.0703,0.05788 c 0.0103,-0.08268 -0.002,-0.15813 -0.0372,-0.227376 -0.0331,-0.06821 -0.0806,-0.121957 -0.14056,-0.161231 -0.061,-0.04134 -0.13126,-0.06201 -0.21084,-0.06201 -0.0775,0 -0.14883,0.02067 -0.21498,0.06201 -0.0661,0.04134 -0.11885,0.09819 -0.15709,0.169499 -0.0362,0.07235 -0.0517,0.157096 -0.0455,0.256315 -0.006,0.09715 0.0103,0.181901 0.0496,0.256315 0.0413,0.07235 0.0951,0.128158 0.16123,0.169499 0.0682,0.03927 0.1447,0.05788 0.22738,0.05788 0.0879,0 0.16226,-0.02067 0.22324,-0.06201 0.0631,-0.04134 0.11369,-0.09508 0.15296,-0.161231 l 0.12816,0.07028 c -0.0248,0.05581 -0.062,0.10542 -0.11162,0.148828 -0.0496,0.04444 -0.10749,0.08062 -0.17363,0.107487 -0.0661,0.02687 -0.13953,0.04134 -0.21911,0.04134 z m 0.84336,-0.02894 v -1.198894 h 0.14883 v 0.235645 l -0.0372,-0.0083 c 0.03,-0.07648 0.0796,-0.13746 0.14883,-0.181901 0.0682,-0.04651 0.14883,-0.07028 0.23978,-0.07028 0.0827,0 0.15813,0.01964 0.22737,0.05788 0.0682,0.03617 0.12196,0.08888 0.16123,0.157097 0.0413,0.06615 0.062,0.142627 0.062,0.227376 v 0.781348 h -0.15297 v -0.727605 c 0,-0.07441 -0.0145,-0.136425 -0.0413,-0.186035 -0.0279,-0.05168 -0.0661,-0.09198 -0.11575,-0.119889 -0.0476,-0.02997 -0.10232,-0.04547 -0.16537,-0.04547 -0.0661,0 -0.12402,0.0155 -0.17363,0.04547 -0.0475,0.03101 -0.0848,0.07338 -0.11162,0.128158 -0.0279,0.05271 -0.0413,0.114721 -0.0413,0.186035 v 0.719336 z m 1.73116,0.0124 c -0.10542,0 -0.18604,-0.02894 -0.24391,-0.08682 -0.0558,-0.05995 -0.0827,-0.146762 -0.0827,-0.26045 V 80.7654 h -0.2191 v -0.148829 h 0.0661 c 0.0496,0 0.0868,-0.01447 0.11162,-0.04547 0.0269,-0.02997 0.0413,-0.07028 0.0413,-0.119889 v -0.111621 h 0.15297 v 0.276985 h 0.26458 v 0.148829 h -0.26458 v 0.715201 c 0,0.03927 0.005,0.07338 0.0165,0.103353 0.0103,0.03101 0.03,0.05581 0.0579,0.07441 0.03,0.01964 0.0713,0.02894 0.12402,0.02894 0.0103,0 0.0248,0 0.0413,0 0.0165,-0.0021 0.03,-0.0052 0.0413,-0.0083 v 0.136426 c -0.0165,0.0052 -0.0362,0.0083 -0.0579,0.0083 -0.0227,0.0021 -0.0393,0.0041 -0.0496,0.0041 z m 0.38344,-0.0124 v -1.198894 h 0.14883 v 1.198894 z m -0.004,-1.438672 0.19844,-0.338998 h 0.20671 l -0.25218,0.338998 z m 0.59945,1.438672 v -1.050065 h -0.23978 v -0.148829 h 0.23978 v -0.111621 c 0,-0.08475 0.0176,-0.157096 0.0537,-0.214974 0.0382,-0.05788 0.0868,-0.101285 0.1447,-0.132291 0.0599,-0.02997 0.12506,-0.04548 0.1943,-0.04548 0.0165,0 0.0331,0.0021 0.0496,0.0041 0.0186,0.0031 0.0341,0.0062 0.0455,0.0083 v 0.136425 c -0.008,-0.0021 -0.0227,-0.0041 -0.0413,-0.0041 -0.0165,-0.0021 -0.0289,-0.0041 -0.0372,-0.0041 -0.0744,0 -0.13643,0.02067 -0.18604,0.06201 -0.0475,0.03927 -0.0703,0.102319 -0.0703,0.190169 v 0.111621 h 0.678 v 0.148828 h -0.678 v 1.050065 z m 0.7028,0 v -1.198894 h 0.14883 v 1.198894 z m 1.02009,0.02894 c -0.11575,0 -0.21911,-0.0279 -0.31006,-0.08268 -0.0889,-0.05478 -0.15916,-0.129191 -0.21084,-0.223242 -0.0496,-0.09612 -0.0744,-0.203605 -0.0744,-0.322461 0,-0.120923 0.0248,-0.22841 0.0744,-0.322461 0.0517,-0.09302 0.12196,-0.166398 0.21084,-0.219108 0.091,-0.05478 0.19431,-0.08268 0.31006,-0.08268 0.0744,0 0.14263,0.01447 0.20671,0.04134 0.0661,0.0248 0.12402,0.05994 0.17363,0.103353 0.0517,0.04444 0.0909,0.09508 0.11576,0.152962 l -0.13643,0.07028 c -0.0331,-0.06615 -0.0816,-0.119889 -0.14469,-0.161231 -0.061,-0.04134 -0.13229,-0.06201 -0.21498,-0.06201 -0.0827,0 -0.15709,0.02067 -0.22324,0.06201 -0.0662,0.04134 -0.11886,0.09819 -0.1571,0.169499 -0.0393,0.07235 -0.0579,0.155029 -0.0579,0.248047 0,0.09095 0.0186,0.172599 0.0579,0.243913 0.0382,0.07235 0.0909,0.128157 0.1571,0.169498 0.0661,0.04134 0.14056,0.06201 0.22324,0.06201 0.0827,0 0.154,-0.0186 0.21498,-0.05788 0.063,-0.04134 0.11162,-0.09612 0.14469,-0.165365 l 0.13643,0.07441 c -0.0248,0.05581 -0.0641,0.106453 -0.11576,0.152962 -0.0496,0.04444 -0.10749,0.08062 -0.17363,0.107487 -0.0641,0.02687 -0.13229,0.04134 -0.20671,0.04134 z m 1.12758,0 c -0.0744,0 -0.14262,-0.01447 -0.20257,-0.04134 -0.0579,-0.02997 -0.10542,-0.07028 -0.14056,-0.119889 -0.0331,-0.05168 -0.0496,-0.111621 -0.0496,-0.177767 0,-0.05994 0.0124,-0.115755 0.0372,-0.165365 0.0269,-0.05168 0.0682,-0.09612 0.12402,-0.132291 0.0579,-0.03824 0.13229,-0.06408 0.22324,-0.07855 l 0.47543,-0.08268 v 0.14056 l -0.43822,0.07441 c -0.0941,0.01654 -0.16123,0.04754 -0.20257,0.09095 -0.0413,0.04134 -0.062,0.08992 -0.062,0.144694 0,0.06098 0.0217,0.110587 0.0661,0.148828 0.0465,0.03927 0.10542,0.05788 0.17777,0.05788 0.0848,0 0.15916,-0.01757 0.22324,-0.05374 0.0631,-0.03824 0.11162,-0.08888 0.1447,-0.152962 0.0351,-0.06305 0.0537,-0.132292 0.0537,-0.206706 v -0.30179 c 0,-0.07441 -0.0279,-0.134359 -0.0827,-0.181901 -0.0527,-0.04961 -0.12299,-0.07441 -0.21084,-0.07441 -0.0744,0 -0.14056,0.01964 -0.19844,0.05788 -0.0579,0.03617 -0.10128,0.08475 -0.12816,0.144694 l -0.14056,-0.07441 c 0.0217,-0.04961 0.0558,-0.09508 0.10336,-0.136426 0.0496,-0.04134 0.10438,-0.07235 0.16536,-0.09508 0.0631,-0.0248 0.12919,-0.03721 0.19844,-0.03721 0.0848,0 0.16123,0.01654 0.22738,0.04961 0.0682,0.03307 0.12195,0.08061 0.16123,0.14056 0.0382,0.06098 0.0579,0.130225 0.0579,0.206706 v 0.826823 h -0.15296 V 81.57156 l 0.0248,0.01654 c -0.0227,0.04754 -0.0558,0.08992 -0.0992,0.128158 -0.0445,0.03927 -0.0972,0.07028 -0.1571,0.09508 -0.061,0.0217 -0.12712,0.03307 -0.19844,0.03307 z m -32.70291,2.667538 v -0.77308 l -0.58704,-0.901237 h 0.1819 l 0.5209,0.79375 h -0.0661 l 0.5209,-0.79375 h 0.17777 l -0.58705,0.901237 v 0.77308 z m 1.36219,0 v -1.674317 h 0.13643 l 0.62838,0.921908 h -0.0744 l 0.62838,-0.921908 h 0.14056 v 1.674317 h -0.16536 v -1.44694 l 0.0496,0.02067 -0.61185,0.901237 h -0.008 l -0.61185,-0.901237 0.0496,-0.02067 v 1.44694 z m 2.38849,0.02894 c -0.11369,0 -0.21498,-0.02791 -0.30593,-0.08268 -0.0889,-0.05478 -0.15916,-0.129191 -0.21084,-0.223242 -0.0527,-0.09612 -0.0785,-0.204639 -0.0785,-0.326595 0,-0.117822 0.0248,-0.224276 0.0744,-0.318327 0.0517,-0.09302 0.12092,-0.166398 0.2067,-0.219108 0.0879,-0.05478 0.18604,-0.08268 0.29353,-0.08268 0.0847,0 0.16123,0.0155 0.22737,0.04547 0.0682,0.03101 0.12609,0.07338 0.17364,0.128158 0.0496,0.05271 0.0868,0.113688 0.11162,0.181901 0.0269,0.06615 0.0413,0.136425 0.0413,0.210839 0,0.01654 -0.002,0.03307 -0.004,0.04961 0,0.01654 -0.002,0.03514 -0.004,0.05374 h -1.0294 v -0.14056 h 0.94258 l -0.0703,0.05788 c 0.0103,-0.08268 -0.002,-0.15813 -0.0372,-0.227376 -0.0331,-0.06821 -0.0806,-0.121957 -0.14056,-0.161231 -0.061,-0.04134 -0.13126,-0.06201 -0.21084,-0.06201 -0.0775,0 -0.14883,0.02067 -0.21498,0.06201 -0.0661,0.04134 -0.11885,0.09819 -0.15709,0.169499 -0.0362,0.07235 -0.0517,0.157096 -0.0455,0.256315 -0.006,0.09715 0.0103,0.181901 0.0496,0.256315 0.0413,0.07235 0.0951,0.128158 0.16123,0.169499 0.0682,0.03927 0.14469,0.05788 0.22738,0.05788 0.0878,0 0.16226,-0.02067 0.22324,-0.06201 0.063,-0.04134 0.11369,-0.09508 0.15296,-0.161231 l 0.12816,0.07028 c -0.0248,0.05581 -0.062,0.10542 -0.11162,0.148828 -0.0496,0.04444 -0.10749,0.08062 -0.17364,0.107487 -0.0661,0.02687 -0.13952,0.04134 -0.2191,0.04134 z m 1.28881,-0.01654 c -0.10542,0 -0.18604,-0.02894 -0.24392,-0.08682 -0.0558,-0.05994 -0.0827,-0.146761 -0.0827,-0.26045 v -0.715201 h -0.21911 V 83.31305 h 0.0661 c 0.0496,0 0.0868,-0.01447 0.11162,-0.04548 0.0269,-0.02997 0.0413,-0.07028 0.0413,-0.119889 V 83.03607 h 0.15296 v 0.276986 h 0.26459 v 0.148828 h -0.26459 v 0.715201 c 0,0.03927 0.005,0.07338 0.0165,0.103353 0.0103,0.03101 0.03,0.05581 0.0579,0.07441 0.03,0.01964 0.0713,0.02894 0.12402,0.02894 0.0103,0 0.0248,0 0.0413,0 0.0165,-0.0021 0.03,-0.0052 0.0413,-0.0083 v 0.136426 c -0.0165,0.0052 -0.0362,0.0083 -0.0579,0.0083 -0.0227,0.0021 -0.0393,0.0041 -0.0496,0.0041 z m 0.73484,0.01654 c -0.0744,0 -0.14263,-0.01447 -0.20258,-0.04134 -0.0579,-0.02997 -0.10542,-0.07028 -0.14056,-0.119889 -0.0331,-0.05168 -0.0496,-0.111621 -0.0496,-0.177767 0,-0.05994 0.0124,-0.115755 0.0372,-0.165365 0.0269,-0.05168 0.0682,-0.09612 0.12403,-0.132291 0.0579,-0.03824 0.13229,-0.06408 0.22324,-0.07855 l 0.47542,-0.08268 v 0.14056 l -0.43822,0.07441 c -0.094,0.01654 -0.16123,0.04754 -0.20257,0.09095 -0.0413,0.04134 -0.062,0.08992 -0.062,0.144694 0,0.06098 0.0217,0.110587 0.0661,0.148828 0.0465,0.03927 0.10542,0.05788 0.17776,0.05788 0.0847,0 0.15917,-0.01757 0.22325,-0.05374 0.063,-0.03824 0.11162,-0.08888 0.14469,-0.152962 0.0351,-0.06305 0.0537,-0.132292 0.0537,-0.206706 v -0.30179 c 0,-0.07441 -0.0279,-0.134359 -0.0827,-0.181901 -0.0527,-0.04961 -0.12299,-0.07441 -0.21084,-0.07441 -0.0744,0 -0.14056,0.01964 -0.19844,0.05788 -0.0579,0.03617 -0.10128,0.08475 -0.12815,0.144694 l -0.14056,-0.07441 c 0.0217,-0.04961 0.0558,-0.09508 0.10335,-0.136426 0.0496,-0.04134 0.10439,-0.07235 0.16536,-0.09508 0.063,-0.02481 0.1292,-0.03721 0.19844,-0.03721 0.0847,0 0.16123,0.01654 0.22738,0.04961 0.0682,0.03307 0.12195,0.08061 0.16123,0.14056 0.0382,0.06098 0.0579,0.130225 0.0579,0.206706 v 0.826823 h -0.15297 v -0.243913 l 0.0248,0.01654 c -0.0227,0.04754 -0.0558,0.08992 -0.0992,0.128158 -0.0444,0.03927 -0.0971,0.07028 -0.1571,0.09508 -0.061,0.0217 -0.12712,0.03307 -0.19844,0.03307 z m 0.9281,-0.558105 V 83.83809 h 0.76895 v 0.144694 z m 1.11725,0.529167 v -1.198893 h 0.14883 v 1.198893 z m 0,-1.42627 v -0.248047 h 0.14883 v 0.248047 z m 0.51056,1.42627 v -1.198893 h 0.14883 V 83.5487 l -0.0372,-0.0083 c 0.03,-0.07648 0.0796,-0.137459 0.14883,-0.181901 0.0682,-0.04651 0.14883,-0.07028 0.23978,-0.07028 0.0827,0 0.15813,0.01964 0.22738,0.05788 0.0682,0.03617 0.12195,0.08888 0.16123,0.157096 0.0413,0.06615 0.062,0.142627 0.062,0.227376 v 0.781348 h -0.15296 v -0.727604 c 0,-0.07441 -0.0145,-0.136426 -0.0414,-0.186035 -0.0279,-0.05168 -0.0661,-0.09198 -0.11575,-0.11989 -0.0475,-0.02997 -0.10232,-0.04547 -0.16537,-0.04547 -0.0661,0 -0.12402,0.0155 -0.17363,0.04547 -0.0475,0.03101 -0.0847,0.07338 -0.11162,0.128158 -0.0279,0.05271 -0.0413,0.114721 -0.0413,0.186035 v 0.719336 z m 1.58543,0 -0.47128,-1.198893 h 0.16536 l 0.40928,1.066601 h -0.0579 l 0.40928,-1.066601 h 0.17363 l -0.47542,1.198893 z m 1.36426,0.02894 c -0.11369,0 -0.21497,-0.02791 -0.30592,-0.08268 -0.0889,-0.05478 -0.15917,-0.129191 -0.21084,-0.223242 -0.0527,-0.09612 -0.0786,-0.204639 -0.0786,-0.326595 0,-0.117822 0.0248,-0.224276 0.0744,-0.318327 0.0517,-0.09302 0.12093,-0.166398 0.20671,-0.219108 0.0879,-0.05478 0.18603,-0.08268 0.29352,-0.08268 0.0847,0 0.16123,0.0155 0.22738,0.04547 0.0682,0.03101 0.12609,0.07338 0.17363,0.128158 0.0496,0.05271 0.0868,0.113688 0.11162,0.181901 0.0269,0.06615 0.0413,0.136425 0.0413,0.21084 0,0.01654 -0.002,0.03307 -0.004,0.04961 0,0.01654 -0.002,0.03514 -0.004,0.05374 h -1.02939 v -0.14056 h 0.94258 l -0.0703,0.05788 c 0.0103,-0.08268 -0.002,-0.15813 -0.0372,-0.227376 -0.0331,-0.06821 -0.0806,-0.121957 -0.14056,-0.161231 -0.061,-0.04134 -0.13126,-0.06201 -0.21084,-0.06201 -0.0775,0 -0.14883,0.02067 -0.21497,0.06201 -0.0661,0.04134 -0.11886,0.09819 -0.1571,0.169499 -0.0362,0.07235 -0.0517,0.157096 -0.0455,0.256315 -0.006,0.09715 0.0103,0.181901 0.0496,0.256315 0.0413,0.07235 0.0951,0.128158 0.16123,0.169499 0.0682,0.03927 0.14469,0.05788 0.22737,0.05788 0.0879,0 0.16227,-0.02067 0.22324,-0.06201 0.0631,-0.04134 0.11369,-0.09508 0.15297,-0.161231 l 0.12815,0.07028 c -0.0248,0.05581 -0.062,0.10542 -0.11162,0.148828 -0.0496,0.04444 -0.10748,0.08062 -0.17363,0.107487 -0.0661,0.02687 -0.13953,0.04134 -0.21911,0.04134 z m 1.25264,0 c -0.11369,0 -0.21291,-0.02894 -0.29766,-0.08682 -0.0858,-0.05788 -0.14779,-0.134359 -0.18603,-0.23151 l 0.12816,-0.06201 c 0.0351,0.07441 0.0837,0.134359 0.14469,0.177767 0.063,0.04134 0.13332,0.06201 0.21084,0.06201 0.0744,0 0.13642,-0.01757 0.18603,-0.05374 0.0517,-0.03824 0.0786,-0.08785 0.0786,-0.148828 0,-0.03824 -0.0114,-0.07028 -0.0331,-0.09508 -0.0227,-0.02687 -0.0496,-0.04754 -0.0827,-0.06201 -0.031,-0.01654 -0.06,-0.02894 -0.0868,-0.03721 l -0.1819,-0.04961 c -0.10542,-0.02997 -0.1819,-0.07235 -0.23151,-0.128157 -0.0496,-0.05788 -0.0744,-0.124024 -0.0744,-0.198438 0,-0.06821 0.0165,-0.128157 0.0496,-0.177767 0.0351,-0.05168 0.0837,-0.09198 0.1447,-0.119889 0.0599,-0.02687 0.12609,-0.04134 0.19844,-0.04134 0.0992,0 0.19017,0.02687 0.27285,0.07855 0.0827,0.04961 0.14056,0.119889 0.17363,0.21084 l -0.13229,0.06201 c -0.031,-0.06821 -0.0744,-0.120923 -0.13229,-0.157097 -0.0558,-0.03824 -0.11783,-0.05788 -0.18604,-0.05788 -0.0692,0 -0.12609,0.0186 -0.1695,0.05374 -0.0413,0.03617 -0.062,0.08165 -0.062,0.136426 0,0.03927 0.009,0.07028 0.0289,0.09508 0.0186,0.02481 0.0424,0.04444 0.0703,0.05788 0.03,0.01447 0.0579,0.02481 0.0827,0.03307 l 0.19844,0.05788 c 0.0992,0.0279 0.17467,0.07235 0.22738,0.132291 0.0548,0.05788 0.0827,0.127124 0.0827,0.206706 0,0.06615 -0.0186,0.12609 -0.0538,0.177767 -0.0362,0.04961 -0.0868,0.08992 -0.15296,0.119889 -0.0641,0.02997 -0.13539,0.04547 -0.21497,0.04547 z m 1.17822,-0.01654 c -0.10542,0 -0.18603,-0.02894 -0.24391,-0.08682 -0.0558,-0.05994 -0.0827,-0.146761 -0.0827,-0.26045 V 83.46188 h -0.21911 v -0.148828 h 0.0661 c 0.0496,0 0.0868,-0.01447 0.11163,-0.04548 0.0269,-0.02997 0.0413,-0.07028 0.0413,-0.119889 V 83.03607 h 0.15296 v 0.276986 h 0.26458 v 0.148828 h -0.26458 v 0.715201 c 0,0.03927 0.005,0.07338 0.0165,0.103353 0.0103,0.03101 0.03,0.05581 0.0579,0.07441 0.03,0.01964 0.0713,0.02894 0.12402,0.02894 0.0103,0 0.0248,0 0.0413,0 0.0165,-0.0021 0.03,-0.0052 0.0413,-0.0083 v 0.136426 c -0.0165,0.0052 -0.0362,0.0083 -0.0579,0.0083 -0.0227,0.0021 -0.0393,0.0041 -0.0496,0.0041 z m 0.42065,-0.0124 v -1.198893 h 0.14883 v 1.198893 z m 0,-1.42627 v -0.248047 h 0.14883 v 0.248047 z m 1.0728,1.922363 c -0.0806,0 -0.15503,-0.01447 -0.22324,-0.04134 -0.0692,-0.0248 -0.12816,-0.05994 -0.17777,-0.103353 -0.0496,-0.04134 -0.0889,-0.09095 -0.11575,-0.148828 l 0.13642,-0.07441 c 0.0269,0.05994 0.0724,0.111621 0.13643,0.152962 0.0661,0.04134 0.14676,0.06201 0.24391,0.06201 0.0713,0 0.13849,-0.01447 0.20257,-0.04134 0.0631,-0.02791 0.11369,-0.07235 0.15296,-0.132292 0.0382,-0.05788 0.0579,-0.130224 0.0579,-0.214974 V 84.18122 l 0.0289,0.02894 c -0.0444,0.08888 -0.10749,0.159164 -0.19017,0.21084 -0.0827,0.04961 -0.1757,0.07441 -0.27698,0.07441 -0.11369,0 -0.21394,-0.02687 -0.30179,-0.08268 -0.0889,-0.05478 -0.15917,-0.128158 -0.21084,-0.219108 -0.0496,-0.09095 -0.0744,-0.192236 -0.0744,-0.305925 0,-0.109554 0.0248,-0.210839 0.0744,-0.30179 0.0517,-0.09095 0.12195,-0.162264 0.21084,-0.214974 0.0878,-0.05478 0.1881,-0.08268 0.30179,-0.08268 0.10128,0 0.19223,0.02377 0.27285,0.07028 0.0827,0.04754 0.14676,0.111621 0.1943,0.194303 l -0.0289,0.04547 v -0.285253 h 0.15296 v 1.153417 c 0,0.104387 -0.0248,0.196371 -0.0744,0.276986 -0.0475,0.08268 -0.11369,0.146761 -0.19844,0.194303 -0.0858,0.04651 -0.18396,0.07028 -0.29352,0.07028 z m -0.0207,-0.665592 c 0.0827,0 0.15503,-0.02067 0.21911,-0.06201 0.0661,-0.04134 0.11782,-0.09612 0.15709,-0.165364 0.0382,-0.06821 0.0579,-0.144694 0.0579,-0.227377 0,-0.08268 -0.0196,-0.158129 -0.0579,-0.227376 -0.0393,-0.06821 -0.091,-0.121956 -0.15709,-0.16123 -0.0641,-0.04134 -0.13643,-0.06201 -0.21911,-0.06201 -0.0827,0 -0.1571,0.02067 -0.22324,0.06201 -0.0662,0.03927 -0.11782,0.09302 -0.15296,0.16123 -0.0362,0.06925 -0.0537,0.144694 -0.0537,0.227376 0,0.08268 0.0176,0.159164 0.0537,0.227377 0.0351,0.06925 0.0868,0.124023 0.15296,0.165364 0.0661,0.04134 0.14056,0.06201 0.22324,0.06201 z m 1.29088,0.198437 c -0.0744,0 -0.14263,-0.01447 -0.20257,-0.04134 -0.0579,-0.02997 -0.10542,-0.07028 -0.14056,-0.119889 -0.0331,-0.05168 -0.0496,-0.111621 -0.0496,-0.177767 0,-0.05994 0.0124,-0.115755 0.0372,-0.165364 0.0269,-0.05168 0.0682,-0.09612 0.12403,-0.132292 0.0579,-0.03824 0.13229,-0.06408 0.22324,-0.07855 l 0.47542,-0.08268 v 0.14056 l -0.43821,0.07441 c -0.0941,0.01654 -0.16123,0.04754 -0.20258,0.09095 -0.0413,0.04134 -0.062,0.08992 -0.062,0.144694 0,0.06098 0.0217,0.110587 0.0661,0.148828 0.0465,0.03927 0.10542,0.05788 0.17777,0.05788 0.0847,0 0.15916,-0.01757 0.22324,-0.05374 0.063,-0.03824 0.11162,-0.08888 0.14469,-0.152962 0.0351,-0.06305 0.0537,-0.132292 0.0537,-0.206706 v -0.30179 c 0,-0.07441 -0.0279,-0.134359 -0.0827,-0.181901 -0.0527,-0.04961 -0.12299,-0.07441 -0.21084,-0.07441 -0.0744,0 -0.14056,0.01964 -0.19843,0.05788 -0.0579,0.03617 -0.10129,0.08475 -0.12816,0.144694 l -0.14056,-0.07441 c 0.0217,-0.04961 0.0558,-0.09508 0.10335,-0.136426 0.0496,-0.04134 0.10439,-0.07235 0.16537,-0.09508 0.063,-0.02481 0.12919,-0.03721 0.19843,-0.03721 0.0847,0 0.16123,0.01654 0.22738,0.04961 0.0682,0.03307 0.12196,0.08061 0.16123,0.14056 0.0382,0.06098 0.0579,0.130225 0.0579,0.206706 v 0.826823 h -0.15296 v -0.243913 l 0.0248,0.01654 c -0.0227,0.04754 -0.0558,0.08992 -0.0992,0.128158 -0.0444,0.03927 -0.0971,0.07028 -0.1571,0.09508 -0.061,0.0217 -0.12712,0.03307 -0.19843,0.03307 z m 1.49035,0 c -0.11576,0 -0.21911,-0.02791 -0.31006,-0.08268 -0.0889,-0.05478 -0.15917,-0.129191 -0.21084,-0.223242 -0.0496,-0.09612 -0.0744,-0.203605 -0.0744,-0.322461 0,-0.120923 0.0248,-0.22841 0.0744,-0.322461 0.0517,-0.09302 0.12195,-0.166398 0.21084,-0.219108 0.091,-0.05478 0.1943,-0.08268 0.31006,-0.08268 0.0744,0 0.14262,0.01447 0.2067,0.04134 0.0662,0.0248 0.12402,0.05994 0.17363,0.103353 0.0517,0.04444 0.0909,0.09508 0.11576,0.152962 l -0.13643,0.07028 c -0.0331,-0.06615 -0.0817,-0.119889 -0.14469,-0.16123 -0.061,-0.04134 -0.13229,-0.06201 -0.21497,-0.06201 -0.0827,0 -0.1571,0.02067 -0.22325,0.06201 -0.0661,0.04134 -0.11885,0.09819 -0.15709,0.169498 -0.0393,0.07235 -0.0579,0.15503 -0.0579,0.248047 0,0.09095 0.0186,0.172599 0.0579,0.243913 0.0382,0.07235 0.091,0.128157 0.15709,0.169499 0.0662,0.04134 0.14056,0.06201 0.22325,0.06201 0.0827,0 0.15399,-0.0186 0.21497,-0.05788 0.063,-0.04134 0.11162,-0.09612 0.14469,-0.165365 l 0.13643,0.07441 c -0.0248,0.05581 -0.0641,0.106454 -0.11576,0.152962 -0.0496,0.04444 -0.10748,0.08062 -0.17363,0.107487 -0.0641,0.02687 -0.13229,0.04134 -0.2067,0.04134 z m 0.80718,-0.02894 v -1.198893 h 0.14883 v 1.198893 z m 0,-1.42627 v -0.248047 h 0.14883 v 0.248047 z m 1.06764,1.455209 c -0.11369,0 -0.21704,-0.02791 -0.31006,-0.08268 -0.0909,-0.05478 -0.16433,-0.129191 -0.21911,-0.223242 -0.0527,-0.09612 -0.0785,-0.203605 -0.0785,-0.322461 0,-0.120923 0.0258,-0.22841 0.0785,-0.322461 0.0548,-0.09302 0.12816,-0.166398 0.21911,-0.219108 0.091,-0.05478 0.1943,-0.08268 0.31006,-0.08268 0.11575,0 0.2191,0.02791 0.31005,0.08268 0.091,0.05271 0.16227,0.126091 0.21498,0.219108 0.0548,0.09405 0.0827,0.201538 0.0827,0.322461 0,0.121957 -0.0279,0.229444 -0.0827,0.322461 -0.0558,0.09405 -0.12816,0.168465 -0.21911,0.223242 -0.091,0.05478 -0.19327,0.08268 -0.30592,0.08268 z m 0,-0.152963 c 0.0827,0 0.15709,-0.02067 0.22324,-0.06201 0.0682,-0.04134 0.12195,-0.09715 0.16123,-0.169499 0.0413,-0.07441 0.062,-0.155029 0.062,-0.243913 0,-0.09095 -0.0207,-0.171566 -0.062,-0.243913 -0.0393,-0.07131 -0.093,-0.128157 -0.16123,-0.169498 -0.0662,-0.04341 -0.14056,-0.06615 -0.22324,-0.06615 -0.0827,0 -0.15917,0.02274 -0.22738,0.06615 -0.0662,0.04134 -0.11989,0.09818 -0.16123,0.169498 -0.0393,0.07235 -0.0579,0.152963 -0.0579,0.243913 0,0.08888 0.0186,0.169499 0.0579,0.243913 0.0413,0.07235 0.0951,0.128158 0.16123,0.169499 0.0682,0.04134 0.14469,0.06201 0.22738,0.06201 z m -0.0786,-1.314648 0.19844,-0.338997 h 0.2067 l -0.25218,0.338997 z m 0.99735,1.438672 v -1.198893 h 0.14883 V 83.5487 l -0.0372,-0.0083 c 0.03,-0.07648 0.0796,-0.137459 0.14883,-0.181901 0.0682,-0.04651 0.14883,-0.07028 0.23978,-0.07028 0.0827,0 0.15813,0.01964 0.22738,0.05788 0.0682,0.03617 0.12195,0.08888 0.16123,0.157096 0.0413,0.06615 0.062,0.142627 0.062,0.227376 v 0.781348 h -0.15296 v -0.727604 c 0,-0.07441 -0.0145,-0.136426 -0.0413,-0.186035 -0.0279,-0.05168 -0.0661,-0.09198 -0.11576,-0.11989 -0.0475,-0.02997 -0.10232,-0.04547 -0.16536,-0.04547 -0.0661,0 -0.12403,0.0155 -0.17364,0.04547 -0.0475,0.03101 -0.0847,0.07338 -0.11162,0.128158 -0.0279,0.05271 -0.0413,0.114721 -0.0413,0.186035 v 0.719336 z m 1.68569,0 v -1.674317 h 1.0666 v 0.148828 h -0.90537 v 0.611849 h 0.85989 v 0.148829 h -0.85989 v 0.615983 h 0.90537 v 0.148828 z m 1.35185,0 v -1.198893 h 0.14883 V 83.5487 l -0.0372,-0.0083 c 0.03,-0.07648 0.0796,-0.137459 0.14883,-0.181901 0.0682,-0.04651 0.14883,-0.07028 0.23978,-0.07028 0.0827,0 0.15813,0.01964 0.22738,0.05788 0.0682,0.03617 0.12195,0.08888 0.16123,0.157096 0.0413,0.06615 0.062,0.142627 0.062,0.227376 v 0.781348 h -0.15296 v -0.727604 c 0,-0.07441 -0.0145,-0.136426 -0.0413,-0.186035 -0.0279,-0.05168 -0.0662,-0.09198 -0.11576,-0.11989 -0.0475,-0.02997 -0.10232,-0.04547 -0.16536,-0.04547 -0.0662,0 -0.12403,0.0155 -0.17364,0.04547 -0.0475,0.03101 -0.0847,0.07338 -0.11162,0.128158 -0.0279,0.05271 -0.0413,0.114721 -0.0413,0.186035 v 0.719336 z m 2.44223,0.02894 c -0.11885,0 -0.22737,-0.02067 -0.32659,-0.06201 -0.0971,-0.04341 -0.18087,-0.104387 -0.25218,-0.181901 -0.0724,-0.07958 -0.12816,-0.171566 -0.1695,-0.276986 -0.0393,-0.104386 -0.0579,-0.219108 -0.0579,-0.343131 0,-0.126091 0.0186,-0.241846 0.0579,-0.347266 0.0413,-0.104386 0.0971,-0.195337 0.1695,-0.272852 0.0713,-0.07958 0.15503,-0.140559 0.25218,-0.181901 0.0992,-0.04341 0.20774,-0.06614 0.32659,-0.06614 0.11266,0 0.21291,0.02067 0.30179,0.06201 0.091,0.04134 0.16743,0.09405 0.23151,0.157097 0.0631,0.06408 0.10749,0.130224 0.13229,0.198437 l -0.15296,0.06615 c -0.0413,-0.09922 -0.10748,-0.178801 -0.19844,-0.239779 -0.0889,-0.05994 -0.19327,-0.09095 -0.31419,-0.09095 -0.12402,0 -0.23564,0.03101 -0.33486,0.09095 -0.0992,0.06098 -0.17673,0.144694 -0.23151,0.252181 -0.0527,0.10542 -0.0786,0.229444 -0.0786,0.372071 0,0.140559 0.0258,0.264583 0.0786,0.37207 0.0548,0.107487 0.13229,0.192236 0.23151,0.252181 0.0992,0.05788 0.21084,0.08682 0.33486,0.08682 0.12092,0 0.22531,-0.02997 0.31419,-0.09095 0.091,-0.05994 0.1571,-0.14056 0.19844,-0.239779 l 0.15296,0.06615 c -0.0248,0.06925 -0.0692,0.135392 -0.13229,0.198437 -0.0641,0.06408 -0.14056,0.115756 -0.23151,0.157097 -0.0889,0.04134 -0.18913,0.06201 -0.30179,0.06201 z m 0.97772,-0.02894 v -1.198893 h 0.14883 v 1.198893 z m 0,-1.42627 v -0.248047 h 0.14883 v 0.248047 z m 1.05627,1.455209 c -0.11369,0 -0.21498,-0.02791 -0.30593,-0.08268 -0.0889,-0.05478 -0.15916,-0.129191 -0.21084,-0.223242 -0.0527,-0.09612 -0.0785,-0.204639 -0.0785,-0.326595 0,-0.117822 0.0248,-0.224276 0.0744,-0.318327 0.0517,-0.09302 0.12092,-0.166398 0.2067,-0.219108 0.0879,-0.05478 0.18604,-0.08268 0.29353,-0.08268 0.0847,0 0.16123,0.0155 0.22737,0.04547 0.0682,0.03101 0.12609,0.07338 0.17363,0.128158 0.0496,0.05271 0.0868,0.113688 0.11163,0.181901 0.0269,0.06615 0.0413,0.136426 0.0413,0.21084 0,0.01654 -0.002,0.03307 -0.004,0.04961 0,0.01654 -0.002,0.03514 -0.004,0.05374 h -1.0294 v -0.14056 h 0.94258 l -0.0703,0.05788 c 0.0103,-0.08268 -0.002,-0.15813 -0.0372,-0.227376 -0.0331,-0.06821 -0.0806,-0.121957 -0.14056,-0.161231 -0.061,-0.04134 -0.13126,-0.06201 -0.21084,-0.06201 -0.0775,0 -0.14883,0.02067 -0.21498,0.06201 -0.0661,0.04134 -0.11885,0.09819 -0.15709,0.169499 -0.0362,0.07235 -0.0517,0.157096 -0.0455,0.256315 -0.006,0.09715 0.0103,0.181901 0.0496,0.256315 0.0413,0.07235 0.0951,0.128158 0.16123,0.169499 0.0682,0.03927 0.14469,0.05788 0.22738,0.05788 0.0879,0 0.16226,-0.02067 0.22324,-0.06201 0.063,-0.04134 0.11369,-0.09508 0.15296,-0.161231 l 0.12816,0.07028 c -0.0248,0.05581 -0.062,0.10542 -0.11162,0.148828 -0.0496,0.04444 -0.10749,0.08062 -0.17364,0.107487 -0.0661,0.02687 -0.13952,0.04134 -0.2191,0.04134 z m 0.84232,-0.02894 v -1.198893 h 0.14883 V 83.5487 l -0.0372,-0.0083 c 0.03,-0.07648 0.0796,-0.137459 0.14883,-0.181901 0.0682,-0.04651 0.14883,-0.07028 0.23978,-0.07028 0.0827,0 0.15813,0.01964 0.22738,0.05788 0.0682,0.03617 0.12195,0.08888 0.16123,0.157096 0.0413,0.06615 0.062,0.142627 0.062,0.227376 v 0.781348 H 131.29 v -0.727604 c 0,-0.07441 -0.0145,-0.136426 -0.0413,-0.186035 -0.0279,-0.05168 -0.0661,-0.09198 -0.11575,-0.11989 -0.0475,-0.02997 -0.10232,-0.04547 -0.16536,-0.04547 -0.0662,0 -0.12403,0.0155 -0.17364,0.04547 -0.0475,0.03101 -0.0848,0.07338 -0.11162,0.128158 -0.0279,0.05271 -0.0413,0.114721 -0.0413,0.186035 v 0.719336 z m 1.83141,0.02894 c -0.11575,0 -0.2191,-0.02791 -0.31005,-0.08268 -0.0889,-0.05478 -0.15917,-0.129191 -0.21084,-0.223242 -0.0496,-0.09612 -0.0744,-0.203605 -0.0744,-0.322461 0,-0.120923 0.0248,-0.22841 0.0744,-0.322461 0.0517,-0.09302 0.12195,-0.166398 0.21084,-0.219108 0.0909,-0.05478 0.1943,-0.08268 0.31005,-0.08268 0.0744,0 0.14263,0.01447 0.20671,0.04134 0.0662,0.02481 0.12402,0.05994 0.17363,0.103353 0.0517,0.04444 0.091,0.09508 0.11576,0.152962 l -0.13643,0.07028 c -0.0331,-0.06615 -0.0816,-0.119889 -0.14469,-0.16123 -0.061,-0.04134 -0.13229,-0.06201 -0.21498,-0.06201 -0.0827,0 -0.15709,0.02067 -0.22324,0.06201 -0.0661,0.04134 -0.11885,0.09819 -0.15709,0.169498 -0.0393,0.07235 -0.0579,0.15503 -0.0579,0.248047 0,0.09095 0.0186,0.172599 0.0579,0.243913 0.0382,0.07235 0.091,0.128158 0.15709,0.169499 0.0661,0.04134 0.14056,0.06201 0.22324,0.06201 0.0827,0 0.154,-0.0186 0.21498,-0.05788 0.063,-0.04134 0.11162,-0.09612 0.14469,-0.165365 l 0.13643,0.07441 c -0.0248,0.05581 -0.0641,0.106454 -0.11576,0.152962 -0.0496,0.04444 -0.10748,0.08062 -0.17363,0.107487 -0.0641,0.02687 -0.13229,0.04134 -0.20671,0.04134 z m 0.80719,-0.02894 v -1.198893 h 0.14883 v 1.198893 z m 0,-1.42627 v -0.248047 h 0.14883 v 0.248047 z m 0.85266,1.455208 c -0.0744,0 -0.14263,-0.01447 -0.20257,-0.04134 -0.0579,-0.02997 -0.10542,-0.07028 -0.14056,-0.119889 -0.0331,-0.05168 -0.0496,-0.111621 -0.0496,-0.177767 0,-0.05994 0.0124,-0.115755 0.0372,-0.165364 0.0269,-0.05168 0.0682,-0.09612 0.12402,-0.132292 0.0579,-0.03824 0.13229,-0.06408 0.22324,-0.07855 l 0.47543,-0.08268 v 0.14056 l -0.43822,0.07441 c -0.0941,0.01654 -0.16123,0.04754 -0.20257,0.09095 -0.0413,0.04134 -0.062,0.08992 -0.062,0.144694 0,0.06098 0.0217,0.110587 0.0661,0.148828 0.0465,0.03927 0.10542,0.05788 0.17777,0.05788 0.0848,0 0.15916,-0.01757 0.22324,-0.05374 0.0631,-0.03824 0.11162,-0.08888 0.1447,-0.152962 0.0351,-0.06305 0.0537,-0.132292 0.0537,-0.206706 v -0.30179 c 0,-0.07441 -0.0279,-0.134359 -0.0827,-0.181901 -0.0527,-0.04961 -0.12299,-0.07441 -0.21084,-0.07441 -0.0744,0 -0.14056,0.01964 -0.19844,0.05788 -0.0579,0.03617 -0.10129,0.08475 -0.12816,0.144694 l -0.14056,-0.07441 c 0.0217,-0.04961 0.0558,-0.09508 0.10336,-0.136426 0.0496,-0.04134 0.10438,-0.07235 0.16536,-0.09508 0.0631,-0.02481 0.12919,-0.03721 0.19844,-0.03721 0.0848,0 0.16123,0.01654 0.22737,0.04961 0.0682,0.03307 0.12196,0.08061 0.16123,0.14056 0.0382,0.06098 0.0579,0.130225 0.0579,0.206706 v 0.826823 h -0.15296 v -0.243913 l 0.0248,0.01654 c -0.0227,0.04754 -0.0558,0.08992 -0.0992,0.128158 -0.0444,0.03927 -0.0971,0.07028 -0.15709,0.09508 -0.061,0.0217 -0.12713,0.03307 -0.19844,0.03307 z m 1.35392,0 c -0.11368,0 -0.2129,-0.02894 -0.29765,-0.08682 -0.0858,-0.05788 -0.1478,-0.134359 -0.18604,-0.23151 l 0.12816,-0.06201 c 0.0351,0.07441 0.0837,0.134359 0.14469,0.177767 0.0631,0.04134 0.13333,0.06201 0.21084,0.06201 0.0744,0 0.13643,-0.01757 0.18604,-0.05374 0.0517,-0.03824 0.0786,-0.08785 0.0786,-0.148828 0,-0.03824 -0.0114,-0.07028 -0.0331,-0.09508 -0.0227,-0.02687 -0.0496,-0.04754 -0.0827,-0.06201 -0.031,-0.01654 -0.0599,-0.02894 -0.0868,-0.03721 l -0.18191,-0.04961 c -0.10542,-0.02997 -0.1819,-0.07235 -0.23151,-0.128157 -0.0496,-0.05788 -0.0744,-0.124024 -0.0744,-0.198438 0,-0.06821 0.0165,-0.128157 0.0496,-0.177767 0.0351,-0.05168 0.0837,-0.09198 0.14469,-0.119889 0.0599,-0.02687 0.12609,-0.04134 0.19844,-0.04134 0.0992,0 0.19017,0.02687 0.27285,0.07855 0.0827,0.04961 0.14056,0.119889 0.17364,0.21084 l -0.1323,0.06201 c -0.031,-0.06821 -0.0744,-0.120923 -0.13229,-0.157097 -0.0558,-0.03824 -0.11782,-0.05788 -0.18603,-0.05788 -0.0693,0 -0.12609,0.0186 -0.1695,0.05374 -0.0413,0.03617 -0.062,0.08165 -0.062,0.136426 0,0.03927 0.009,0.07028 0.0289,0.09508 0.0186,0.02481 0.0424,0.04444 0.0703,0.05788 0.03,0.01447 0.0579,0.02481 0.0827,0.03307 l 0.19843,0.05788 c 0.0992,0.0279 0.17467,0.07235 0.22738,0.132291 0.0548,0.05788 0.0827,0.127124 0.0827,0.206706 0,0.06615 -0.0186,0.12609 -0.0537,0.177767 -0.0362,0.04961 -0.0868,0.08992 -0.15296,0.119889 -0.0641,0.02997 -0.13539,0.04547 -0.21498,0.04547 z m -34.37309,2.667538 v -1.674316 h 0.69453 c 0.093,0 0.17467,0.0186 0.24391,0.05374 0.0682,0.03617 0.12196,0.08578 0.16123,0.148828 0.0383,0.06408 0.0579,0.135392 0.0579,0.214974 0,0.08888 -0.0227,0.167432 -0.0661,0.235644 -0.0444,0.06615 -0.10646,0.114722 -0.18604,0.144695 l -0.004,-0.04134 c 0.0661,0.02274 0.12195,0.05581 0.1695,0.09922 0.0496,0.04134 0.0868,0.09095 0.11162,0.148828 0.0269,0.05788 0.0413,0.11989 0.0413,0.186035 0,0.148829 -0.0475,0.267684 -0.14056,0.355534 -0.0941,0.08578 -0.22324,0.128158 -0.38861,0.128158 z m 0.16123,-0.148828 h 0.52917 c 0.11265,0 0.20257,-0.02894 0.26871,-0.08682 0.0661,-0.05994 0.0992,-0.141593 0.0992,-0.243912 0,-0.101286 -0.0331,-0.181901 -0.0992,-0.239779 -0.0661,-0.05995 -0.15296,-0.09095 -0.26044,-0.09095 h -0.53744 z m 0,-0.810287 h 0.5209 c 0.093,0 0.16743,-0.02584 0.22324,-0.07855 0.0579,-0.05478 0.0868,-0.125057 0.0868,-0.21084 0,-0.08785 -0.0289,-0.155029 -0.0868,-0.202571 -0.0558,-0.04961 -0.13022,-0.07441 -0.22324,-0.07441 h -0.5209 z m 1.37356,0.959115 v -1.198893 h 0.14883 v 1.198893 z m 0,-1.42627 v -0.248046 h 0.14883 v 0.248046 z m 1.06867,1.455209 c -0.11369,0 -0.21704,-0.02791 -0.31006,-0.08268 -0.0909,-0.05478 -0.16433,-0.129191 -0.21911,-0.223242 -0.0527,-0.09612 -0.0785,-0.203605 -0.0785,-0.322461 0,-0.120923 0.0258,-0.22841 0.0785,-0.322461 0.0548,-0.09302 0.12816,-0.166398 0.21911,-0.219108 0.091,-0.05478 0.1943,-0.08268 0.31006,-0.08268 0.11575,0 0.21911,0.0279 0.31006,0.08268 0.091,0.05271 0.16226,0.126091 0.21497,0.219108 0.0548,0.09405 0.0827,0.201538 0.0827,0.322461 0,0.121957 -0.0279,0.229443 -0.0827,0.322461 -0.0558,0.09405 -0.12816,0.168465 -0.21911,0.223242 -0.091,0.05478 -0.19327,0.08268 -0.30592,0.08268 z m 0,-0.152963 c 0.0827,0 0.15709,-0.02067 0.22324,-0.06201 0.0682,-0.04134 0.12196,-0.09715 0.16123,-0.169499 0.0413,-0.07441 0.062,-0.155029 0.062,-0.243913 0,-0.09095 -0.0207,-0.171565 -0.062,-0.243912 -0.0393,-0.07131 -0.093,-0.128158 -0.16123,-0.169499 -0.0661,-0.04341 -0.14056,-0.06615 -0.22324,-0.06615 -0.0827,0 -0.15916,0.02274 -0.22738,0.06615 -0.0661,0.04134 -0.11989,0.09819 -0.16123,0.169499 -0.0393,0.07235 -0.0579,0.152962 -0.0579,0.243912 0,0.08888 0.0186,0.169499 0.0579,0.243913 0.0413,0.07235 0.0951,0.128157 0.16123,0.169499 0.0682,0.04134 0.1447,0.06201 0.22738,0.06201 z m 0.91777,0.124024 v -1.198893 h 0.14883 v 0.235644 l -0.0248,-0.03721 c 0.03,-0.06821 0.0785,-0.121956 0.14469,-0.16123 0.0662,-0.04134 0.13849,-0.06201 0.21911,-0.06201 0.093,0 0.17777,0.02687 0.25218,0.07855 0.0765,0.05271 0.13022,0.121956 0.16123,0.206706 l -0.0455,0.0041 c 0.0269,-0.09302 0.0786,-0.165364 0.15297,-0.214974 0.0765,-0.04961 0.16123,-0.07441 0.25218,-0.07441 0.0796,0 0.15296,0.01964 0.21911,0.05788 0.0682,0.03617 0.12402,0.08888 0.16536,0.157096 0.0413,0.06615 0.062,0.142627 0.062,0.227377 v 0.781347 h -0.15296 v -0.727604 c 0,-0.07441 -0.0145,-0.136426 -0.0413,-0.186035 -0.0279,-0.05168 -0.0651,-0.09198 -0.11162,-0.119889 -0.0475,-0.02997 -0.0992,-0.04548 -0.1571,-0.04548 -0.061,0 -0.11575,0.01551 -0.16536,0.04548 -0.0476,0.031 -0.0847,0.07338 -0.11162,0.128157 -0.0279,0.05271 -0.0414,0.114722 -0.0414,0.186035 v 0.719336 h -0.14882 v -0.727604 c 0,-0.07441 -0.0145,-0.136426 -0.0413,-0.186035 -0.0279,-0.05168 -0.0651,-0.09198 -0.11163,-0.119889 -0.0475,-0.02997 -0.10128,-0.04548 -0.16123,-0.04548 -0.061,0 -0.11472,0.01551 -0.16123,0.04548 -0.0475,0.031 -0.0847,0.07338 -0.11162,0.128157 -0.0279,0.05271 -0.0413,0.114722 -0.0413,0.186035 v 0.719336 z m 2.58796,0.02894 c -0.11369,0 -0.21498,-0.0279 -0.30593,-0.08268 -0.0889,-0.05478 -0.15916,-0.129191 -0.21084,-0.223242 -0.0527,-0.09612 -0.0785,-0.204639 -0.0785,-0.326595 0,-0.117822 0.0248,-0.224276 0.0744,-0.318327 0.0517,-0.09302 0.12092,-0.166398 0.2067,-0.219108 0.0879,-0.05478 0.18604,-0.08268 0.29353,-0.08268 0.0847,0 0.16123,0.0155 0.22737,0.04547 0.0682,0.03101 0.12609,0.07338 0.17364,0.128157 0.0496,0.05271 0.0868,0.113689 0.11162,0.181901 0.0269,0.06615 0.0413,0.136426 0.0413,0.21084 0,0.01653 -0.002,0.03307 -0.004,0.04961 0,0.01654 -0.002,0.03514 -0.004,0.05374 h -1.0294 v -0.14056 h 0.94258 l -0.0703,0.05788 c 0.0103,-0.08268 -0.002,-0.15813 -0.0372,-0.227376 -0.0331,-0.06821 -0.0806,-0.121957 -0.14056,-0.161231 -0.061,-0.04134 -0.13126,-0.06201 -0.21084,-0.06201 -0.0775,0 -0.14883,0.02067 -0.21498,0.06201 -0.0661,0.04134 -0.11885,0.09819 -0.15709,0.169499 -0.0362,0.07235 -0.0517,0.157096 -0.0455,0.256315 -0.006,0.09715 0.0103,0.181901 0.0496,0.256315 0.0413,0.07235 0.0951,0.128158 0.16123,0.169499 0.0682,0.03927 0.14469,0.05788 0.22738,0.05788 0.0879,0 0.16226,-0.02067 0.22324,-0.06201 0.063,-0.04134 0.11369,-0.09508 0.15296,-0.16123 l 0.12816,0.07028 c -0.0248,0.05581 -0.062,0.10542 -0.11162,0.148828 -0.0496,0.04444 -0.10749,0.08062 -0.17363,0.107487 -0.0662,0.02687 -0.13953,0.04134 -0.21911,0.04134 z m 1.38493,0 c -0.11369,0 -0.21498,-0.0279 -0.30593,-0.08268 -0.0889,-0.05478 -0.15916,-0.129191 -0.21084,-0.223242 -0.0496,-0.09612 -0.0744,-0.203605 -0.0744,-0.322461 0,-0.120923 0.0248,-0.22841 0.0744,-0.322461 0.0517,-0.09302 0.12196,-0.166398 0.21084,-0.219108 0.0879,-0.05478 0.19017,-0.08268 0.30593,-0.08268 0.10438,0 0.19843,0.02377 0.28112,0.07028 0.0827,0.04754 0.14676,0.111622 0.1943,0.194304 l -0.0248,0.04548 V 85.50518 h 0.14882 v 1.703256 h -0.14882 v -0.285254 l 0.0248,0.0248 c -0.0413,0.09095 -0.10542,0.163298 -0.19017,0.214974 -0.0858,0.04961 -0.18087,0.07442 -0.28525,0.07442 z m 0.004,-0.152962 c 0.0827,0 0.1571,-0.02067 0.22324,-0.06201 0.0682,-0.04134 0.12196,-0.09715 0.16123,-0.169498 0.0382,-0.07441 0.0579,-0.15503 0.0579,-0.243913 0,-0.09095 -0.0196,-0.171566 -0.0579,-0.243913 -0.0393,-0.07131 -0.093,-0.128158 -0.16123,-0.169499 -0.0661,-0.04134 -0.14056,-0.06201 -0.22324,-0.06201 -0.0827,0 -0.1571,0.02067 -0.22324,0.06201 -0.0661,0.04134 -0.11886,0.09819 -0.1571,0.169499 -0.0362,0.07235 -0.0537,0.152962 -0.0537,0.243913 0,0.08888 0.0176,0.169499 0.0537,0.243913 0.0382,0.07235 0.091,0.128157 0.1571,0.169498 0.0661,0.04134 0.14056,0.06201 0.22324,0.06201 z m 0.95705,0.124024 v -1.198894 h 0.14883 v 1.198894 z m 0,-1.42627 v -0.248047 h 0.14883 v 0.248047 z m 1.05626,1.455208 c -0.11575,0 -0.2191,-0.0279 -0.31005,-0.08268 -0.0889,-0.05478 -0.15917,-0.129191 -0.21084,-0.223242 -0.0496,-0.09612 -0.0744,-0.203605 -0.0744,-0.322461 0,-0.120923 0.0248,-0.22841 0.0744,-0.322461 0.0517,-0.09302 0.12195,-0.166398 0.21084,-0.219108 0.0909,-0.05478 0.1943,-0.08268 0.31005,-0.08268 0.0744,0 0.14263,0.01447 0.20671,0.04134 0.0662,0.0248 0.12402,0.05994 0.17363,0.103353 0.0517,0.04444 0.091,0.09508 0.11576,0.152962 l -0.13643,0.07028 c -0.0331,-0.06615 -0.0816,-0.119889 -0.14469,-0.161231 -0.061,-0.04134 -0.13229,-0.06201 -0.21498,-0.06201 -0.0827,0 -0.15709,0.02067 -0.22324,0.06201 -0.0661,0.04134 -0.11885,0.09819 -0.15709,0.169499 -0.0393,0.07235 -0.0579,0.155029 -0.0579,0.248047 0,0.09095 0.0186,0.172599 0.0579,0.243913 0.0382,0.07235 0.091,0.128157 0.15709,0.169498 0.0661,0.04134 0.14056,0.06201 0.22324,0.06201 0.0827,0 0.154,-0.0186 0.21498,-0.05788 0.063,-0.04134 0.11162,-0.09612 0.14469,-0.165365 l 0.13643,0.07441 c -0.0248,0.05581 -0.0641,0.106453 -0.11576,0.152962 -0.0496,0.04444 -0.10748,0.08062 -0.17363,0.107487 -0.0641,0.02687 -0.13229,0.04134 -0.20671,0.04134 z m 1.12758,0 c -0.0744,0 -0.14262,-0.01447 -0.20257,-0.04134 -0.0579,-0.02997 -0.10542,-0.07028 -0.14056,-0.119889 -0.0331,-0.05168 -0.0496,-0.111621 -0.0496,-0.177767 0,-0.05994 0.0124,-0.115755 0.0372,-0.165365 0.0269,-0.05168 0.0682,-0.09612 0.12402,-0.132292 0.0579,-0.03824 0.13229,-0.06408 0.22325,-0.07855 l 0.47542,-0.08268 v 0.14056 l -0.43822,0.07441 c -0.094,0.01653 -0.16123,0.04754 -0.20257,0.09095 -0.0413,0.04134 -0.062,0.08992 -0.062,0.144694 0,0.06098 0.0217,0.110587 0.0661,0.148828 0.0465,0.03927 0.10542,0.05788 0.17777,0.05788 0.0847,0 0.15917,-0.01757 0.22324,-0.05374 0.0631,-0.03824 0.11163,-0.08888 0.1447,-0.152962 0.0351,-0.06305 0.0537,-0.132292 0.0537,-0.206706 v -0.30179 c 0,-0.07442 -0.0279,-0.134359 -0.0827,-0.181901 -0.0527,-0.04961 -0.12299,-0.07442 -0.21084,-0.07442 -0.0744,0 -0.14056,0.01964 -0.19844,0.05788 -0.0579,0.03617 -0.10128,0.08475 -0.12816,0.144694 l -0.14056,-0.07441 c 0.0217,-0.04961 0.0558,-0.09508 0.10336,-0.136426 0.0496,-0.04134 0.10438,-0.07235 0.16536,-0.09508 0.0631,-0.0248 0.12919,-0.03721 0.19844,-0.03721 0.0848,0 0.16123,0.01653 0.22738,0.04961 0.0682,0.03307 0.12195,0.08062 0.16123,0.14056 0.0382,0.06098 0.0579,0.130225 0.0579,0.206706 v 0.826823 h -0.15296 v -0.243913 l 0.0248,0.01653 c -0.0227,0.04754 -0.0558,0.08992 -0.0992,0.128158 -0.0444,0.03927 -0.0972,0.07028 -0.1571,0.09508 -0.061,0.0217 -0.12712,0.03307 -0.19844,0.03307 z m 1.35393,0 c -0.11369,0 -0.21291,-0.02894 -0.29766,-0.08682 -0.0858,-0.05788 -0.14779,-0.134359 -0.18604,-0.231511 l 0.12816,-0.06201 c 0.0351,0.07441 0.0837,0.134358 0.1447,0.177767 0.063,0.04134 0.13332,0.06201 0.21084,0.06201 0.0744,0 0.13642,-0.01757 0.18603,-0.05374 0.0517,-0.03824 0.0786,-0.08785 0.0786,-0.148828 0,-0.03824 -0.0114,-0.07028 -0.0331,-0.09508 -0.0227,-0.02687 -0.0496,-0.04754 -0.0827,-0.06201 -0.031,-0.01653 -0.0599,-0.02894 -0.0868,-0.03721 l -0.1819,-0.04961 c -0.10542,-0.02997 -0.1819,-0.07235 -0.23151,-0.128158 -0.0496,-0.05788 -0.0744,-0.124023 -0.0744,-0.198437 0,-0.06821 0.0165,-0.128158 0.0496,-0.177767 0.0351,-0.05168 0.0837,-0.09198 0.1447,-0.119889 0.0599,-0.02687 0.12609,-0.04134 0.19843,-0.04134 0.0992,0 0.19017,0.02687 0.27285,0.07855 0.0827,0.04961 0.14056,0.119889 0.17364,0.21084 l -0.13229,0.06201 c -0.031,-0.06821 -0.0744,-0.120923 -0.1323,-0.157096 -0.0558,-0.03824 -0.11782,-0.05788 -0.18603,-0.05788 -0.0693,0 -0.12609,0.01861 -0.1695,0.05374 -0.0413,0.03617 -0.062,0.08165 -0.062,0.136426 0,0.03927 0.009,0.07028 0.0289,0.09508 0.0186,0.0248 0.0424,0.04444 0.0703,0.05788 0.03,0.01447 0.0579,0.0248 0.0827,0.03307 l 0.19844,0.05788 c 0.0992,0.02791 0.17466,0.07235 0.22737,0.132292 0.0548,0.05788 0.0827,0.127124 0.0827,0.206706 0,0.06615 -0.0186,0.12609 -0.0538,0.177767 -0.0362,0.04961 -0.0868,0.08992 -0.15296,0.119889 -0.0641,0.02997 -0.13539,0.04547 -0.21497,0.04547 z m 0,0"
         style="fill:#ffffff;fill-opacity:1;fill-rule:nonzero;stroke:none;stroke-width:0.352778"
         aria-label="Centro De Consultora Cientca &#10;Y Meta-investigacin En Ciencias &#10;Biomedicas " />
      <path
         id="path205"
         d="m 103.32891,78.281839 c -0.32866,0 -0.63252,-0.05994 -0.91364,-0.177767 -0.27905,-0.117823 -0.52296,-0.283187 -0.73173,-0.496094 -0.20671,-0.211873 -0.36794,-0.45992 -0.4837,-0.744141 -0.11575,-0.286287 -0.17363,-0.599446 -0.17363,-0.938444 0,-0.338997 0.0558,-0.651123 0.1695,-0.938444 0.11576,-0.289388 0.27699,-0.538468 0.48369,-0.748274 0.20877,-0.208773 0.45269,-0.37207 0.73174,-0.487826 0.28112,-0.115755 0.58704,-0.173633 0.91777,-0.173633 0.32763,0 0.62219,0.05581 0.8847,0.165365 0.26459,0.110588 0.48886,0.258382 0.67386,0.44235 0.18397,0.181901 0.31523,0.384473 0.39275,0.607715 l -0.83923,0.405143 c -0.0775,-0.220141 -0.21394,-0.402042 -0.40928,-0.545703 -0.19327,-0.145727 -0.42788,-0.219108 -0.7028,-0.219108 -0.27078,0 -0.50746,0.06408 -0.71106,0.190169 -0.20464,0.127124 -0.36277,0.301791 -0.47543,0.525033 -0.11058,0.221175 -0.16536,0.479557 -0.16536,0.777213 0,0.297657 0.0548,0.560173 0.16536,0.785482 0.11266,0.223242 0.27079,0.398942 0.47543,0.525033 0.2036,0.127124 0.44028,0.190169 0.71106,0.190169 0.27492,0 0.50953,-0.07235 0.7028,-0.219108 0.19534,-0.145728 0.33177,-0.327629 0.40928,-0.545703 l 0.83923,0.401009 c -0.0775,0.226343 -0.20878,0.432015 -0.39275,0.615983 -0.185,0.181901 -0.40927,0.328662 -0.67386,0.438216 -0.26251,0.109554 -0.55707,0.165365 -0.8847,0.165365 z m 2.55592,-0.07441 V 73.6475 h 3.06338 v 0.826823 h -2.11667 v 1.033529 h 1.99678 v 0.826823 h -1.99678 v 1.045931 h 2.11667 v 0.826823 z m 5.76916,0.07441 c -0.32867,0 -0.63252,-0.05994 -0.91364,-0.177767 -0.27906,-0.117823 -0.52297,-0.283187 -0.73174,-0.496094 -0.20671,-0.211873 -0.36794,-0.45992 -0.48369,-0.744141 -0.11576,-0.286287 -0.17364,-0.599446 -0.17364,-0.938444 0,-0.338997 0.0558,-0.651123 0.1695,-0.938444 0.11576,-0.289388 0.27699,-0.538468 0.48369,-0.748274 0.20878,-0.208773 0.45269,-0.37207 0.73174,-0.487826 0.28112,-0.115755 0.58705,-0.173633 0.91778,-0.173633 0.32762,0 0.62218,0.05581 0.8847,0.165365 0.26458,0.110588 0.48886,0.258382 0.67386,0.44235 0.18397,0.181901 0.31522,0.384473 0.39274,0.607715 l -0.83923,0.405143 c -0.0775,-0.220141 -0.21394,-0.402042 -0.40927,-0.545703 -0.19327,-0.145727 -0.42788,-0.219108 -0.7028,-0.219108 -0.27079,0 -0.50747,0.06408 -0.71107,0.190169 -0.20464,0.127124 -0.36277,0.301791 -0.47542,0.525033 -0.11059,0.221175 -0.16537,0.479557 -0.16537,0.777213 0,0.297657 0.0548,0.560173 0.16537,0.785482 0.11265,0.223242 0.27078,0.398942 0.47542,0.525033 0.2036,0.127124 0.44028,0.190169 0.71107,0.190169 0.27492,0 0.50953,-0.07235 0.7028,-0.219108 0.19533,-0.145728 0.33176,-0.327629 0.40927,-0.545703 l 0.83923,0.401009 c -0.0775,0.226343 -0.20877,0.432015 -0.39274,0.615983 -0.185,0.181901 -0.40928,0.328662 -0.67386,0.438216 -0.26252,0.109554 -0.55708,0.165365 -0.8847,0.165365 z m 2.55591,-0.07441 V 73.6475 h 0.94671 v 4.559929 z m 1.75597,0 V 73.6475 h 0.91777 l 1.70739,2.265495 h -0.42995 l 1.65778,-2.265495 h 0.91778 v 4.559929 h -0.94672 v -3.513998 l 0.37621,0.08682 -1.75287,2.265494 h -0.12402 l -1.69499,-2.265494 0.31833,-0.08682 v 3.513998 z m 5.57795,0 V 73.6475 h 0.94671 v 4.559929 z m 1.75597,0 V 73.6475 h 1.92649 c 0.3142,0 0.58291,0.05374 0.80616,0.161231 0.22531,0.10542 0.39687,0.256315 0.51263,0.454753 0.11782,0.198437 0.17776,0.438216 0.17776,0.719335 0,0.201538 -0.0558,0.392741 -0.16536,0.574642 -0.10749,0.179834 -0.28836,0.330729 -0.54157,0.454753 v -0.467155 c 0.23978,0.09405 0.42375,0.206706 0.55397,0.338997 0.13229,0.130225 0.22118,0.271818 0.26872,0.425814 0.0496,0.151929 0.0744,0.312126 0.0744,0.479557 0,0.446485 -0.14883,0.795817 -0.44648,1.045931 -0.29766,0.248047 -0.71107,0.372071 -1.24024,0.372071 z m 0.94671,-0.826823 h 1.0914 c 0.19017,0 0.34107,-0.05478 0.45476,-0.165365 0.11575,-0.109554 0.17363,-0.252181 0.17363,-0.425814 0,-0.1788 -0.0579,-0.323494 -0.17363,-0.434082 -0.11369,-0.109554 -0.26459,-0.165364 -0.45476,-0.165364 h -1.0914 z m 0,-2.017448 h 1.04593 c 0.14573,0 0.26252,-0.04134 0.3514,-0.124024 0.0879,-0.08475 0.13229,-0.19637 0.13229,-0.334863 0,-0.14056 -0.0444,-0.252181 -0.13229,-0.334863 -0.0889,-0.08268 -0.20567,-0.124023 -0.3514,-0.124023 h -1.04593 z m 0,0"
         style="fill:#ffffff;fill-opacity:1;fill-rule:nonzero;stroke:none;stroke-width:0.352778"
         aria-label="CECIMIB" />
      <path
         id="path206"
         d="m 0,0 c -5.901,-7.757 -7.97,-15.016 -7.97,-15.016 h 34.401 v 2.964 c 0,0 -13.456,2.734 -26.431,12.052"
         style="fill:#ffffff;fill-opacity:1;fill-rule:nonzero;stroke:none"
         transform="matrix(0.35277776,0,0,-0.35277776,89.432392,82.226139)"
         clip-path="url(#clipPath207)" />
      <path
         id="path208"
         d="m 0,0 c -1.385,-1.542 -2.789,-3.251 -4.193,-5.153 -1.33,1.2 -2.65,2.484 -3.943,3.851 V 7.951 C -5.596,4.793 -2.835,2.17 0,0"
         style="fill:#ffffff;fill-opacity:1;fill-rule:nonzero;stroke:none"
         transform="matrix(0.35277776,0,0,-0.35277776,89.067513,77.798575)"
         clip-path="url(#clipPath209)" />
      <path
         id="path210"
         d="m 0,0 c 0,0 -7.259,-2.567 -15.672,-11.405 -3.232,2.438 -6.446,5.476 -9.401,9.253 V 0 Z"
         style="fill:#ffffff;fill-opacity:1;fill-rule:nonzero;stroke:none"
         transform="matrix(0.35277776,0,0,-0.35277776,95.042582,73.289573)"
         clip-path="url(#clipPath211)" />
      <path
         id="path212"
         d="m 0,0 v -5.458 c 0,0 -10.057,-1.699 -20.114,-9.882 -1.385,0.767 -2.789,1.617 -4.193,2.577 4.978,4.932 11.904,9.799 21.315,12.763 z"
         style="fill:#ffffff;fill-opacity:1;fill-rule:nonzero;stroke:none"
         transform="matrix(0.35277776,0,0,-0.35277776,98.75666,73.289573)"
         clip-path="url(#clipPath213)" />
      <path
         id="path214"
         d="M 0,0 C -0.85,-1.228 -1.699,-2.54 -2.54,-3.925 V 2.549 C -1.709,1.662 -0.868,0.822 0,0"
         style="fill:#ffffff;fill-opacity:1;fill-rule:nonzero;stroke:none"
         transform="matrix(0.35277776,0,0,-0.35277776,87.093192,80.307196)"
         clip-path="url(#clipPath215)" />
      <path
         id="path216"
         d="m 0,0 v -13.225 c 0,0 -8.118,0.157 -17.787,4.84 C -13.123,-4.738 -7.268,-1.644 0,0"
         style="fill:#ffffff;fill-opacity:1;fill-rule:nonzero;stroke:none"
         transform="matrix(0.35277776,0,0,-0.35277776,98.75666,76.16308)"
         clip-path="url(#clipPath217)" />
      <path
         id="path218"
         d="m 0,0 c -1.755,-1.533 -3.5,-3.288 -5.172,-5.282 -1.052,0.784 -2.105,1.625 -3.158,2.511 1.2,1.69 2.641,3.482 4.34,5.283 C -2.66,1.579 -1.321,0.748 0,0"
         style="fill:#ffffff;fill-opacity:1;fill-rule:nonzero;stroke:none"
         transform="matrix(0.35277776,0,0,-0.35277776,91.123257,79.157158)"
         clip-path="url(#clipPath219)" />
      <path
         id="path220"
         d="m 0,0 v -11.258 c 0,0 -12.061,2.318 -24.833,11.249 1.57,1.865 3.389,3.74 5.458,5.513 C -9.106,0.351 0,0 0,0"
         style="fill:#ffffff;fill-opacity:1;fill-rule:nonzero;stroke:none"
         transform="matrix(0.35277776,0,0,-0.35277776,98.75666,81.522427)"
         clip-path="url(#clipPath221)" />
      <path
         id="path222"
         d="m 0,0 c -2.734,-3.602 -5.227,-7.896 -7.213,-12.994 v 7.241 c 0,0 1.173,3.5 4.239,8.2 C -1.995,1.588 -0.997,0.776 0,0"
         style="fill:#ffffff;fill-opacity:1;fill-rule:nonzero;stroke:none"
         transform="matrix(0.35277776,0,0,-0.35277776,88.741723,81.714647)"
         clip-path="url(#clipPath223)" />
    </g>
    <rect
       style="fill:none;stroke-width:0.358"
       id="rect3"
       width="243.5726"
       height="84.233795"
       x="-8.9935122"
       y="-9.9586792" />
  </g>
</svg>
