<?xml version="1.0" encoding="UTF-8" standalone="no"?>
<!-- Created with Inkscape (http://www.inkscape.org/) -->

<svg
   width="61.514786mm"
   height="60.310303mm"
   viewBox="0 0 61.514786 60.310303"
   version="1.1"
   id="svg1"
   inkscape:version="1.4 (86a8ad7, 2024-10-11)"
   sodipodi:docname="logo_solo.svg"
   xmlns:inkscape="http://www.inkscape.org/namespaces/inkscape"
   xmlns:sodipodi="http://sodipodi.sourceforge.net/DTD/sodipodi-0.dtd"
   xmlns="http://www.w3.org/2000/svg"
   xmlns:svg="http://www.w3.org/2000/svg">
  <sodipodi:namedview
     id="namedview1"
     pagecolor="#505050"
     bordercolor="#eeeeee"
     borderopacity="1"
     inkscape:showpageshadow="0"
     inkscape:pageopacity="0"
     inkscape:pagecheckerboard="0"
     inkscape:deskcolor="#505050"
     inkscape:document-units="mm"
     inkscape:zoom="1.3816253"
     inkscape:cx="247.17266"
     inkscape:cy="199.40283"
     inkscape:window-width="1920"
     inkscape:window-height="1111"
     inkscape:window-x="-9"
     inkscape:window-y="-9"
     inkscape:window-maximized="1"
     inkscape:current-layer="layer1" />
  <defs
     id="defs1">
    <clipPath
       clipPathUnits="userSpaceOnUse"
       id="clipPath21">
      <path
         d="M 0,841.89 H 595.276 V 0 H 0 Z"
         transform="translate(-334.66701,-214.38211)"
         id="path21" />
    </clipPath>
    <clipPath
       clipPathUnits="userSpaceOnUse"
       id="clipPath23">
      <path
         d="M 0,841.89 H 595.276 V 0 H 0 Z"
         transform="translate(-333.63271,-226.9327)"
         id="path23" />
    </clipPath>
    <clipPath
       clipPathUnits="userSpaceOnUse"
       id="clipPath25">
      <path
         d="M 0,841.89 H 595.276 V 0 H 0 Z"
         transform="translate(-350.56991,-239.71411)"
         id="path25" />
    </clipPath>
    <clipPath
       clipPathUnits="userSpaceOnUse"
       id="clipPath27">
      <path
         d="M 0,841.89 H 595.276 V 0 H 0 Z"
         transform="translate(-361.09801,-239.71411)"
         id="path27" />
    </clipPath>
    <clipPath
       clipPathUnits="userSpaceOnUse"
       id="clipPath29">
      <path
         d="M 0,841.89 H 595.276 V 0 H 0 Z"
         transform="translate(-328.03621,-219.82171)"
         id="path29" />
    </clipPath>
    <clipPath
       clipPathUnits="userSpaceOnUse"
       id="clipPath31">
      <path
         d="M 0,841.89 H 595.276 V 0 H 0 Z"
         transform="translate(-361.09801,-231.56871)"
         id="path31" />
    </clipPath>
    <clipPath
       clipPathUnits="userSpaceOnUse"
       id="clipPath33">
      <path
         d="M 0,841.89 H 595.276 V 0 H 0 Z"
         transform="translate(-339.46001,-223.0816)"
         id="path33" />
    </clipPath>
    <clipPath
       clipPathUnits="userSpaceOnUse"
       id="clipPath35">
      <path
         d="M 0,841.89 H 595.276 V 0 H 0 Z"
         transform="translate(-361.09801,-216.37701)"
         id="path35" />
    </clipPath>
    <clipPath
       clipPathUnits="userSpaceOnUse"
       id="clipPath37">
      <path
         d="M 0,841.89 H 595.276 V 0 H 0 Z"
         transform="translate(-332.70911,-215.8321)"
         id="path37" />
    </clipPath>
  </defs>
  <g
     inkscape:label="Layer 1"
     inkscape:groupmode="layer"
     id="layer1"
     transform="translate(-1.7950528)">
    <g
       id="g1"
       transform="translate(1.0642407)">
      <path
         id="path20"
         d="m 0,0 c -5.901,-7.757 -7.97,-15.016 -7.97,-15.016 h 34.401 v 2.964 c 0,0 -13.456,2.734 -26.431,12.052"
         style="fill:#1b5aab;fill-opacity:1;fill-rule:nonzero;stroke:none"
         transform="matrix(1.4188133,0,0,-1.4188133,19.243778,37.473397)"
         clip-path="url(#clipPath21)" />
      <path
         id="path22"
         d="m 0,0 c -1.385,-1.542 -2.789,-3.251 -4.193,-5.153 -1.33,1.2 -2.65,2.484 -3.943,3.851 V 7.951 C -5.596,4.793 -2.835,2.17 0,0"
         style="fill:#1b5aab;fill-opacity:1;fill-rule:nonzero;stroke:none"
         transform="matrix(1.4188133,0,0,-1.4188133,17.776295,19.666449)"
         clip-path="url(#clipPath23)" />
      <path
         id="path24"
         d="m 0,0 c 0,0 -7.259,-2.567 -15.672,-11.405 -3.232,2.438 -6.446,5.476 -9.401,9.253 V 0 Z"
         style="fill:#1b5aab;fill-opacity:1;fill-rule:nonzero;stroke:none"
         transform="matrix(1.4188133,0,0,-1.4188133,41.807019,1.5320144)"
         clip-path="url(#clipPath25)" />
      <path
         id="path26"
         d="m 0,0 v -5.458 c 0,0 -10.057,-1.699 -20.114,-9.882 -1.385,0.767 -2.789,1.617 -4.193,2.577 4.978,4.932 11.904,9.799 21.315,12.763 z"
         style="fill:#1b5aab;fill-opacity:1;fill-rule:nonzero;stroke:none"
         transform="matrix(1.4188133,0,0,-1.4188133,56.74443,1.5320144)"
         clip-path="url(#clipPath27)" />
      <path
         id="path28"
         d="M 0,0 C -0.85,-1.228 -1.699,-2.54 -2.54,-3.925 V 2.549 C -1.709,1.662 -0.868,0.822 0,0"
         style="fill:#1b5aab;fill-opacity:1;fill-rule:nonzero;stroke:none"
         transform="matrix(1.4188133,0,0,-1.4188133,9.8359055,29.75562)"
         clip-path="url(#clipPath29)" />
      <path
         id="path30"
         d="m 0,0 v -13.225 c 0,0 -8.118,0.157 -17.787,4.84 C -13.123,-4.738 -7.268,-1.644 0,0"
         style="fill:#1b5aab;fill-opacity:1;fill-rule:nonzero;stroke:none"
         transform="matrix(1.4188133,0,0,-1.4188133,56.74443,13.088821)"
         clip-path="url(#clipPath31)" />
      <path
         id="path32"
         d="m 0,0 c -1.755,-1.533 -3.5,-3.288 -5.172,-5.282 -1.052,0.785 -2.105,1.625 -3.158,2.511 1.2,1.691 2.641,3.482 4.34,5.283 C -2.66,1.579 -1.321,0.748 0,0"
         style="fill:#1b5aab;fill-opacity:1;fill-rule:nonzero;stroke:none"
         transform="matrix(1.4188133,0,0,-1.4188133,26.044143,25.130431)"
         clip-path="url(#clipPath33)" />
      <path
         id="path34"
         d="m 0,0 v -11.258 c 0,0 -12.061,2.318 -24.833,11.249 1.57,1.865 3.389,3.74 5.458,5.513 C -9.106,0.351 0,0 0,0"
         style="fill:#1b5aab;fill-opacity:1;fill-rule:nonzero;stroke:none"
         transform="matrix(1.4188133,0,0,-1.4188133,56.74443,34.642992)"
         clip-path="url(#clipPath35)" />
      <path
         id="path36"
         d="m 0,0 c -2.734,-3.602 -5.227,-7.896 -7.213,-12.994 v 7.241 c 0,0 1.173,3.5 4.239,8.2 C -1.995,1.588 -0.997,0.776 0,0"
         style="fill:#1b5aab;fill-opacity:1;fill-rule:nonzero;stroke:none"
         transform="matrix(1.4188133,0,0,-1.4188133,16.465878,35.416109)"
         clip-path="url(#clipPath37)" />
    </g>
  </g>
</svg>
